<svg xmlns="http://www.w3.org/2000/svg" xmlns:xlink="http://www.w3.org/1999/xlink" width="106" height="135" viewBox="0 0 106 135"><defs><clipPath id="a"><rect width="105.543" height="134" fill="none"/></clipPath></defs><g transform="translate(-109 -662)"><g transform="translate(109 663)" clip-path="url(#a)"><path d="M202.128,201.17l.5-.287a11.627,11.627,0,0,0-.593-1.134l-1.188.684Z" transform="translate(-97.922 -97.776)" fill="#969a9e"/><path d="M200.845,209.027l1.283.738,1.283-.738-1.283-.738Z" transform="translate(-97.922 -101.957)" fill="#969a9e"/><path d="M205.018,205.482c-.033-.183-.067-.367-.106-.552l-.426.246Z" transform="translate(-99.698 -100.312)" fill="#969a9e"/><path d="M203,217.91c.036-.137.07-.274.1-.412l-.976-.562-1.283.738,1.283.738Z" transform="translate(-97.922 -106.189)" fill="#969a9e"/><path d="M204.485,213.642l.683.393c.032-.273.055-.549.072-.826Z" transform="translate(-99.697 -104.364)" fill="#969a9e"/><path d="M201.4,226.4l-.556.32.275.158q.145-.237.281-.478" transform="translate(-97.922 -110.822)" fill="#969a9e"/><path d="M193.563,191.971l1.283.738.678-.39c-.351-.291-.724-.569-1.109-.838Z" transform="translate(-94.372 -93.729)" fill="#969a9e"/><path d="M194.846,199.643l-1.283.738,1.283.738,1.283-.738Z" transform="translate(-94.372 -97.724)" fill="#969a9e"/><path d="M198.518,195.338l-.033-.019-1.283.738,1.283.738.868-.5q-.392-.495-.835-.958" transform="translate(-96.147 -95.608)" fill="#969a9e"/><path d="M193.563,209.027l1.283.738,1.283-.738-1.283-.738Z" transform="translate(-94.372 -101.957)" fill="#969a9e"/><path d="M197.2,204.7l1.283.738,1.283-.738-1.283-.738Z" transform="translate(-96.147 -99.84)" fill="#969a9e"/><path d="M194.846,216.936l-1.283.738,1.283.738,1.283-.738Z" transform="translate(-94.372 -106.189)" fill="#969a9e"/><path d="M197.2,213.35l1.283.738,1.283-.738-1.283-.738Z" transform="translate(-96.147 -104.073)" fill="#969a9e"/><path d="M193.563,226.321l1.283.738,1.283-.738-1.283-.738Z" transform="translate(-94.372 -110.422)" fill="#969a9e"/><path d="M198.487,221.259,197.2,222l1.283.738,1.283-.738Z" transform="translate(-96.147 -108.305)" fill="#969a9e"/><path d="M194.853,234.233l-.007,0-1.283.738.361.208q.479-.463.929-.941" transform="translate(-94.372 -114.654)" fill="#969a9e"/><path d="M197.683,230.938q.4-.489.769-.993l-1.248.718Z" transform="translate(-96.147 -112.557)" fill="#969a9e"/><path d="M186.282,191.734l1.283.738,1.283-.738L187.564,191Z" transform="translate(-90.822 -93.492)" fill="#969a9e"/><path d="M186.282,200.38l1.283.738,1.283-.738-1.283-.738Z" transform="translate(-90.822 -97.724)" fill="#969a9e"/><path d="M189.922,196.057l1.283.738,1.283-.738-1.283-.738Z" transform="translate(-92.597 -95.608)" fill="#969a9e"/><path d="M186.282,209.027l1.283.738,1.283-.738-1.283-.738Z" transform="translate(-90.822 -101.957)" fill="#969a9e"/><path d="M191.205,203.966l-1.283.738,1.283.738,1.283-.738Z" transform="translate(-92.597 -99.84)" fill="#969a9e"/><path d="M186.282,217.674l1.283.738,1.283-.738-1.283-.738Z" transform="translate(-90.822 -106.189)" fill="#969a9e"/><path d="M191.205,212.613l-1.283.738,1.283.738,1.283-.738Z" transform="translate(-92.597 -104.073)" fill="#969a9e"/><path d="M188.847,226.321l-1.283-.738-1.283.738,1.283.738Z" transform="translate(-90.822 -110.422)" fill="#969a9e"/><path d="M191.205,222.735l1.283-.738-1.283-.738-1.283.738Z" transform="translate(-92.597 -108.305)" fill="#969a9e"/><path d="M188.847,234.967l-1.283-.738-1.283.738,1.283.738Z" transform="translate(-90.822 -114.654)" fill="#969a9e"/><path d="M191.205,231.382l1.283-.738-1.283-.738-1.283.738Z" transform="translate(-92.597 -112.538)" fill="#969a9e"/><path d="M181.316,185.023c-.128-.039-.258-.078-.388-.116l.295.169Z" transform="translate(-88.212 -90.511)" fill="#969a9e"/><path d="M180.283,192.471l1.283-.738L180.283,191l-1.283.738Z" transform="translate(-87.272 -93.492)" fill="#969a9e"/><path d="M183.924,188.148l1.283-.738-1.283-.738-1.283.738Z" transform="translate(-89.047 -91.375)" fill="#969a9e"/><path d="M179,200.38l1.283.738,1.283-.738-1.283-.738Z" transform="translate(-87.272 -97.724)" fill="#969a9e"/><path d="M183.924,196.795l1.283-.738-1.283-.738-1.283.738Z" transform="translate(-89.047 -95.608)" fill="#969a9e"/><path d="M179,209.027l1.283.738,1.283-.738-1.283-.738Z" transform="translate(-87.272 -101.957)" fill="#969a9e"/><path d="M183.924,205.441l1.283-.738-1.283-.738-1.283.738Z" transform="translate(-89.047 -99.84)" fill="#969a9e"/><path d="M179,217.674l1.283.738,1.283-.738-1.283-.738Z" transform="translate(-87.272 -106.189)" fill="#969a9e"/><path d="M183.924,214.088l1.283-.738-1.283-.738-1.283.738Z" transform="translate(-89.047 -104.073)" fill="#969a9e"/><path d="M181.566,226.321l-1.283-.738-1.283.738,1.283.738Z" transform="translate(-87.272 -110.422)" fill="#969a9e"/><path d="M185.206,222l-1.283-.738-1.283.738,1.283.738Z" transform="translate(-89.047 -108.305)" fill="#969a9e"/><path d="M181.566,234.967l-1.283-.738-1.283.738,1.283.738Z" transform="translate(-87.272 -114.654)" fill="#969a9e"/><path d="M185.206,230.644l-1.283-.738-1.283.738,1.283.738Z" transform="translate(-89.047 -112.538)" fill="#969a9e"/><path d="M180.283,242.876l-1.283.738,1.273.733q.62-.376,1.228-.769Z" transform="translate(-87.272 -118.886)" fill="#969a9e"/><path d="M185.206,239.291l-1.283-.738-1.283.738,1.283.738Z" transform="translate(-89.047 -116.77)" fill="#969a9e"/><path d="M172.4,183.026l-.682.393,1.283.738,1.283-.738c-.614-.143-1.244-.273-1.883-.393" transform="translate(-83.722 -89.59)" fill="#969a9e"/><path d="M171.719,191.734l1.283.738,1.283-.738L173,191Z" transform="translate(-83.722 -93.492)" fill="#969a9e"/><path d="M175.359,187.41l1.283.738,1.283-.738-1.283-.738Z" transform="translate(-85.497 -91.375)" fill="#969a9e"/><path d="M171.719,200.38l1.283.738,1.283-.738L173,199.643Z" transform="translate(-83.722 -97.724)" fill="#969a9e"/><path d="M175.359,196.057l1.283.738,1.283-.738-1.283-.738Z" transform="translate(-85.497 -95.608)" fill="#969a9e"/><path d="M171.719,209.027l1.283.738,1.283-.738L173,208.289Z" transform="translate(-83.722 -101.957)" fill="#969a9e"/><path d="M175.359,204.7l1.283.738,1.283-.738-1.283-.738Z" transform="translate(-85.497 -99.84)" fill="#969a9e"/><path d="M171.719,217.674l1.283.738,1.283-.738L173,216.936Z" transform="translate(-83.722 -106.189)" fill="#969a9e"/><path d="M175.359,213.35l1.283.738,1.283-.738-1.283-.738Z" transform="translate(-85.497 -104.073)" fill="#969a9e"/><path d="M174.284,226.321,173,225.583l-1.283.738,1.283.738Z" transform="translate(-83.722 -110.422)" fill="#969a9e"/><path d="M177.925,222l-1.283-.738-1.283.738,1.283.738Z" transform="translate(-85.497 -108.305)" fill="#969a9e"/><path d="M173,234.229l-1.283.738L173,235.7l1.283-.738Z" transform="translate(-83.722 -114.654)" fill="#969a9e"/><path d="M177.925,230.644l-1.283-.738-1.283.738,1.283.738Z" transform="translate(-85.497 -112.538)" fill="#969a9e"/><path d="M174.284,243.614,173,242.876l-1.283.738,1.283.738Z" transform="translate(-83.722 -118.887)" fill="#969a9e"/><path d="M176.642,238.553l-1.283.738,1.283.738,1.283-.738Z" transform="translate(-85.497 -116.77)" fill="#969a9e"/><path d="M175.359,247.938l.252.145q.666-.347,1.325-.714l-.294-.169Z" transform="translate(-85.497 -121.003)" fill="#969a9e"/><path d="M164.437,183.087l1.283.738,1.283-.738-1.283-.738Z" transform="translate(-80.172 -89.259)" fill="#969a9e"/><path d="M164.437,191.734l1.283.738,1.283-.738L165.72,191Z" transform="translate(-80.172 -93.492)" fill="#969a9e"/><path d="M169.361,188.148l1.283-.738-1.283-.738-1.283.738Z" transform="translate(-81.947 -91.375)" fill="#969a9e"/><path d="M164.437,200.38l1.283.738L167,200.38l-1.283-.738Z" transform="translate(-80.172 -97.724)" fill="#969a9e"/><path d="M169.361,196.795l1.283-.738-1.283-.738-1.283.738Z" transform="translate(-81.947 -95.608)" fill="#969a9e"/><path d="M164.437,209.027l1.283.738,1.283-.738-1.283-.738Z" transform="translate(-80.172 -101.957)" fill="#969a9e"/><path d="M169.361,205.441l1.283-.738-1.283-.738-1.283.738Z" transform="translate(-81.947 -99.84)" fill="#969a9e"/><path d="M164.437,217.674l1.283.738,1.283-.738-1.283-.738Z" transform="translate(-80.172 -106.189)" fill="#969a9e"/><path d="M169.361,214.088l1.283-.738-1.283-.738-1.283.738Z" transform="translate(-81.947 -104.073)" fill="#969a9e"/><path d="M164.437,226.321l1.283.738,1.283-.738-1.283-.738Z" transform="translate(-80.172 -110.422)" fill="#969a9e"/><path d="M169.361,222.735l1.283-.738-1.283-.738-1.283.738Z" transform="translate(-81.947 -108.305)" fill="#969a9e"/><path d="M164.437,234.967l1.283.738,1.283-.738-1.283-.738Z" transform="translate(-80.172 -114.654)" fill="#969a9e"/><path d="M169.361,231.382l1.283-.738-1.283-.738-1.283.738Z" transform="translate(-81.947 -112.538)" fill="#969a9e"/><path d="M167,243.614l-1.283-.738-1.283.738,1.283.738Z" transform="translate(-80.172 -118.887)" fill="#969a9e"/><path d="M169.361,240.028l1.283-.738-1.283-.738-1.283.738Z" transform="translate(-81.947 -116.77)" fill="#969a9e"/><path d="M166.531,251.99l-.812-.467-1.283.738.614.353q.736-.3,1.48-.624" transform="translate(-80.172 -123.119)" fill="#969a9e"/><path d="M169.361,248.675l1.283-.738-1.283-.738-1.283.738Z" transform="translate(-81.947 -121.003)" fill="#969a9e"/><path d="M158.439,183.825l1.283-.738-1.283-.738-1.283.738Z" transform="translate(-76.622 -89.259)" fill="#969a9e"/><path d="M157.156,191.734l1.283.738,1.283-.738L158.439,191Z" transform="translate(-76.622 -93.492)" fill="#969a9e"/><path d="M162.079,188.148l1.283-.738-1.283-.738-1.283.738Z" transform="translate(-78.397 -91.375)" fill="#969a9e"/><path d="M157.156,200.38l1.283.738,1.283-.738-1.283-.738Z" transform="translate(-76.622 -97.724)" fill="#969a9e"/><path d="M162.079,196.795l1.283-.738-1.283-.738-1.283.738Z" transform="translate(-78.397 -95.608)" fill="#969a9e"/><path d="M157.156,209.027l1.283.738,1.283-.738-1.283-.738Z" transform="translate(-76.622 -101.957)" fill="#969a9e"/><path d="M162.079,205.441l1.283-.738-1.283-.738-1.283.738Z" transform="translate(-78.397 -99.84)" fill="#969a9e"/><path d="M157.156,217.674l1.283.738,1.283-.738-1.283-.738Z" transform="translate(-76.622 -106.189)" fill="#969a9e"/><path d="M162.079,214.088l1.283-.738-1.283-.738-1.283.738Z" transform="translate(-78.397 -104.073)" fill="#969a9e"/><path d="M157.156,226.321l1.283.738,1.283-.738-1.283-.738Z" transform="translate(-76.622 -110.422)" fill="#969a9e"/><path d="M162.079,222.735l1.283-.738-1.283-.738L160.8,222Z" transform="translate(-78.397 -108.305)" fill="#969a9e"/><path d="M157.156,234.967l1.283.738,1.283-.738-1.283-.738Z" transform="translate(-76.622 -114.654)" fill="#969a9e"/><path d="M162.079,231.382l1.283-.738-1.283-.738-1.283.738Z" transform="translate(-78.397 -112.538)" fill="#969a9e"/><path d="M159.721,243.614l-1.283-.738-1.283.738,1.283.738Z" transform="translate(-76.622 -118.887)" fill="#969a9e"/><path d="M163.362,239.291l-1.283-.738-1.283.738,1.283.738Z" transform="translate(-78.397 -116.77)" fill="#969a9e"/><path d="M159.721,252.261l-1.283-.738-1.283.738,1.283.738Z" transform="translate(-76.622 -123.119)" fill="#969a9e"/><path d="M163.362,247.937l-1.283-.738-1.283.738,1.283.738Z" transform="translate(-78.397 -121.003)" fill="#969a9e"/><path d="M152.44,183.087l-1.283-.738-1.283.738,1.283.738Z" transform="translate(-73.072 -89.259)" fill="#969a9e"/><path d="M149.874,191.734l1.283.738,1.283-.738L151.157,191Z" transform="translate(-73.072 -93.492)" fill="#969a9e"/><path d="M154.8,188.148l1.283-.738-1.283-.738-1.283.738Z" transform="translate(-74.847 -91.375)" fill="#969a9e"/><path d="M149.874,200.38l1.283.738,1.283-.738-1.283-.738Z" transform="translate(-73.072 -97.724)" fill="#969a9e"/><path d="M154.8,196.795l1.283-.738-1.283-.738-1.283.738Z" transform="translate(-74.847 -95.608)" fill="#969a9e"/><path d="M149.874,209.027l1.283.738,1.283-.738-1.283-.738Z" transform="translate(-73.072 -101.957)" fill="#969a9e"/><path d="M154.8,205.441l1.283-.738-1.283-.738-1.283.738Z" transform="translate(-74.847 -99.84)" fill="#969a9e"/><path d="M149.874,217.674l1.283.738,1.283-.738-1.283-.738Z" transform="translate(-73.072 -106.189)" fill="#969a9e"/><path d="M154.8,214.088l1.283-.738-1.283-.738-1.283.738Z" transform="translate(-74.847 -104.073)" fill="#969a9e"/><path d="M149.874,226.321l1.283.738,1.283-.738-1.283-.738Z" transform="translate(-73.072 -110.422)" fill="#969a9e"/><path d="M154.8,222.735l1.283-.738-1.283-.738-1.283.738Z" transform="translate(-74.847 -108.305)" fill="#969a9e"/><path d="M149.874,234.967l1.283.738,1.283-.738-1.283-.738Z" transform="translate(-73.072 -114.654)" fill="#969a9e"/><path d="M154.8,231.382l1.283-.738-1.283-.738-1.283.738Z" transform="translate(-74.847 -112.538)" fill="#969a9e"/><path d="M152.44,243.614l-1.283-.738-1.283.738,1.283.738Z" transform="translate(-73.072 -118.887)" fill="#969a9e"/><path d="M154.8,240.028l1.283-.738-1.283-.738-1.283.738Z" transform="translate(-74.847 -116.77)" fill="#969a9e"/><path d="M152.44,252.261l-1.283-.738-1.283.738,1.283.738Z" transform="translate(-73.072 -123.119)" fill="#969a9e"/><path d="M154.8,248.675l1.283-.738L154.8,247.2l-1.283.738Z" transform="translate(-74.847 -121.003)" fill="#969a9e"/><path d="M153.887,256.8c.345-.1.683-.2,1-.3q.329-.106.663-.22l-.754-.433-1.283.738Z" transform="translate(-74.847 -125.236)" fill="#969a9e"/><path d="M145.158,183.087l-1.283-.738-1.283.738,1.283.738Z" transform="translate(-69.522 -89.259)" fill="#969a9e"/><path d="M142.593,191.734l1.283.738,1.283-.738L143.876,191Z" transform="translate(-69.521 -93.492)" fill="#969a9e"/><path d="M146.234,187.41l1.283.738,1.283-.738-1.283-.738Z" transform="translate(-71.297 -91.375)" fill="#969a9e"/><path d="M142.593,200.38l1.283.738,1.283-.738-1.283-.738Z" transform="translate(-69.521 -97.724)" fill="#969a9e"/><path d="M146.234,196.057l1.283.738,1.283-.738-1.283-.738Z" transform="translate(-71.297 -95.608)" fill="#969a9e"/><path d="M142.593,209.027l1.283.738,1.283-.738-1.283-.738Z" transform="translate(-69.521 -101.957)" fill="#969a9e"/><path d="M146.234,204.7l1.283.738,1.283-.738-1.283-.738Z" transform="translate(-71.297 -99.84)" fill="#969a9e"/><path d="M142.593,217.674l1.283.738,1.283-.738-1.283-.738Z" transform="translate(-69.521 -106.189)" fill="#969a9e"/><path d="M146.234,213.35l1.283.738,1.283-.738-1.283-.738Z" transform="translate(-71.297 -104.073)" fill="#969a9e"/><path d="M142.593,226.321l1.283.738,1.283-.738-1.283-.738Z" transform="translate(-69.521 -110.422)" fill="#969a9e"/><path d="M146.234,222l1.283.738L148.8,222l-1.283-.738Z" transform="translate(-71.297 -108.305)" fill="#969a9e"/><path d="M145.158,234.967l-1.283-.738-1.283.738,1.283.738Z" transform="translate(-69.522 -114.654)" fill="#969a9e"/><path d="M146.234,230.644l1.283.738,1.283-.738-1.283-.738Z" transform="translate(-71.297 -112.538)" fill="#969a9e"/><path d="M145.158,243.614l-1.283-.738-1.283.738,1.283.738Z" transform="translate(-69.522 -118.887)" fill="#969a9e"/><path d="M148.8,239.291l-1.283-.738-1.283.738,1.283.738Z" transform="translate(-71.297 -116.77)" fill="#969a9e"/><path d="M145.158,252.261l-1.283-.738-1.283.738,1.283.738Z" transform="translate(-69.522 -123.119)" fill="#969a9e"/><path d="M148.8,247.937l-1.283-.738-1.283.738,1.283.738Z" transform="translate(-71.297 -121.003)" fill="#969a9e"/><path d="M148.8,256.584l-1.283-.738-1.283.738,1.283.738Z" transform="translate(-71.297 -125.235)" fill="#969a9e"/><path d="M137.877,183.087l-1.283-.738-1.283.738,1.283.738Z" transform="translate(-65.971 -89.259)" fill="#969a9e"/><path d="M135.311,191.734l1.283.738,1.283-.738L136.594,191Z" transform="translate(-65.971 -93.492)" fill="#969a9e"/><path d="M138.952,187.41l1.283.738,1.283-.738-1.283-.738Z" transform="translate(-67.746 -91.375)" fill="#969a9e"/><path d="M135.311,200.38l1.283.738,1.283-.738-1.283-.738Z" transform="translate(-65.971 -97.724)" fill="#969a9e"/><path d="M138.952,196.057l1.283.738,1.283-.738-1.283-.738Z" transform="translate(-67.746 -95.608)" fill="#969a9e"/><path d="M135.311,209.027l1.283.738,1.283-.738-1.283-.738Z" transform="translate(-65.971 -101.957)" fill="#969a9e"/><path d="M138.952,204.7l1.283.738,1.283-.738-1.283-.738Z" transform="translate(-67.746 -99.84)" fill="#969a9e"/><path d="M135.311,217.674l1.283.738,1.283-.738-1.283-.738Z" transform="translate(-65.971 -106.189)" fill="#969a9e"/><path d="M138.952,213.35l1.283.738,1.283-.738-1.283-.738Z" transform="translate(-67.746 -104.073)" fill="#969a9e"/><path d="M135.311,226.321l1.283.738,1.283-.738-1.283-.738Z" transform="translate(-65.971 -110.422)" fill="#969a9e"/><path d="M138.952,222l1.283.738,1.283-.738-1.283-.738Z" transform="translate(-67.746 -108.305)" fill="#969a9e"/><path d="M135.311,234.967l1.283.738,1.283-.738-1.283-.738Z" transform="translate(-65.971 -114.654)" fill="#969a9e"/><path d="M138.952,230.644l1.283.738,1.283-.738-1.283-.738Z" transform="translate(-67.746 -112.538)" fill="#969a9e"/><path d="M135.311,243.614l1.283.738,1.283-.738-1.283-.738Z" transform="translate(-65.971 -118.887)" fill="#969a9e"/><path d="M138.952,239.291l1.283.738,1.283-.738-1.283-.738Z" transform="translate(-67.746 -116.77)" fill="#969a9e"/><path d="M137.877,252.261l-1.283-.738-1.283.738,1.283.738Z" transform="translate(-65.971 -123.119)" fill="#969a9e"/><path d="M141.518,247.937l-1.283-.738-1.283.738,1.283.738Z" transform="translate(-67.746 -121.003)" fill="#969a9e"/><path d="M137.023,260.17l-.832.479q.69-.084,1.361-.175Z" transform="translate(-66.4 -127.352)" fill="#969a9e"/><path d="M141.518,256.584l-1.283-.738-1.283.738,1.283.738Z" transform="translate(-67.746 -125.235)" fill="#969a9e"/><path d="M130.6,183.087l-1.283-.738-1.283.738,1.283.738Z" transform="translate(-62.421 -89.259)" fill="#969a9e"/><path d="M128.03,191.734l1.283.738,1.283-.738L129.313,191Z" transform="translate(-62.421 -93.492)" fill="#969a9e"/><path d="M131.671,187.41l1.283.738,1.283-.738-1.283-.738Z" transform="translate(-64.196 -91.375)" fill="#969a9e"/><path d="M128.03,200.38l1.283.738,1.283-.738-1.283-.738Z" transform="translate(-62.421 -97.724)" fill="#969a9e"/><path d="M132.953,195.319l-1.283.738,1.283.738,1.283-.738Z" transform="translate(-64.196 -95.608)" fill="#969a9e"/><path d="M128.03,209.027l1.283.738,1.283-.738-1.283-.738Z" transform="translate(-62.421 -101.957)" fill="#969a9e"/><path d="M132.953,203.966l-1.283.738,1.283.738,1.283-.738Z" transform="translate(-64.196 -99.84)" fill="#969a9e"/><path d="M128.03,217.674l1.283.738,1.283-.738-1.283-.738Z" transform="translate(-62.421 -106.189)" fill="#969a9e"/><path d="M132.953,212.613l-1.283.738,1.283.738,1.283-.738Z" transform="translate(-64.196 -104.073)" fill="#969a9e"/><path d="M128.03,226.321l1.283.738,1.283-.738-1.283-.738Z" transform="translate(-62.421 -110.422)" fill="#969a9e"/><path d="M132.953,221.259l-1.283.738,1.283.738,1.283-.738Z" transform="translate(-64.196 -108.305)" fill="#969a9e"/><path d="M128.03,234.967l1.283.738,1.283-.738-1.283-.738Z" transform="translate(-62.421 -114.654)" fill="#969a9e"/><path d="M132.953,229.906l-1.283.738,1.283.738,1.283-.738Z" transform="translate(-64.196 -112.538)" fill="#969a9e"/><path d="M130.6,243.614l-1.283-.738-1.283.738,1.283.738Z" transform="translate(-62.421 -118.887)" fill="#969a9e"/><path d="M132.953,238.553l-1.283.738,1.283.738,1.283-.738Z" transform="translate(-64.196 -116.77)" fill="#969a9e"/><path d="M130.6,252.261l-1.283-.738-1.283.738,1.283.738Z" transform="translate(-62.421 -123.119)" fill="#969a9e"/><path d="M132.953,248.675l1.283-.738-1.283-.738-1.283.738Z" transform="translate(-64.196 -121.003)" fill="#969a9e"/><path d="M129.313,260.17l-1.283.738.227.131q1.128-.089,2.221-.2Z" transform="translate(-62.421 -127.352)" fill="#969a9e"/><path d="M134.236,256.584l-1.283-.738-1.283.738,1.283.738Z" transform="translate(-64.196 -125.235)" fill="#969a9e"/><path d="M123.314,183.436l-.649-.373q-.864.125-1.727.264l-.19.109,1.283.738Z" transform="translate(-58.871 -89.608)" fill="#969a9e"/><path d="M120.749,191.734l1.283.738,1.283-.738L122.031,191Z" transform="translate(-58.871 -93.492)" fill="#969a9e"/><path d="M124.389,187.41l1.283.738,1.283-.738-1.283-.738Z" transform="translate(-60.646 -91.375)" fill="#969a9e"/><path d="M120.749,200.38l1.283.738,1.283-.738-1.283-.738Z" transform="translate(-58.871 -97.724)" fill="#969a9e"/><path d="M124.389,196.057l1.283.738,1.283-.738-1.283-.738Z" transform="translate(-60.646 -95.608)" fill="#969a9e"/><path d="M120.749,209.027l1.283.738,1.283-.738-1.283-.738Z" transform="translate(-58.871 -101.957)" fill="#969a9e"/><path d="M124.389,204.7l1.283.738,1.283-.738-1.283-.738Z" transform="translate(-60.646 -99.84)" fill="#969a9e"/><path d="M120.749,217.674l1.283.738,1.283-.738-1.283-.738Z" transform="translate(-58.871 -106.189)" fill="#969a9e"/><path d="M124.389,213.35l1.283.738,1.283-.738-1.283-.738Z" transform="translate(-60.646 -104.073)" fill="#969a9e"/><path d="M120.749,226.321l1.283.738,1.283-.738-1.283-.738Z" transform="translate(-58.871 -110.422)" fill="#969a9e"/><path d="M124.389,222l1.283.738,1.283-.738-1.283-.738Z" transform="translate(-60.646 -108.305)" fill="#969a9e"/><path d="M122.031,234.229l-1.283.738,1.283.738,1.283-.738Z" transform="translate(-58.871 -114.654)" fill="#969a9e"/><path d="M124.389,230.644l1.283.738,1.283-.738-1.283-.738Z" transform="translate(-60.646 -112.538)" fill="#969a9e"/><path d="M123.314,243.614l-1.283-.738-1.283.738,1.283.738Z" transform="translate(-58.871 -118.887)" fill="#969a9e"/><path d="M125.672,240.028l1.283-.738-1.283-.738-1.283.738Z" transform="translate(-60.646 -116.77)" fill="#969a9e"/><path d="M123.314,252.261l-1.283-.738-1.283.738,1.283.738Z" transform="translate(-58.871 -123.119)" fill="#969a9e"/><path d="M125.672,248.675l1.283-.738-1.283-.738-1.283.738Z" transform="translate(-60.646 -121.003)" fill="#969a9e"/><path d="M121.337,261.247q.769-.035,1.527-.08l.449-.259-1.283-.738-1.283.738Z" transform="translate(-58.871 -127.352)" fill="#969a9e"/><path d="M125.672,257.322l1.283-.738-1.283-.738-1.283.738Z" transform="translate(-60.646 -125.235)" fill="#969a9e"/><path d="M116.474,184.13c-.5.089-.995.18-1.49.276l.505.29Z" transform="translate(-56.061 -90.131)" fill="#969a9e"/><path d="M113.467,191.734l1.283.738,1.283-.738L114.75,191Z" transform="translate(-55.321 -93.492)" fill="#969a9e"/><path d="M117.108,187.41l1.283.738,1.283-.738-1.283-.738Z" transform="translate(-57.096 -91.375)" fill="#969a9e"/><path d="M113.467,200.38l1.283.738,1.283-.738-1.283-.738Z" transform="translate(-55.321 -97.724)" fill="#969a9e"/><path d="M117.108,196.057l1.283.738,1.283-.738-1.283-.738Z" transform="translate(-57.096 -95.608)" fill="#969a9e"/><path d="M113.467,209.027l1.283.738,1.283-.738-1.283-.738Z" transform="translate(-55.321 -101.957)" fill="#969a9e"/><path d="M117.108,204.7l1.283.738,1.283-.738-1.283-.738Z" transform="translate(-57.096 -99.84)" fill="#969a9e"/><path d="M113.467,217.674l1.283.738,1.283-.738-1.283-.738Z" transform="translate(-55.321 -106.189)" fill="#969a9e"/><path d="M117.108,213.35l1.283.738,1.283-.738-1.283-.738Z" transform="translate(-57.096 -104.073)" fill="#969a9e"/><path d="M113.467,226.321l1.283.738,1.283-.738-1.283-.738Z" transform="translate(-55.321 -110.422)" fill="#969a9e"/><path d="M117.108,222l1.283.738,1.283-.738-1.283-.738Z" transform="translate(-57.096 -108.305)" fill="#969a9e"/><path d="M116.032,234.967l-1.283-.738-1.283.738,1.283.738Z" transform="translate(-55.321 -114.654)" fill="#969a9e"/><path d="M117.108,230.644l1.283.738,1.283-.738-1.283-.738Z" transform="translate(-57.096 -112.538)" fill="#969a9e"/><path d="M116.032,243.614l-1.283-.738-1.283.738,1.283.738Z" transform="translate(-55.321 -118.887)" fill="#969a9e"/><path d="M118.391,240.028l1.283-.738-1.283-.738-1.283.738Z" transform="translate(-57.096 -116.77)" fill="#969a9e"/><path d="M116.032,252.261l-1.283-.738-1.283.738,1.283.738Z" transform="translate(-55.321 -123.119)" fill="#969a9e"/><path d="M118.391,248.675l1.283-.738-1.283-.738-1.283.738Z" transform="translate(-57.096 -121.003)" fill="#969a9e"/><path d="M115.292,261.332l.74-.426-1.283-.738-1.283.738.772.445q.528-.007,1.053-.019" transform="translate(-55.321 -127.351)" fill="#969a9e"/><path d="M119.673,256.584l-1.283-.738-1.283.738,1.283.738Z" transform="translate(-57.096 -125.235)" fill="#969a9e"/><path d="M107.468,192.471l1.283-.738L107.468,191l-1.283.738Z" transform="translate(-51.771 -93.492)" fill="#969a9e"/><path d="M111.109,188.148l1.283-.738-1.283-.738-1.283.738Z" transform="translate(-53.546 -91.375)" fill="#969a9e"/><path d="M106.186,200.38l1.283.738,1.283-.738-1.283-.738Z" transform="translate(-51.771 -97.724)" fill="#969a9e"/><path d="M111.109,196.795l1.283-.738-1.283-.738-1.283.738Z" transform="translate(-53.546 -95.608)" fill="#969a9e"/><path d="M106.186,209.027l1.283.738,1.283-.738-1.283-.738Z" transform="translate(-51.771 -101.957)" fill="#969a9e"/><path d="M111.109,205.441l1.283-.738-1.283-.738-1.283.738Z" transform="translate(-53.546 -99.84)" fill="#969a9e"/><path d="M106.186,217.674l1.283.738,1.283-.738-1.283-.738Z" transform="translate(-51.771 -106.189)" fill="#969a9e"/><path d="M111.109,214.088l1.283-.738-1.283-.738-1.283.738Z" transform="translate(-53.546 -104.073)" fill="#969a9e"/><path d="M106.186,226.321l1.283.738,1.283-.738-1.283-.738Z" transform="translate(-51.771 -110.422)" fill="#969a9e"/><path d="M111.109,222.735l1.283-.738-1.283-.738-1.283.738Z" transform="translate(-53.546 -108.305)" fill="#969a9e"/><path d="M108.751,234.967l-1.283-.738-1.283.738,1.283.738Z" transform="translate(-51.771 -114.654)" fill="#969a9e"/><path d="M111.109,231.382l1.283-.738-1.283-.738-1.283.738Z" transform="translate(-53.546 -112.538)" fill="#969a9e"/><path d="M108.751,243.614l-1.283-.738-1.283.738,1.283.738Z" transform="translate(-51.771 -118.887)" fill="#969a9e"/><path d="M111.109,240.028l1.283-.738-1.283-.738-1.283.738Z" transform="translate(-53.546 -116.77)" fill="#969a9e"/><path d="M108.751,252.261l-1.283-.738-1.283.738,1.283.738Z" transform="translate(-51.771 -123.119)" fill="#969a9e"/><path d="M111.109,248.675l1.283-.738-1.283-.738-1.283.738Z" transform="translate(-53.546 -121.003)" fill="#969a9e"/><path d="M107.98,261.35l.771-.444-1.283-.738-1.283.738.738.425q.529.012,1.056.019" transform="translate(-51.771 -127.351)" fill="#969a9e"/><path d="M111.109,257.322l1.283-.738-1.283-.738-1.283.738Z" transform="translate(-53.546 -125.235)" fill="#969a9e"/><path d="M98.9,191.734l1.283.738,1.283-.738L100.187,191Z" transform="translate(-48.221 -93.492)" fill="#969a9e"/><path d="M103.828,188.213l1.283-.738-1.164-.67c-.136.034-.273.065-.409.1l-.992.571Z" transform="translate(-49.996 -91.441)" fill="#969a9e"/><path d="M98.9,200.38l1.283.738,1.283-.738-1.283-.738Z" transform="translate(-48.221 -97.724)" fill="#969a9e"/><path d="M102.545,196.057l1.283.738,1.283-.738-1.283-.738Z" transform="translate(-49.996 -95.608)" fill="#969a9e"/><path d="M98.9,209.027l1.283.738,1.283-.738-1.283-.738Z" transform="translate(-48.221 -101.957)" fill="#969a9e"/><path d="M102.545,204.7l1.283.738,1.283-.738-1.283-.738Z" transform="translate(-49.996 -99.84)" fill="#969a9e"/><path d="M98.9,217.674l1.283.738,1.283-.738-1.283-.738Z" transform="translate(-48.221 -106.189)" fill="#969a9e"/><path d="M102.545,213.35l1.283.738,1.283-.738-1.283-.738Z" transform="translate(-49.996 -104.073)" fill="#969a9e"/><path d="M101.47,226.321l-1.283-.738-1.283.738,1.283.738Z" transform="translate(-48.221 -110.422)" fill="#969a9e"/><path d="M102.545,222l1.283.738L105.11,222l-1.283-.738Z" transform="translate(-49.996 -108.305)" fill="#969a9e"/><path d="M101.47,234.967l-1.283-.738-1.283.738,1.283.738Z" transform="translate(-48.221 -114.654)" fill="#969a9e"/><path d="M105.11,230.644l-1.283-.738-1.283.738,1.283.738Z" transform="translate(-49.996 -112.538)" fill="#969a9e"/><path d="M101.47,243.614l-1.283-.738-1.283.738,1.283.738Z" transform="translate(-48.221 -118.887)" fill="#969a9e"/><path d="M105.11,239.291l-1.283-.738-1.283.738,1.283.738Z" transform="translate(-49.996 -116.77)" fill="#969a9e"/><path d="M101.47,252.261l-1.283-.738-1.283.738,1.283.738Z" transform="translate(-48.221 -123.119)" fill="#969a9e"/><path d="M105.11,247.937l-1.283-.738-1.283.738,1.283.738Z" transform="translate(-49.996 -121.003)" fill="#969a9e"/><path d="M100.187,260.17l-1.283.738.434.25q.771.05,1.545.088l.587-.337Z" transform="translate(-48.221 -127.352)" fill="#969a9e"/><path d="M105.11,256.584l-1.283-.738-1.283.738,1.283.738Z" transform="translate(-49.996 -125.235)" fill="#969a9e"/><path d="M92.905,191l-1.283.738,1.283.738,1.283-.738Z" transform="translate(-44.671 -93.491)" fill="#969a9e"/><path d="M98.631,188.118c-.577.158-1.154.318-1.723.484l.44.253Z" transform="translate(-47.248 -92.083)" fill="#969a9e"/><path d="M91.623,200.38l1.283.738,1.283-.738-1.283-.738Z" transform="translate(-44.671 -97.724)" fill="#969a9e"/><path d="M95.263,196.057l1.283.738,1.283-.738-1.283-.738Z" transform="translate(-46.446 -95.608)" fill="#969a9e"/><path d="M91.623,209.027l1.283.738,1.283-.738-1.283-.738Z" transform="translate(-44.671 -101.957)" fill="#969a9e"/><path d="M95.263,204.7l1.283.738,1.283-.738-1.283-.738Z" transform="translate(-46.446 -99.84)" fill="#969a9e"/><path d="M91.623,217.674l1.283.738,1.283-.738-1.283-.738Z" transform="translate(-44.671 -106.189)" fill="#969a9e"/><path d="M95.263,213.35l1.283.738,1.283-.738-1.283-.738Z" transform="translate(-46.446 -104.073)" fill="#969a9e"/><path d="M94.188,226.321l-1.283-.738-1.283.738,1.283.738Z" transform="translate(-44.671 -110.422)" fill="#969a9e"/><path d="M95.263,222l1.283.738L97.829,222l-1.283-.738Z" transform="translate(-46.446 -108.305)" fill="#969a9e"/><path d="M94.188,234.967l-1.283-.738-1.283.738,1.283.738Z" transform="translate(-44.671 -114.654)" fill="#969a9e"/><path d="M97.829,230.644l-1.283-.738-1.283.738,1.283.738Z" transform="translate(-46.446 -112.538)" fill="#969a9e"/><path d="M94.188,243.614l-1.283-.738-1.283.738,1.283.738Z" transform="translate(-44.671 -118.887)" fill="#969a9e"/><path d="M97.829,239.291l-1.283-.738-1.283.738,1.283.738Z" transform="translate(-46.446 -116.77)" fill="#969a9e"/><path d="M92.905,251.523l-1.283.738,1.283.738,1.283-.738Z" transform="translate(-44.671 -123.119)" fill="#969a9e"/><path d="M97.829,247.937l-1.283-.738-1.283.738,1.283.738Z" transform="translate(-46.446 -121.003)" fill="#969a9e"/><path d="M93.067,260.17l-1.114.64q1.09.121,2.193.214l.2-.117Z" transform="translate(-44.832 -127.352)" fill="#969a9e"/><path d="M96.546,255.846l-1.283.738,1.283.738,1.283-.738Z" transform="translate(-46.446 -125.235)" fill="#969a9e"/><path d="M85.229,192.407l.828.476,1.283-.738-.537-.308q-.795.279-1.574.57" transform="translate(-41.554 -93.903)" fill="#969a9e"/><path d="M85.624,199.643l-1.283.738,1.283.738,1.283-.738Z" transform="translate(-41.121 -97.724)" fill="#969a9e"/><path d="M89.265,195.319l-1.283.738,1.283.738,1.283-.738Z" transform="translate(-42.896 -95.608)" fill="#969a9e"/><path d="M84.341,209.027l1.283.738,1.283-.738-1.283-.738Z" transform="translate(-41.121 -101.957)" fill="#969a9e"/><path d="M87.982,204.7l1.283.738,1.283-.738-1.283-.738Z" transform="translate(-42.896 -99.84)" fill="#969a9e"/><path d="M84.341,217.674l1.283.738,1.283-.738-1.283-.738Z" transform="translate(-41.121 -106.189)" fill="#969a9e"/><path d="M87.982,213.35l1.283.738,1.283-.738-1.283-.738Z" transform="translate(-42.896 -104.073)" fill="#969a9e"/><path d="M86.907,226.321l-1.283-.738-1.283.738,1.283.738Z" transform="translate(-41.121 -110.422)" fill="#969a9e"/><path d="M87.982,222l1.283.738L90.547,222l-1.283-.738Z" transform="translate(-42.896 -108.305)" fill="#969a9e"/><path d="M86.907,234.967l-1.283-.738-1.283.738,1.283.738Z" transform="translate(-41.121 -114.654)" fill="#969a9e"/><path d="M90.547,230.644l-1.283-.738-1.283.738,1.283.738Z" transform="translate(-42.896 -112.538)" fill="#969a9e"/><path d="M86.907,243.614l-1.283-.738-1.283.738,1.283.738Z" transform="translate(-41.121 -118.887)" fill="#969a9e"/><path d="M90.547,239.291l-1.283-.738-1.283.738,1.283.738Z" transform="translate(-42.896 -116.77)" fill="#969a9e"/><path d="M86.907,252.261l-1.283-.738-1.283.738,1.283.738Z" transform="translate(-41.121 -123.119)" fill="#969a9e"/><path d="M89.265,247.2l-1.283.738,1.283.738,1.283-.738Z" transform="translate(-42.896 -121.003)" fill="#969a9e"/><path d="M86.443,260.17l-.422.242q.56.086,1.126.163Z" transform="translate(-41.94 -127.352)" fill="#969a9e"/><path d="M90.547,256.584l-1.283-.738-1.283.738,1.283.738Z" transform="translate(-42.896 -125.235)" fill="#969a9e"/><path d="M77.06,200.38l1.283.738,1.283-.738-1.283-.738Z" transform="translate(-37.571 -97.724)" fill="#969a9e"/><path d="M80.7,196.057l1.283.738,1.283-.738-1.283-.738Z" transform="translate(-39.346 -95.608)" fill="#969a9e"/><path d="M78.342,208.289l-1.283.738,1.283.738,1.283-.738Z" transform="translate(-37.571 -101.956)" fill="#969a9e"/><path d="M81.983,203.966,80.7,204.7l1.283.738,1.283-.738Z" transform="translate(-39.346 -99.84)" fill="#969a9e"/><path d="M77.06,217.674l1.283.738,1.283-.738-1.283-.738Z" transform="translate(-37.571 -106.189)" fill="#969a9e"/><path d="M80.7,213.35l1.283.738,1.283-.738-1.283-.738Z" transform="translate(-39.346 -104.073)" fill="#969a9e"/><path d="M79.625,226.321l-1.283-.738-1.283.738,1.283.738Z" transform="translate(-37.571 -110.422)" fill="#969a9e"/><path d="M80.7,222l1.283.738L83.266,222l-1.283-.738Z" transform="translate(-39.346 -108.305)" fill="#969a9e"/><path d="M79.625,234.967l-1.283-.738-1.283.738,1.283.738Z" transform="translate(-37.571 -114.654)" fill="#969a9e"/><path d="M81.983,231.382l1.283-.738-1.283-.738-1.283.738Z" transform="translate(-39.346 -112.538)" fill="#969a9e"/><path d="M79.625,243.614l-1.283-.738-1.283.738,1.283.738Z" transform="translate(-37.571 -118.887)" fill="#969a9e"/><path d="M81.983,240.028l1.283-.738-1.283-.738-1.283.738Z" transform="translate(-39.346 -116.77)" fill="#969a9e"/><path d="M79.625,252.261l-1.283-.738-1.283.738,1.283.738Z" transform="translate(-37.571 -123.119)" fill="#969a9e"/><path d="M81.983,248.675l1.283-.738-1.283-.738-1.283.738Z" transform="translate(-39.346 -121.003)" fill="#969a9e"/><path d="M81.983,255.846l-1.283.738,1.283.738,1.283-.738Z" transform="translate(-39.346 -125.235)" fill="#969a9e"/><path d="M71.061,201.118l1.283-.738-1.283-.738-1.283.738Z" transform="translate(-34.021 -97.724)" fill="#969a9e"/><path d="M74.587,196.813l.684.394,1.283-.738-.536-.308q-.726.321-1.431.652" transform="translate(-36.365 -96.02)" fill="#969a9e"/><path d="M69.778,209.027l1.283.738,1.283-.738-1.283-.738Z" transform="translate(-34.021 -101.957)" fill="#969a9e"/><path d="M74.7,205.441l1.283-.738-1.283-.738-1.283.738Z" transform="translate(-35.796 -99.84)" fill="#969a9e"/><path d="M71.061,218.412l1.283-.738-1.283-.738-1.283.738Z" transform="translate(-34.021 -106.189)" fill="#969a9e"/><path d="M74.7,214.088l1.283-.738-1.283-.738-1.283.738Z" transform="translate(-35.796 -104.073)" fill="#969a9e"/><path d="M69.778,226.321l1.283.738,1.283-.738-1.283-.738Z" transform="translate(-34.021 -110.422)" fill="#969a9e"/><path d="M74.7,222.735,75.985,222,74.7,221.26,73.419,222Z" transform="translate(-35.796 -108.305)" fill="#969a9e"/><path d="M72.344,234.967l-1.283-.738-1.283.738,1.283.738Z" transform="translate(-34.021 -114.654)" fill="#969a9e"/><path d="M74.7,231.382l1.283-.738-1.283-.738-1.283.738Z" transform="translate(-35.796 -112.538)" fill="#969a9e"/><path d="M72.344,243.614l-1.283-.738-1.283.738,1.283.738Z" transform="translate(-34.021 -118.887)" fill="#969a9e"/><path d="M74.7,240.028l1.283-.738-1.283-.738-1.283.738Z" transform="translate(-35.796 -116.77)" fill="#969a9e"/><path d="M72.344,252.261l-1.283-.738-1.283.738,1.283.738Z" transform="translate(-34.021 -123.119)" fill="#969a9e"/><path d="M74.7,248.675l1.283-.738L74.7,247.2l-1.283.738Z" transform="translate(-35.796 -121.003)" fill="#969a9e"/><path d="M74.7,255.846l-1.283.738,1.183.681.14.034,1.242-.715Z" transform="translate(-35.796 -125.235)" fill="#969a9e"/><path d="M66.408,201.088c-.389.219-.775.438-1.15.662Z" transform="translate(-31.817 -98.431)" fill="#969a9e"/><path d="M62.5,209.027l1.283.738,1.283-.738-1.283-.738Z" transform="translate(-30.47 -101.957)" fill="#969a9e"/><path d="M67.42,205.441,68.7,204.7l-1.283-.738-1.283.738Z" transform="translate(-32.246 -99.84)" fill="#969a9e"/><path d="M62.5,217.674l1.283.738,1.283-.738-1.283-.738Z" transform="translate(-30.47 -106.189)" fill="#969a9e"/><path d="M67.42,214.088l1.283-.738-1.283-.738-1.283.738Z" transform="translate(-32.246 -104.073)" fill="#969a9e"/><path d="M63.78,227.058l1.283-.738-1.283-.738-1.283.738Z" transform="translate(-30.471 -110.422)" fill="#969a9e"/><path d="M67.42,222.735,68.7,222l-1.283-.738L66.138,222Z" transform="translate(-32.246 -108.305)" fill="#969a9e"/><path d="M62.5,234.967l1.283.738,1.283-.738-1.283-.738Z" transform="translate(-30.47 -114.654)" fill="#969a9e"/><path d="M67.42,231.382l1.283-.738-1.283-.738-1.283.738Z" transform="translate(-32.246 -112.538)" fill="#969a9e"/><path d="M65.062,243.614l-1.283-.738-1.283.738,1.283.738Z" transform="translate(-30.471 -118.887)" fill="#969a9e"/><path d="M67.42,240.028l1.283-.738-1.283-.738-1.283.738Z" transform="translate(-32.246 -116.77)" fill="#969a9e"/><path d="M63.78,251.523l-1.283.738L63.78,253l1.283-.738Z" transform="translate(-30.471 -123.119)" fill="#969a9e"/><path d="M67.42,248.675l1.283-.738L67.42,247.2l-1.283.738Z" transform="translate(-32.246 -121.003)" fill="#969a9e"/><path d="M68.251,255.846l-.409.235q.8.28,1.641.531l.051-.029Z" transform="translate(-33.077 -125.235)" fill="#969a9e"/><path d="M55.215,209.027l1.283.738,1.283-.738-1.283-.738Z" transform="translate(-26.92 -101.957)" fill="#969a9e"/><path d="M59.8,205.189l.8.458,1.283-.738-.909-.523q-.6.4-1.171.8" transform="translate(-29.157 -100.046)" fill="#969a9e"/><path d="M56.5,218.412l1.283-.738-1.283-.738-1.283.738Z" transform="translate(-26.92 -106.189)" fill="#969a9e"/><path d="M60.139,214.088l1.283-.738-1.283-.738-1.283.738Z" transform="translate(-28.695 -104.073)" fill="#969a9e"/><path d="M55.215,226.321l1.283.738,1.283-.738-1.283-.738Z" transform="translate(-26.92 -110.422)" fill="#969a9e"/><path d="M60.139,222.735,61.422,222l-1.283-.738L58.856,222Z" transform="translate(-28.695 -108.305)" fill="#969a9e"/><path d="M55.215,234.967l1.283.738,1.283-.738L56.5,234.23Z" transform="translate(-26.92 -114.654)" fill="#969a9e"/><path d="M60.139,231.382l1.283-.738-1.283-.738-1.283.738Z" transform="translate(-28.695 -112.538)" fill="#969a9e"/><path d="M57.781,243.614l-1.283-.738-1.283.738,1.283.738Z" transform="translate(-26.92 -118.887)" fill="#969a9e"/><path d="M60.139,240.028l1.283-.738-1.283-.738-1.283.738Z" transform="translate(-28.695 -116.77)" fill="#969a9e"/><path d="M58.932,252.261l-1.283-.738-.073.041q.63.377,1.305.725Z" transform="translate(-28.072 -123.119)" fill="#969a9e"/><path d="M60.139,248.675l1.283-.738-1.283-.738-1.283.738Z" transform="translate(-28.695 -121.003)" fill="#969a9e"/><path d="M47.934,217.674l1.283.738,1.283-.738-1.283-.738Z" transform="translate(-23.37 -106.189)" fill="#969a9e"/><path d="M52.857,214.088l1.283-.738-1.283-.738-1.283.738Z" transform="translate(-25.145 -104.073)" fill="#969a9e"/><path d="M47.934,226.321l1.283.738,1.283-.738-1.283-.738Z" transform="translate(-23.37 -110.422)" fill="#969a9e"/><path d="M52.857,222.735,54.14,222l-1.283-.738L51.575,222Z" transform="translate(-25.145 -108.305)" fill="#969a9e"/><path d="M47.934,234.967l1.283.738,1.283-.738-1.283-.738Z" transform="translate(-23.37 -114.654)" fill="#969a9e"/><path d="M52.857,231.382l1.283-.738-1.283-.738-1.283.738Z" transform="translate(-25.145 -112.538)" fill="#969a9e"/><path d="M49.613,244.351l1.283-.738-1.283-.738-.867.5c.227.309.474.609.735.9Z" transform="translate(-23.766 -118.886)" fill="#969a9e"/><path d="M52.857,240.028l1.283-.738-1.283-.738-1.283.738Z" transform="translate(-25.145 -116.77)" fill="#969a9e"/><path d="M53.369,247.2l-.745.428c.341.3.7.579,1.079.855l.949-.546Z" transform="translate(-25.657 -121.003)" fill="#969a9e"/><path d="M42.567,226.243c-.485.15-.967.3-1.449.462l1.044.6,1.283-.738-.836-.481c-.012.053-.03.1-.041.157" transform="translate(-20.047 -110.668)" fill="#969a9e"/><path d="M45.161,221.682c-.075.169-.144.338-.21.508l.946.544L47.179,222l-1.282-.738Z" transform="translate(-21.916 -108.305)" fill="#969a9e"/><path d="M40.653,234.967l1.283.738,1.283-.738-1.283-.738Z" transform="translate(-19.82 -114.654)" fill="#969a9e"/><path d="M45.576,231.382l1.283-.738-1.283-.738-1.283.738Z" transform="translate(-21.595 -112.538)" fill="#969a9e"/><path d="M42.653,243.024l.482-.019-.225-.129Z" transform="translate(-20.796 -118.886)" fill="#969a9e"/><path d="M45.576,238.553l-1.283.738,1.283.738,1.283-.738Z" transform="translate(-21.595 -116.77)" fill="#969a9e"/><path d="M33.371,234.967l1.283.738,1.283-.738-1.283-.738Z" transform="translate(-16.27 -114.654)" fill="#969a9e"/><path d="M38.295,231.382l1.283-.738-1.283-.738-1.283.738Z" transform="translate(-18.045 -112.538)" fill="#969a9e"/><path d="M34.958,243.146l.9-.023-.429-.247Z" transform="translate(-17.044 -118.886)" fill="#969a9e"/><path d="M38.295,240.028l1.283-.738-1.283-.738-1.283.738Z" transform="translate(-18.045 -116.77)" fill="#969a9e"/><path d="M28.863,234.968l-1.283-.738-1,.574c-.026.1-.048.192-.066.288l1.065.613Z" transform="translate(-12.927 -114.654)" fill="#969a9e"/><path d="M31.013,231.5l1.283-.738-1.059-.61-.9.307c-.087.029-.169.063-.25.1l-.357.206Z" transform="translate(-14.495 -112.661)" fill="#969a9e"/><path d="M31.013,240.028l1.283-.738-1.283-.738-1.283.738Z" transform="translate(-14.495 -116.77)" fill="#969a9e"/><path d="M27.125,239.807l-.346-.2a3.206,3.206,0,0,0,.136.32Z" transform="translate(-13.056 -117.287)" fill="#969a9e"/><path d="M177.395,178.068a.569.569,0,0,1,.062.408c-.631,2.76-3.874,4.171-5.8,4.778a2.148,2.148,0,0,1-2.3-.664,56.845,56.845,0,0,0-6.775-6.764,47.146,47.146,0,0,0,8.43-11.517,92.325,92.325,0,0,0,6.375,13.758" transform="translate(-79.271 -80.429)" fill="#5f646b"/><path d="M50.6,79.439c-3.485.332-6.949,4.906-7.538,11.982,7.487,2.277,10.685,5.023,13,11.578,0,0,4.945,1.006,7.051,1.281,2.654-14.6-5.95-22.161-10.07-24.351a4.2,4.2,0,0,0-2.439-.49M98.559,94.79a41.407,41.407,0,0,1-4.8,18.96,46.8,46.8,0,0,1-8.43,11.517l-.179.179a65.654,65.654,0,0,1-28.507,16.321,61.081,61.081,0,0,1-16.157,2.287,41.578,41.578,0,0,1-20.58-4.931l6.534-3.757c1.712-.98,2.767-3.089,2.767-6.09,0-5.993-4.228-13.288-9.439-16.29-2.608-1.5-4.971-1.639-6.677-.659l-7.379,4.253a1.323,1.323,0,0,0-.164.092,4.15,4.15,0,0,0-.7.5,46.732,46.732,0,0,1-.723-8.377,45.6,45.6,0,0,1,7.415-24.811s7.1-8.444,12.991-6.851c0,0,3.172-1.593,5.253-2.767a37.757,37.757,0,0,0-3.941-4.37c8.737-5.5,20.262-8.97,34.841-8.97a46.114,46.114,0,0,1,17.977,3.252A32.5,32.5,0,0,1,85.5,68.131c10.141,7.5,13.062,19.236,13.062,26.659M63.61,67.442l-2.757-1.894c-8.676-.01-19.309,5.125-23.465,10.92l3.264,2.946c4.96-6.637,13.37-11.012,22.958-11.971" transform="translate(-2.009 -29.869)" fill="#dadfe1"/><path d="M153.1,44.87c2.824,3.344,4.95,7.867,3.31,15.356a32.5,32.5,0,0,0-6.841-3.859v-.005c2.25-3.38,3.126-7.055,3.531-11.491" transform="translate(-72.923 -21.964)" fill="#3a3a3a"/><path d="M92.5,69.89l2.757,1.894c-9.588.96-18,5.335-22.958,11.971L69.04,80.81C73.2,75.015,83.829,69.88,92.5,69.89" transform="translate(-33.661 -34.211)" fill="#3a3a3a"/><path d="M97.269,97.568c4.12,2.19,12.724,9.756,10.07,24.351-2.106-.276-7.051-1.281-7.051-1.281,1.343-10.889,1.112-22.993-5.458-23.56a4.2,4.2,0,0,1,2.439.49" transform="translate(-46.235 -47.508)" fill="#5f646b"/><path d="M87.658,97.1c6.57.567,6.8,12.671,5.458,23.56-2.311-6.555-5.509-9.3-13-11.578.589-7.076,4.053-11.65,7.538-11.982" transform="translate(-39.063 -47.53)" fill="#fff"/><path d="M91.237,219.19a87.5,87.5,0,0,0-1.573,10.9,2.186,2.186,0,0,1-1.676,1.935,30.318,30.318,0,0,1-8.922.878,1.855,1.855,0,0,1-1.732-1.419c-.533-2.216-1.589-6.693-2.255-10.011a61.082,61.082,0,0,0,16.157-2.287" transform="translate(-36.605 -107.292)" fill="#5f646b"/><path d="M30.716,177.871c0,3-1.056,5.11-2.767,6.09l-6.534,3.757c-.046-.02-.087-.046-.133-.071a7.306,7.306,0,0,0,1.891-5.432c0-6-4.228-13.294-9.444-16.29-2.521-1.455-4.817-1.634-6.508-.75l7.379-4.252c1.706-.98,4.069-.837,6.677.659,5.212,3,9.439,10.3,9.439,16.29" transform="translate(-3.52 -78.465)" fill="#5f646b"/><path d="M35.468,76.051c-2.081,1.174-5.253,2.767-5.253,2.767C27.238,72.207,19.039,63.713,15.79,66.985A4.478,4.478,0,0,1,18.219,64.7c3.556-1.261,9.321,3.109,13.308,6.984a37.756,37.756,0,0,1,3.941,4.37" transform="translate(-7.698 -31.561)" fill="#5f646b"/><path d="M29.046,80.533c-5.893-1.593-12.991,6.851-12.991,6.851-2.6-5.452-3.7-14.355-1.44-18.679,3.249-3.272,11.453,5.217,14.431,11.828" transform="translate(-6.529 -33.276)" fill="#fff"/><path d="M34.1,213.941l-.861.5a4.562,4.562,0,0,0,.728-.567c.046.026.087.051.133.071" transform="translate(-16.206 -104.688)" fill="#fff"/><path d="M20.384,186.376a7.3,7.3,0,0,1-1.891,5.432,4.562,4.562,0,0,1-.728.567l-.149.087a4.616,4.616,0,0,1-1.794.587,7.99,7.99,0,0,1-4.884-1.246,16.682,16.682,0,0,1-3.951-3.267C3.75,184.957,1.5,179.888,1.5,175.513c0-2.563.771-4.475,2.065-5.59a4.1,4.1,0,0,1,.7-.5l.164-.092c1.691-.883,3.987-.7,6.508.75,5.217,3,9.444,10.292,9.444,16.29M14.562,184.6a2.91,2.91,0,0,0-1.322-2.277c-.728-.424-1.322-.082-1.322.756a2.919,2.919,0,0,0,1.322,2.282c.728.419,1.322.077,1.322-.761m-6.687-5.861a2.9,2.9,0,0,0-1.322-2.282c-.728-.419-1.317-.077-1.317.761a2.9,2.9,0,0,0,1.317,2.277c.733.419,1.322.082,1.322-.756" transform="translate(-0.731 -82.626)" fill="#fff"/><path d="M20.142,211.973l-1.6,2.165a2.365,2.365,0,0,1-2.531.873,12.372,12.372,0,0,1-4.971-2.359,1.848,1.848,0,0,1-.6-1.94c.21-.735.518-1.838.876-3.252a16.683,16.683,0,0,0,3.951,3.267,7.99,7.99,0,0,0,4.884,1.246" transform="translate(-5.051 -101.551)" fill="#5f646b"/><path d="M23.152,195.115a2.91,2.91,0,0,1,1.322,2.277c0,.837-.594,1.179-1.322.761a2.919,2.919,0,0,1-1.322-2.282c0-.837.594-1.179,1.322-.756" transform="translate(-10.643 -95.419)" fill="#3a3a3a"/><path d="M10.107,183.629a2.9,2.9,0,0,1,1.322,2.282c0,.837-.589,1.174-1.322.756a2.9,2.9,0,0,1-1.317-2.277c0-.837.589-1.179,1.317-.761" transform="translate(-4.286 -89.798)" fill="#3a3a3a"/><path d="M7.064,169.85l-.164.092a1.32,1.32,0,0,1,.164-.092" transform="translate(-3.364 -83.141)" fill="#fff"/><path d="M54.621,144.085a42.467,42.467,0,0,1-20.893-5.017c-.042-.02-.082-.042-.124-.066a.782.782,0,0,1-.306-1.051.752.752,0,0,1,1.025-.3l.078.044.063.031a40.909,40.909,0,0,0,20.158,4.831h.042a59.988,59.988,0,0,0,15.952-2.259,65.042,65.042,0,0,0,28.17-16.124l.176-.176a45.9,45.9,0,0,0,8.293-11.33,40.73,40.73,0,0,0,4.716-18.608c0-8.032-3.35-19.091-12.752-26.044a31.976,31.976,0,0,0-6.68-3.768,45.739,45.739,0,0,0-17.679-3.192c-13.522,0-25.106,2.978-34.43,8.851a.767.767,0,1,1-.822-1.295c9.575-6.031,21.435-9.088,35.252-9.088a47.28,47.28,0,0,1,18.274,3.311,33.556,33.556,0,0,1,7,3.951c9.861,7.291,13.373,18.869,13.373,27.274a42.262,42.262,0,0,1-4.887,19.311,47.436,47.436,0,0,1-8.568,11.706l-.18.179A66.606,66.606,0,0,1,71.027,141.77a61.545,61.545,0,0,1-16.363,2.315Z" transform="translate(-16.188 -29.135)" fill="#373a3a"/><path d="M4.11,139.209a.768.768,0,0,1-.755-.629,47.686,47.686,0,0,1-.735-8.514,46.064,46.064,0,0,1,7.539-25.228.768.768,0,0,1,1.289.835,44.544,44.544,0,0,0-7.291,24.393,46.2,46.2,0,0,0,.71,8.241.766.766,0,0,1-.619.89.8.8,0,0,1-.138.012" transform="translate(-1.277 -51.147)" fill="#373a3a"/><path d="M155.68,60.257a.753.753,0,0,1-.164-.018.766.766,0,0,1-.588-.911c1.416-6.466-.095-10.455-2.006-13.218a22.407,22.407,0,0,1-3.443,9.94A.768.768,0,0,1,148.2,55.2c1.941-2.916,2.959-6.247,3.406-11.138a.769.769,0,0,1,1.354-.424c2.379,2.817,5.328,7.543,3.473,16.012a.769.769,0,0,1-.751.6" transform="translate(-72.192 -21.229)" fill="#373a3a"/><path d="M79.878,232.965c-.5,0-1.023-.009-1.569-.029a2.63,2.63,0,0,1-2.453-2c-.447-1.86-1.563-6.561-2.261-10.04a.769.769,0,0,1,1.508-.3c.693,3.454,1.8,8.132,2.249,9.982a1.088,1.088,0,0,0,1.013.832,29.422,29.422,0,0,0,8.713-.857,1.42,1.42,0,0,0,1.09-1.253,88.426,88.426,0,0,1,1.589-11.007.769.769,0,0,1,1.5.329,86.759,86.759,0,0,0-1.558,10.8,2.952,2.952,0,0,1-2.258,2.615,30.105,30.105,0,0,1-7.563.928" transform="translate(-35.874 -106.557)" fill="#373a3a"/><path d="M170.272,183.389a2.91,2.91,0,0,1-2.228-1.04,56.388,56.388,0,0,0-6.682-6.671.767.767,0,1,1,.992-1.171,57.206,57.206,0,0,1,6.868,6.858,1.371,1.371,0,0,0,1.471.426c1.721-.544,4.672-1.8,5.263-4.144a93.319,93.319,0,0,1-6.392-13.81.768.768,0,0,1,1.445-.523,91.679,91.679,0,0,0,6.319,13.638,1.321,1.321,0,0,1,.145.961c-.716,3.134-4.263,4.69-6.313,5.338a2.928,2.928,0,0,1-.89.139" transform="translate(-78.54 -79.694)" fill="#373a3a"/><path d="M99.437,121.951a.742.742,0,0,1-.1-.006c-2.11-.276-6.9-1.249-7.105-1.29a.768.768,0,0,1-.571-.5c-2.21-6.266-5.129-8.859-12.5-11.1a.765.765,0,0,1-.542-.8c.578-6.928,4.037-12.26,8.227-12.68a4.973,4.973,0,0,1,2.877.576c1.4.747,13.624,7.792,10.465,25.164a.766.766,0,0,1-.755.629m-6.475-2.712c1.082.216,3.99.79,5.841,1.08,2.5-15.768-8.516-22.127-9.8-22.809a3.479,3.479,0,0,0-2-.4c-2.8.281-6.071,4.105-6.79,10.674,7.252,2.3,10.445,5.178,12.749,11.459" transform="translate(-38.331 -46.774)" fill="#373a3a"/><path d="M99.089,120.667a.85.85,0,0,1-.095-.006.766.766,0,0,1-.669-.854c1.289-10.451.632-17.922-1.848-21.037A4.181,4.181,0,0,0,93.548,97.1a3.8,3.8,0,0,0-.409-.021.766.766,0,1,1,0-1.532,5.363,5.363,0,0,1,.573.03,5.719,5.719,0,0,1,3.97,2.24c3.51,4.407,3.117,14.492,2.169,22.175a.768.768,0,0,1-.762.672" transform="translate(-45.035 -46.771)" fill="#373a3a"/><path d="M15.312,85.7a.7.7,0,0,1-.1-.007.768.768,0,0,1-.6-.43C11.955,79.688,10.747,70.577,13.19,65.9a5.217,5.217,0,0,1,2.858-2.66c4.293-1.521,10.678,3.831,14.1,7.157a38.113,38.113,0,0,1,4.028,4.472.764.764,0,0,1-.245,1.113c-2.072,1.17-5.254,2.768-5.285,2.784a.767.767,0,0,1-.547.056c-5.349-1.448-12.132,6.523-12.2,6.6a.771.771,0,0,1-.589.274m-.758-19.092c-2.053,3.929-1.143,11.734.982,16.932,2.055-2.172,7.612-7.381,12.673-6.269.677-.343,2.588-1.317,4.193-2.193A42.961,42.961,0,0,0,29.078,71.5c-5.312-5.16-9.993-7.7-12.514-6.811a3.742,3.742,0,0,0-2.01,1.925" transform="translate(-5.785 -30.826)" fill="#373a3a"/><path d="M29.484,80.561a.768.768,0,0,1-.7-.453c-2.474-5.492-8.128-11.464-11.415-12.057A1.85,1.85,0,0,0,15.6,68.5a.767.767,0,0,1-1.093-1.077,3.369,3.369,0,0,1,3.13-.879C21.826,67.3,27.715,74,30.185,79.481a.767.767,0,0,1-.7,1.08" transform="translate(-6.967 -32.537)" fill="#373a3a"/><path d="M71.573,83.786a.769.769,0,0,1-.516-.2l-3.264-2.946a.763.763,0,0,1-.11-1.013c4.373-6.1,15.388-11.24,24.066-11.24a.808.808,0,0,1,.461.135l2.757,1.894a.765.765,0,0,1-.359,1.392c-9.41.942-17.581,5.194-22.418,11.667a.769.769,0,0,1-.542.3.728.728,0,0,1-.075,0m-2.228-3.809L71.472,81.9c4.779-5.982,12.3-10.044,20.965-11.356l-.9-.619c-7.952.079-17.858,4.6-22.192,10.055" transform="translate(-32.929 -33.476)" fill="#373a3a"/><path d="M14.434,193.112a9.372,9.372,0,0,1-4.611-1.387,17.332,17.332,0,0,1-4.137-3.417C2.232,184.5,0,179.183,0,174.772c0-2.723.806-4.855,2.331-6.169a4.867,4.867,0,0,1,.812-.574,2.023,2.023,0,0,1,.241-.131c1.965-1.027,4.539-.755,7.21.786,5.419,3.112,9.828,10.717,9.828,16.952a8.022,8.022,0,0,1-2.129,5.985,5.3,5.3,0,0,1-.851.662.79.79,0,0,1-.1.051.755.755,0,0,1-.075.049,5.422,5.422,0,0,1-2.087.685,6.248,6.248,0,0,1-.749.044M6,168.822a4.144,4.144,0,0,0-1.939.451.691.691,0,0,0-.105.058l-.046.027a3.327,3.327,0,0,0-.57.4,6.481,6.481,0,0,0-1.8,5.011c0,4.053,2.076,8.963,5.29,12.51a15.811,15.811,0,0,0,3.765,3.118A7.328,7.328,0,0,0,15,191.548a3.9,3.9,0,0,0,1.5-.49.78.78,0,0,1,.074-.038l.052-.036a3.7,3.7,0,0,0,.6-.471,6.568,6.568,0,0,0,1.653-4.878c0-5.747-4.064-12.758-9.06-15.627A7.827,7.827,0,0,0,6,168.822" transform="translate(0 -81.886)" fill="#373a3a"/><path d="M19.518,188.326a.765.765,0,0,1-.386-1.428l7.544-4.34c1.537-.88,2.383-2.807,2.383-5.427C29.06,171.39,25,164.379,20,161.5c-2.276-1.306-4.374-1.539-5.909-.658L6.553,165.19a.767.767,0,1,1-.77-1.326l7.543-4.345c2.03-1.165,4.674-.932,7.445.658C26.19,163.3,30.6,170.9,30.6,177.131c0,3.191-1.12,5.59-3.153,6.755L19.9,188.223a.768.768,0,0,1-.385.1" transform="translate(-2.633 -77.726)" fill="#373a3a"/><path d="M9.972,186.878a1.983,1.983,0,0,1-.978-.281,3.646,3.646,0,0,1-1.7-2.941,1.67,1.67,0,0,1,.772-1.515,1.678,1.678,0,0,1,1.7.091,3.642,3.642,0,0,1,1.706,2.945,1.668,1.668,0,0,1-.768,1.511,1.443,1.443,0,0,1-.727.19m-1.127-3.386a.675.675,0,0,0-.017.163,2.159,2.159,0,0,0,.933,1.614.678.678,0,0,0,.153.067.685.685,0,0,0,.016-.16,2.159,2.159,0,0,0-.936-1.618.711.711,0,0,0-.149-.067" transform="translate(-3.554 -89.064)" fill="#373a3a"/><path d="M23.011,198.363a1.966,1.966,0,0,1-.975-.281,3.668,3.668,0,0,1-1.706-2.946,1.56,1.56,0,0,1,2.479-1.416,3.646,3.646,0,0,1,1.7,2.938,1.67,1.67,0,0,1-.773,1.514,1.441,1.441,0,0,1-.728.19m-1.127-3.388a.7.7,0,0,0-.016.161,2.184,2.184,0,0,0,.941,1.621.613.613,0,0,0,.148.065.692.692,0,0,0,.017-.164,2.161,2.161,0,0,0-.938-1.614.716.716,0,0,0-.153-.069" transform="translate(-9.912 -94.685)" fill="#373a3a"/><path d="M56.928,165.32a1.534,1.534,0,0,1-1.537-1.532v-4.436a1.537,1.537,0,0,1,3.075,0v4.436a1.534,1.534,0,0,1-1.537,1.532" transform="translate(-27.006 -77.253)" fill="#373a3a"/><path d="M20.327,144.44a1.534,1.534,0,0,1-1.537-1.532v-4.247a1.537,1.537,0,0,1,3.075,0v4.247a1.534,1.534,0,0,1-1.537,1.532" transform="translate(-9.161 -67.124)" fill="#373a3a"/><path d="M15.9,215.126a3.1,3.1,0,0,1-.827-.112,13.013,13.013,0,0,1-5.253-2.5,2.6,2.6,0,0,1-.856-2.743c.3-1.061.588-2.118.87-3.228a.768.768,0,0,1,1.49.375c-.285,1.126-.574,2.2-.882,3.274a1.079,1.079,0,0,0,.353,1.138,11.6,11.6,0,0,0,4.685,2.212,1.6,1.6,0,0,0,1.71-.588l1.6-2.166a.772.772,0,0,1,1.075-.161.763.763,0,0,1,.162,1.07l-1.6,2.165a3.147,3.147,0,0,1-2.528,1.268" transform="translate(-4.319 -100.816)" fill="#373a3a"/><path d="M71.552,3.153c-9.539,5.487-15.39,21.1-10.139,27.333a6.447,6.447,0,0,0,1.118,1.065c.161.118.325.226.5.327l4.968,2.857a5.62,5.62,0,0,1-.567-.369A6.367,6.367,0,0,1,66.308,33.3c-5.251-6.236.6-21.842,10.139-27.333,3.271-1.882,6.245-2.1,8.424-.918l-4.9-2.815c-2.179-1.178-5.149-.967-8.424.918" transform="translate(-28.979 -0.737)" fill="#5f646b"/><path d="M81.106,8.669C71.567,14.16,65.715,29.766,70.966,36a6.367,6.367,0,0,0,1.118,1.065,5.867,5.867,0,0,0,.567.369C79.907,41.578,93.2,28.25,93.2,15.627c0-3.9-1.394-6.62-3.638-7.855L89.53,7.75c-2.179-1.178-5.153-.963-8.424.918" transform="translate(-33.637 -3.438)" fill="#008cff"/><path d="M78.427,38.962a6.732,6.732,0,0,1-3.4-.875.766.766,0,1,1,.768-1.326c1.949,1.121,4.611.824,7.5-.835,5.845-3.361,11.894-11.878,11.9-20.315,0-3.483-1.151-6.034-3.241-7.184a.766.766,0,1,1,.743-1.34c2.6,1.431,4.036,4.459,4.036,8.524,0,8.99-6.441,18.063-12.666,21.641a11.476,11.476,0,0,1-5.632,1.71" transform="translate(-36.391 -3.423)" fill="#3a3a3a"/><path d="M71.922,35.466a.771.771,0,0,1-.379-.1,6.483,6.483,0,0,1-.643-.42,7.174,7.174,0,0,1-1.253-1.193c-1.944-2.309-2.6-5.941-1.843-10.223,1.3-7.372,6.316-14.881,12.189-18.262a12.656,12.656,0,0,1,4.774-1.691l-1.245-.715a.767.767,0,1,1,.769-1.327l4.9,2.815a.767.767,0,0,1-.751,1.337c-2.025-1.095-4.75-.772-7.673.908-5.507,3.17-10.213,10.244-11.443,17.2-.677,3.829-.141,7.017,1.509,8.977a5.652,5.652,0,0,0,.986.941,4.967,4.967,0,0,0,.489.319.765.765,0,0,1-.38,1.432" transform="translate(-32.908 -0.702)" fill="#3a3a3a"/><path d="M62.3,31.908A.763.763,0,0,1,61.9,31.8c-.191-.114-.375-.235-.557-.368a7.277,7.277,0,0,1-1.252-1.19c-1.947-2.313-2.6-5.946-1.844-10.23,1.305-7.372,6.317-14.88,12.189-18.258C73.84-.2,77.1-.534,79.613.825a.766.766,0,1,1-.733,1.346c-2.028-1.1-4.752-.773-7.673.908-5.506,3.168-10.212,10.24-11.443,17.2-.678,3.831-.142,7.02,1.509,8.981a5.743,5.743,0,0,0,.986.94c.141.1.284.2.434.287a.765.765,0,0,1-.4,1.423" transform="translate(-28.25 0)" fill="#3a3a3a"/><path d="M73.827,65.72a.768.768,0,0,1-.383-.1l-1.663-.956a.766.766,0,1,1,.769-1.326l1.662.956a.765.765,0,0,1-.385,1.429" transform="translate(-34.81 -30.952)" fill="#3a3a3a"/><path d="M69.017,62.938a.771.771,0,0,1-.384-.1l-3.309-1.9a.766.766,0,1,1,.769-1.326l3.309,1.9a.766.766,0,0,1-.384,1.429" transform="translate(-31.661 -29.126)" fill="#3a3a3a"/><path d="M87.963,26.631c0,.006,0,.011,0,.021A11.8,11.8,0,0,0,84.892,29.3c-.393.542-.684,1.192-.368,1.528.8.848,3.085-2.783,5.093-3.179,1.638-.321,3.272,1.859.97,5.728L91.917,34.8l-1.428,1.975-1.336-1.429a10.252,10.252,0,0,1-3.633,2.744l-.484-2.373c2.369-.891,4.939-3.723,4.1-4.618-1.035-1.1-4.369,5.032-6.523,2.74-.993-1.059-.737-3,.418-5.021l-1.278-1.358,1.43-1.977,1.266,1.354a11.21,11.21,0,0,1,3-2.552Z" transform="translate(-39.858 -11.886)" fill="#3a3a3a"/></g><rect width="106" height="135" transform="translate(109 662)" fill="none"/></g></svg>