<svg xmlns="http://www.w3.org/2000/svg" xmlns:xlink="http://www.w3.org/1999/xlink" width="86" height="145" viewBox="0 0 86 145"><defs><clipPath id="a"><rect width="85.575" height="144.417" fill="none"/></clipPath><clipPath id="c"><rect width="65.222" height="30.885" fill="none"/></clipPath></defs><g transform="translate(-335 -660)"><g transform="translate(335 660)"><g clip-path="url(#a)"><g clip-path="url(#a)"><path d="M6.686,87.606c.237.014.5.029.818.029.118,0,.246,0,.383-.008l-.025-.665a11.026,11.026,0,0,1-1.138-.022" transform="translate(0.514 6.678)" fill="#e0dfe6"/><path d="M10.579,82.61q.4-.063.772-.15l-.066-.286c-.237.144-.473.289-.706.436" transform="translate(0.813 6.311)" fill="#e0dfe6"/><path d="M7.034,85.019c.8.03,1.545.081,2.129.165l.095-.66c-.391-.056-.852-.1-1.348-.128-.293.207-.586.411-.875.623" transform="translate(0.54 6.482)" fill="#e0dfe6"/><path d="M3.111,128.669c1.651-.013,3.32-.064,4.943-.12,1.821-.064,3.7-.128,5.535-.128.907,0,1.736.016,2.528.047v.012H16.4l.015-.667c-.882-.04-1.806-.059-2.824-.059-1.842,0-3.731.066-5.557.129s-3.72.128-5.568.128" transform="translate(0.189 9.812)" fill="#e0dfe6"/><path d="M6.013,122.371c5.357,0,10.13.127,14.59.39l.04-.665c-4.474-.263-9.259-.391-14.629-.391" transform="translate(0.462 9.347)" fill="#e0dfe6"/><path d="M2.845,125.662c1.467,0,7.312-.107,8.774-.107a67.267,67.267,0,0,1,7.245.333l.071-.663a68.038,68.038,0,0,0-7.316-.336c-1.468,0-7.312.107-8.774.107" transform="translate(0.219 9.592)" fill="#e0dfe6"/><path d="M14.007,131.871V131.2H7.96q.854.354,1.73.667" transform="translate(0.611 10.077)" fill="#e0dfe6"/><path d="M0,105.878H14.619v-.667H0" transform="translate(0 8.081)" fill="#e0dfe6"/><path d="M5.261,108.624c1.086.09,2.211.184,3.322.184a14.033,14.033,0,0,0,3.177-.328l-.15-.649a13.34,13.34,0,0,1-3.027.311c-1.084,0-2.193-.093-3.267-.182" transform="translate(0.404 8.282)" fill="#e0dfe6"/><path d="M2.463,102.686c1.859,0,3.756-.066,5.591-.129s3.7-.128,5.535-.128c.907,0,1.736.016,2.527.047v.012H16.4l.015-.665c-.882-.04-1.806-.06-2.824-.06-1.842,0-3.731.066-5.558.129s-3.719.128-5.567.128" transform="translate(0.189 7.816)" fill="#e0dfe6"/><path d="M2.845,99.669c1.467,0,7.312-.107,8.774-.107a67.267,67.267,0,0,1,7.245.333l.071-.663a68.038,68.038,0,0,0-7.316-.336c-1.468,0-7.312.107-8.774.107" transform="translate(0.219 7.596)" fill="#e0dfe6"/><path d="M6.013,96.378c5.357,0,10.13.127,14.59.39l.04-.665c-4.474-.263-9.259-.391-14.629-.391" transform="translate(0.462 7.351)" fill="#e0dfe6"/><path d="M6.686,113.6c.237.014.5.029.818.029.118,0,.246,0,.383-.008l-.025-.665a11.026,11.026,0,0,1-1.138-.022" transform="translate(0.514 8.674)" fill="#e0dfe6"/><path d="M2.737,110.988a55.028,55.028,0,0,1,6.756.195l.1-.66a55.565,55.565,0,0,0-6.858-.2" transform="translate(0.21 8.472)" fill="#e0dfe6"/><path d="M51.91,80.365c1.8-2.329,3.367-4.187,4.9-5.815-.236-.074-.474-.148-.712-.216-1.481,1.586-2.995,3.391-4.72,5.624-.992,1.285-4.853,6.476-5.844,7.758a74.561,74.561,0,0,1-5.2,6.125l.481.461a75.3,75.3,0,0,0,5.242-6.179c.993-1.285,1.959-2.584,2.926-3.884s1.929-2.593,2.918-3.874" transform="translate(3.099 5.709)" fill="#e0dfe6"/><path d="M60.908,85c.378,0,.833,0,1.337-.009A55.03,55.03,0,0,1,69,85.19l.1-.66a55.562,55.562,0,0,0-6.858-.2c-.5,0-.955.009-1.331.009Z" transform="translate(4.678 6.476)" fill="#e0dfe6"/><path d="M61.806,87.588c.713.038,3.146.019,3.983,0,.214-.005.417.008.64.02.238.014.5.029.818.029.118,0,.247,0,.383-.008l-.024-.665a11.026,11.026,0,0,1-1.138-.022c-.242-.014-.462-.025-.695-.022-.829.018-3.235.039-3.932,0Z" transform="translate(4.747 6.676)" fill="#e0dfe6"/><path d="M57.385,78.323l.19-.247-.518-.419c-.63.744-1.272,1.539-1.962,2.434-1.246,1.613-2.467,3.311-3.647,4.954s-2.406,3.347-3.656,4.965c-1.235,1.6-2.37,2.953-3.469,4.137l.488.453c1.113-1.2,2.261-2.568,3.509-4.182s2.483-3.335,3.67-4.985S54.383,82.1,55.622,80.5c.615-.8,1.19-1.513,1.752-2.183Z" transform="translate(3.404 5.965)" fill="#e0dfe6"/><path d="M31.306,85c.377,0,.832,0,1.337-.009a55.005,55.005,0,0,1,6.755.195l.1-.66a55.545,55.545,0,0,0-6.857-.2c-.5,0-.955.009-1.331.009Z" transform="translate(2.404 6.476)" fill="#e0dfe6"/><rect width="16.182" height="0.666" transform="matrix(0.611, -0.791, 0.791, 0.611, 52.429, 100.639)" fill="#e0dfe6"/><path d="M31.77,91.937l-.345-.57a8.14,8.14,0,0,0-2.463,2.786l.611.267a7.55,7.55,0,0,1,2.2-2.483" transform="translate(2.225 7.017)" fill="#e0dfe6"/><path d="M45.64,82.812c2.593-3.356,5.039-6.4,7.415-9.238-.249-.05-.5-.1-.748-.144-2.307,2.761-4.682,5.722-7.194,8.975-2.82,3.651-5.836,7.7-9.492,12.729l.538.392c3.653-5.028,6.665-9.068,9.481-12.714" transform="translate(2.736 5.64)" fill="#e0dfe6"/><path d="M25.644,94.9c.95-1.23,2.387-2.864,3.656-4.305.494-.562.958-1.09,1.35-1.544l-.505-.435c-.391.453-.853.979-1.346,1.539-1.275,1.449-2.719,3.092-3.683,4.338Z" transform="translate(1.929 6.806)" fill="#e0dfe6"/><path d="M68.322,82.818c.3,0,.6-.008.883-.022-.185-.221-.37-.439-.562-.653-.108,0-.211.008-.321.008-1.084,0-2.193-.093-3.267-.182a30.751,30.751,0,0,0-4.622-.137l.052.664A30.143,30.143,0,0,1,65,82.634c1.086.09,2.21.184,3.322.184" transform="translate(4.642 6.282)" fill="#e0dfe6"/><path d="M60.295,89.87l-.4-.536a25.718,25.718,0,0,0-4.743,5.1l.527.407a25.268,25.268,0,0,1,4.612-4.974" transform="translate(4.236 6.861)" fill="#e0dfe6"/><path d="M27.773,88.72c.67-.868,1.509-1.852,2.3-2.7l-.488-.454c-.807.864-1.659,1.866-2.342,2.749-.734.951-1.567,1.861-2.371,2.74s-1.656,1.811-2.408,2.784c-.31.4-.584.784-.836,1.168l.557.366c.243-.37.506-.739.807-1.126.734-.952,1.567-1.862,2.371-2.742s1.656-1.81,2.408-2.784" transform="translate(1.661 6.572)" fill="#e0dfe6"/><path d="M60.582,93.426a8.013,8.013,0,0,1,1.266-1.536l-.457-.485a8.672,8.672,0,0,0-1.36,1.643c-.214.314-.459.672-.811,1.128l.528.406c.362-.468.613-.836.833-1.158" transform="translate(4.548 7.02)" fill="#e0dfe6"/><path d="M6.119,95.113C9.774,90.082,12.787,86.042,15.6,82.4q1.438-1.861,2.818-3.6c-.468.218-.926.457-1.389.685-.644.818-1.294,1.65-1.955,2.507-2.818,3.648-5.835,7.693-9.493,12.729" transform="translate(0.429 6.052)" fill="#e0dfe6"/><path d="M27.345,78.324l.191-.247-.518-.419c-.63.743-1.272,1.539-1.962,2.433-1.247,1.613-2.467,3.312-3.647,4.954S19,88.394,17.753,90.012c-1.234,1.6-2.369,2.949-3.471,4.137l.488.453c1.117-1.2,2.265-2.57,3.509-4.183s2.484-3.334,3.67-4.985S24.344,82.1,25.582,80.5c.615-.8,1.19-1.513,1.753-2.183Z" transform="translate(1.097 5.965)" fill="#e0dfe6"/><rect width="16.182" height="0.666" transform="matrix(0.611, -0.791, 0.791, 0.611, 20.083, 100.639)" fill="#e0dfe6"/><path d="M57.3,76.489c1.147.1,2.382.166,3.74.188-.486-.249-.98-.485-1.478-.71-.771-.032-1.5-.08-2.2-.142Z" transform="translate(4.401 5.824)" fill="#e0dfe6"/><path d="M59.413,79.885h6.74q-.409-.341-.833-.667H59.413Z" transform="translate(4.563 6.084)" fill="#e0dfe6"/><path d="M21.871,80.223c1.18-1.527,2.259-2.851,3.3-4.041-.408.138-.819.263-1.225.407-.824.977-1.68,2.041-2.6,3.227-.992,1.285-4.853,6.476-5.844,7.758A74.775,74.775,0,0,1,10.3,93.7l.481.461a75.118,75.118,0,0,0,5.242-6.179c.993-1.285,1.96-2.584,2.926-3.884s1.929-2.593,2.918-3.874" transform="translate(0.791 5.851)" fill="#e0dfe6"/><path d="M55.832,90.982c1.653-1.892,3.527-4.035,4.17-4.873l-.529-.406c-.631.821-2.5,2.956-4.144,4.84-1.336,1.529-2.492,2.85-2.824,3.282-.311.4-.585.785-.837,1.168l.558.365c.241-.367.505-.737.807-1.126.321-.415,1.525-1.793,2.8-3.251" transform="translate(3.968 6.582)" fill="#e0dfe6"/><path d="M32.2,87.588c.712.038,3.146.019,3.982,0,.216-.005.419.008.641.02.238.014.5.029.818.029.118,0,.247,0,.383-.008L38,86.964a11.056,11.056,0,0,1-1.139-.022c-.241-.014-.46-.025-.693-.022-.829.018-3.235.039-3.932,0Z" transform="translate(2.473 6.676)" fill="#e0dfe6"/><rect width="14.619" height="0.667" transform="translate(32.1 85.302)" fill="#e0dfe6"/><path d="M62.477,90.771c.392-.024.758-.012,1.148,0s.8.02,1.275.012a10.146,10.146,0,0,1,1.214.023l.071-.662a10.486,10.486,0,0,0-1.3-.027c-.463.009-.865,0-1.239-.012-.406-.014-.788-.027-1.212,0Z" transform="translate(4.795 6.919)" fill="#e0dfe6"/><path d="M62.939,92.894l-.247.619a1.537,1.537,0,0,0,.576.1c.089,0,.178-.005.267-.011a1.723,1.723,0,0,1,.44.01l.131-.654a2.469,2.469,0,0,0-.611-.022,1.432,1.432,0,0,1-.558-.043" transform="translate(4.815 7.135)" fill="#e0dfe6"/><path d="M27.694,76.494c1.474.135,3.087.2,4.931.2,1.86,0,3.756-.066,5.591-.129s3.7-.128,5.534-.128c.908,0,1.737.016,2.528.047v.012h.282l.015-.665c-.881-.041-1.806-.06-2.826-.06-1.841,0-3.73.066-5.556.129s-3.72.128-5.568.128c-1.823,0-3.416-.065-4.87-.2Z" transform="translate(2.127 5.819)" fill="#e0dfe6"/><path d="M48.6,73.239a67.089,67.089,0,0,0-7.029-.335,68.347,68.347,0,0,0-7.042.747c.791-.011,5.292-.082,6.756-.082a67.51,67.51,0,0,1,7.244.332Z" transform="translate(2.652 5.599)" fill="#e0dfe6"/><path d="M35.453,81.97a30.616,30.616,0,0,0-4.622-.137l.052.664a30.143,30.143,0,0,1,4.515.137c1.086.09,2.21.184,3.322.184A14.017,14.017,0,0,0,41.9,82.49l-.15-.649a13.385,13.385,0,0,1-3.026.311c-1.084,0-2.195-.093-3.267-.182" transform="translate(2.368 6.282)" fill="#e0dfe6"/><path d="M35.3,90.783a10.352,10.352,0,0,1,1.212.023l.071-.662a10.473,10.473,0,0,0-1.3-.027c-.464.009-.865,0-1.24-.011-.406-.014-.788-.027-1.211,0l.041.664c.391-.024.758-.011,1.148,0s.8.02,1.275.012" transform="translate(2.522 6.919)" fill="#e0dfe6"/><path d="M34.412,93.616l.095-.66a4.2,4.2,0,0,0-.768-.018,2.7,2.7,0,0,1-.824-.054l-.183.641a3.334,3.334,0,0,0,1.037.08,3.311,3.311,0,0,1,.643.012" transform="translate(2.514 7.134)" fill="#e0dfe6"/><path d="M70.2,93.147c.887-.926,1.782-1.926,2.719-3.04-.086-.24-.177-.479-.269-.717-1.015,1.219-1.977,2.3-2.931,3.3Z" transform="translate(5.355 6.866)" fill="#e0dfe6"/><path d="M74.091,92.565c-.132.145-.265.3-.4.438l.488.453c.118-.127.24-.265.36-.4-.15-.167-.3-.336-.451-.5" transform="translate(5.66 7.109)" fill="#e0dfe6"/><path d="M65.532,94.575c2.2-3.03,4.167-5.7,6-8.137-.015-.028-.028-.056-.043-.084-.1-.187-.21-.367-.314-.55-1.884,2.506-3.909,5.252-6.181,8.38Z" transform="translate(4.992 6.59)" fill="#e0dfe6"/><path d="M41.852,125.556a67.239,67.239,0,0,1,7.245.333l.071-.663a68.024,68.024,0,0,0-7.316-.336c-1.467,0-7.312.107-8.774.107-.9,0-1.6.041-2.274.08a19.231,19.231,0,0,1-3.583-.042l-.071.663a19.874,19.874,0,0,0,3.692.044c.664-.039,1.351-.079,2.235-.079,1.467,0,2.93-.027,4.393-.054s2.918-.053,4.38-.053" transform="translate(2.085 9.592)" fill="#e0dfe6"/><path d="M44.429,131.871V131.2H29.81v.667" transform="translate(2.29 10.077)" fill="#e0dfe6"/><path d="M54.853,132.485c.615-.8,1.19-1.513,1.753-2.183l.01.008.191-.247-.518-.418c-.63.743-1.273,1.539-1.962,2.433" transform="translate(4.173 9.957)" fill="#e0dfe6"/><path d="M56.824,125.034l-.071.662a19.791,19.791,0,0,0,3.692.045c.664-.039,1.351-.08,2.235-.08,1.467,0,6.728-.087,7.9-.095.277-.223.548-.449.817-.677-1.447,0-7.252.107-8.715.107-.9,0-1.6.04-2.274.08a19.23,19.23,0,0,1-3.583-.042" transform="translate(4.359 9.592)" fill="#e0dfe6"/><path d="M62.228,128.675c1.153,0,2.317-.028,3.477-.062q.62-.339,1.22-.705c-1.556.053-3.139.1-4.7.1-1.823,0-3.417-.065-4.87-.2l-.061.663c1.475.135,3.088.2,4.932.2" transform="translate(4.401 9.817)" fill="#e0dfe6"/><path d="M74.315,122.481c.2-.213.4-.431.591-.648-2.744-.086-5.622-.129-8.7-.129-3.291,0-4.959.062-7.266.15-1.046.039-2.21.082-3.7.126l.019.667c1.5-.044,2.662-.087,3.709-.127,2.3-.086,3.964-.149,7.242-.149,2.856,0,5.541.038,8.106.111" transform="translate(4.243 9.347)" fill="#e0dfe6"/><path d="M51.123,132.392a74.712,74.712,0,0,1,5.2-6.124l-.48-.462a75.257,75.257,0,0,0-5.243,6.179" transform="translate(3.886 9.663)" fill="#e0dfe6"/><path d="M21.084,132.392a74.593,74.593,0,0,1,5.2-6.124l-.481-.462a75.329,75.329,0,0,0-5.242,6.179" transform="translate(1.579 9.663)" fill="#e0dfe6"/><path d="M44.973,135.039c3.618-4.684,6.956-8.775,10.2-12.506l-.5-.437c-3.261,3.745-6.611,7.85-10.239,12.55" transform="translate(3.413 9.378)" fill="#e0dfe6"/><path d="M24.814,132.485c.615-.8,1.19-1.512,1.752-2.183l.011.009.19-.247-.517-.419c-.63.743-1.273,1.539-1.962,2.433" transform="translate(1.865 9.957)" fill="#e0dfe6"/><path d="M51.235,122.1c-4.474-.263-9.259-.391-14.629-.391-3.29,0-4.958.062-7.266.15-1.045.039-2.209.082-3.7.126l.019.667c1.5-.044,2.663-.088,3.709-.127,2.3-.086,3.964-.149,7.242-.149,5.357,0,10.13.127,14.591.39Z" transform="translate(1.969 9.348)" fill="#e0dfe6"/><path d="M15.471,134.313c3.4-4.383,6.564-8.247,9.641-11.78l-.5-.437c-3.143,3.609-6.374,7.562-9.857,12.058" transform="translate(1.133 9.378)" fill="#e0dfe6"/><path d="M46.56,128.482l.015-.667c-.882-.04-1.806-.059-2.824-.059-1.842,0-3.731.066-5.557.129s-3.72.128-5.568.128c-1.823,0-3.417-.065-4.87-.2l-.06.664c1.474.134,3.087.2,4.931.2,1.859,0,3.756-.066,5.591-.129s3.7-.128,5.535-.128c.907,0,1.737.015,2.528.047v.012Z" transform="translate(2.127 9.812)" fill="#e0dfe6"/><path d="M25.644,120.892c.95-1.23,2.387-2.864,3.656-4.305.494-.562.958-1.09,1.35-1.544l-.505-.435c-.391.453-.853.979-1.346,1.539-1.275,1.449-2.719,3.091-3.683,4.338Z" transform="translate(1.929 8.802)" fill="#e0dfe6"/><path d="M38.719,108.811a14.033,14.033,0,0,0,3.177-.328l-.15-.649a13.34,13.34,0,0,1-3.027.311c-1.084,0-2.193-.093-3.267-.182a30.756,30.756,0,0,0-4.622-.137l.052.664a30.138,30.138,0,0,1,4.515.137c1.087.09,2.21.184,3.322.184" transform="translate(2.368 8.278)" fill="#e0dfe6"/><path d="M46.56,102.488l.015-.667c-.882-.04-1.806-.059-2.824-.059-1.842,0-3.731.066-5.557.128s-3.72.129-5.568.129c-1.823,0-3.417-.065-4.87-.2l-.06.664c1.474.134,3.087.2,4.931.2,1.859,0,3.756-.066,5.591-.129s3.7-.128,5.535-.128c.907,0,1.737.015,2.528.047v.012Z" transform="translate(2.127 7.816)" fill="#e0dfe6"/><rect width="14.619" height="0.667" transform="translate(32.1 113.292)" fill="#e0dfe6"/><path d="M49.1,99.9l.071-.662a68.024,68.024,0,0,0-7.316-.336c-1.467,0-7.31.106-8.774.106-.9,0-1.6.041-2.274.08a19.127,19.127,0,0,1-3.583-.041l-.07.662a19.768,19.768,0,0,0,3.691.044c.665-.039,1.351-.079,2.235-.079,1.467,0,7.312-.107,8.774-.107A67.239,67.239,0,0,1,49.1,99.9" transform="translate(2.085 7.596)" fill="#e0dfe6"/><path d="M60.295,115.863l-.4-.536a25.717,25.717,0,0,0-4.743,5.1l.527.407a25.268,25.268,0,0,1,4.612-4.974" transform="translate(4.236 8.858)" fill="#e0dfe6"/><path d="M34.023,116.766c.387.014.8.02,1.275.012a10.354,10.354,0,0,1,1.212.023l.071-.662a10.472,10.472,0,0,0-1.3-.027c-.464.009-.865,0-1.24-.012-.406-.014-.788-.026-1.212,0l.042.665c.391-.024.758-.011,1.148,0" transform="translate(2.522 8.916)" fill="#e0dfe6"/><rect width="14.619" height="0.667" transform="translate(63.976 113.292)" fill="#e0dfe6"/><path d="M68.322,108.811a14.033,14.033,0,0,0,3.177-.328l-.15-.649a13.34,13.34,0,0,1-3.027.311c-1.084,0-2.193-.093-3.267-.182a30.752,30.752,0,0,0-4.622-.137l.052.664a30.142,30.142,0,0,1,4.515.137c1.086.09,2.21.184,3.322.184" transform="translate(4.642 8.278)" fill="#e0dfe6"/><path d="M78.582,96.651c-.12-.232-.249-.458-.376-.685-3.716-.17-7.665-.255-12-.255-3.291,0-4.959.062-7.267.15-1.045.039-2.209.083-3.7.127l.019.665c1.5-.044,2.662-.087,3.709-.127,2.3-.086,3.963-.149,7.242-.149,4.482,0,8.55.09,12.374.274" transform="translate(4.243 7.351)" fill="#e0dfe6"/><path d="M31.306,111c.377,0,.832,0,1.337-.009a55,55,0,0,1,6.755.195l.1-.66a55.547,55.547,0,0,0-6.857-.2c-.5,0-.955.009-1.331.009Z" transform="translate(2.404 8.472)" fill="#e0dfe6"/><path d="M51.2,96.767l.039-.665c-4.474-.263-9.259-.391-14.628-.391-3.291,0-4.959.062-7.267.15-1.045.039-2.209.083-3.7.126l.02.667c1.5-.044,2.662-.087,3.709-.127,2.3-.086,3.963-.149,7.242-.149,5.356,0,10.128.127,14.59.39" transform="translate(1.969 7.351)" fill="#e0dfe6"/><path d="M32.2,113.581c.712.038,3.146.019,3.982,0,.216-.005.419.008.641.02.238.014.5.029.818.029.118,0,.247,0,.383-.008L38,112.957a11.055,11.055,0,0,1-1.139-.022c-.241-.014-.46-.025-.693-.022-.829.018-3.235.039-3.932,0Z" transform="translate(2.473 8.672)" fill="#e0dfe6"/><path d="M52.507,119.819c-.311.4-.586.786-.837,1.168l.557.365c.242-.367.506-.737.808-1.126.32-.415,1.524-1.792,2.8-3.251,1.652-1.891,3.525-4.035,4.169-4.873l-.529-.406c-.631.821-2.5,2.956-4.142,4.84-1.337,1.53-2.492,2.851-2.824,3.282" transform="translate(3.969 8.579)" fill="#e0dfe6"/><path d="M60.582,119.419a8.046,8.046,0,0,1,1.266-1.536l-.457-.485a8.672,8.672,0,0,0-1.36,1.643c-.214.314-.459.672-.811,1.128l.528.407c.362-.469.613-.837.833-1.159" transform="translate(4.548 9.017)" fill="#e0dfe6"/><path d="M57.3,102.487c1.475.135,3.088.2,4.932.2,1.859,0,3.756-.066,5.591-.129s3.7-.128,5.535-.128c.906,0,1.736.016,2.527.047v.012h.281l.016-.665c-.882-.041-1.807-.06-2.824-.06-1.842,0-3.731.066-5.558.129s-3.72.128-5.567.128c-1.824,0-3.417-.065-4.871-.2Z" transform="translate(4.401 7.816)" fill="#e0dfe6"/><path d="M29.588,111.556c-.807.865-1.659,1.866-2.341,2.749-.735.951-1.568,1.861-2.372,2.742s-1.656,1.81-2.408,2.784c-.31.4-.584.784-.836,1.168l.557.365c.243-.369.506-.739.807-1.126.734-.951,1.567-1.861,2.371-2.742s1.656-1.81,2.408-2.782c.67-.868,1.509-1.853,2.3-2.7Z" transform="translate(1.661 8.568)" fill="#e0dfe6"/><path d="M27.067,100.274l-.481-.462a75.514,75.514,0,0,0-5.242,6.179c-.992,1.285-4.853,6.477-5.844,7.758a74.6,74.6,0,0,1-5.2,6.125l.481.462a75.3,75.3,0,0,0,5.242-6.179c.993-1.286,4.854-6.477,5.844-7.759a74.772,74.772,0,0,1,5.2-6.124" transform="translate(0.791 7.666)" fill="#e0dfe6"/><path d="M27.017,103.652c-.63.743-1.272,1.539-1.962,2.433-1.247,1.613-2.467,3.312-3.647,4.954s-2.406,3.348-3.656,4.966c-1.234,1.6-2.369,2.949-3.471,4.137l.488.453c1.117-1.2,2.265-2.57,3.509-4.183,1.258-1.628,2.484-3.334,3.67-4.985s2.395-3.332,3.633-4.936c.615-.795,1.19-1.512,1.753-2.182l.01.008.191-.247Z" transform="translate(1.097 7.961)" fill="#e0dfe6"/><rect width="16.182" height="0.666" transform="matrix(0.611, -0.791, 0.791, 0.611, 20.083, 128.628)" fill="#e0dfe6"/><path d="M34.412,119.609l.095-.66a4.1,4.1,0,0,0-.768-.017,2.735,2.735,0,0,1-.824-.055l-.183.641a3.333,3.333,0,0,0,1.037.08,3.313,3.313,0,0,1,.643.012" transform="translate(2.514 9.13)" fill="#e0dfe6"/><path d="M56.824,99.041l-.071.662a19.792,19.792,0,0,0,3.692.045c.664-.039,1.351-.08,2.235-.08,1.467,0,7.31-.106,8.774-.106A67.559,67.559,0,0,1,78.7,99.9l.071-.662a68.024,68.024,0,0,0-7.316-.336c-1.468,0-7.312.107-8.774.107-.9,0-1.6.04-2.274.08a19.324,19.324,0,0,1-3.583-.042" transform="translate(4.359 7.596)" fill="#e0dfe6"/><rect width="16.182" height="0.666" transform="matrix(0.611, -0.791, 0.791, 0.611, 52.429, 128.628)" fill="#e0dfe6"/><path d="M62.939,118.887l-.247.619a1.537,1.537,0,0,0,.576.1c.089,0,.178-.005.267-.011a1.724,1.724,0,0,1,.44.01l.131-.654a2.418,2.418,0,0,0-.611-.02,1.451,1.451,0,0,1-.558-.044" transform="translate(4.815 9.131)" fill="#e0dfe6"/><path d="M56.625,99.813a75.057,75.057,0,0,0-5.242,6.179c-.993,1.285-4.854,6.476-5.844,7.758a74.99,74.99,0,0,1-5.2,6.125l.48.461a75.3,75.3,0,0,0,5.242-6.179c.993-1.285,4.854-6.477,5.844-7.758a74.492,74.492,0,0,1,5.2-6.124Z" transform="translate(3.099 7.666)" fill="#e0dfe6"/><path d="M57.056,103.652c-.63.743-1.272,1.539-1.962,2.433-1.247,1.613-2.467,3.312-3.647,4.954s-2.406,3.348-3.656,4.966c-1.235,1.6-2.37,2.952-3.471,4.137l.489.453c1.113-1.2,2.261-2.568,3.509-4.183s2.483-3.334,3.669-4.985,2.395-3.332,3.633-4.936c.615-.795,1.19-1.512,1.753-2.183l.011.009.19-.247Z" transform="translate(3.404 7.961)" fill="#e0dfe6"/><path d="M61.806,113.581c.713.038,3.146.019,3.983,0,.214-.005.417.008.64.02.238.014.5.029.818.029.118,0,.247,0,.383-.008l-.024-.665a11.026,11.026,0,0,1-1.138-.022c-.242-.014-.462-.025-.695-.022-.829.018-3.235.039-3.932,0Z" transform="translate(4.747 8.672)" fill="#e0dfe6"/><path d="M31.77,117.93l-.345-.57a8.14,8.14,0,0,0-2.463,2.786l.611.267a7.55,7.55,0,0,1,2.2-2.483" transform="translate(2.225 9.014)" fill="#e0dfe6"/><path d="M45.64,109.06c3.622-4.689,6.964-8.785,10.216-12.52l-.5-.437c-3.261,3.745-6.611,7.85-10.24,12.55-2.82,3.651-5.836,7.7-9.492,12.729l.538.392c3.653-5.028,6.665-9.068,9.481-12.714" transform="translate(2.736 7.381)" fill="#e0dfe6"/><path d="M60.908,111c.378,0,.833,0,1.337-.009a55.028,55.028,0,0,1,6.756.195l.1-.66a55.565,55.565,0,0,0-6.858-.2c-.5,0-.955.009-1.331.009Z" transform="translate(4.678 8.472)" fill="#e0dfe6"/><path d="M6.119,121.773c3.655-5.031,6.668-9.07,9.481-12.714,3.625-4.692,6.966-8.787,10.216-12.52l-.5-.437c-3.258,3.742-6.607,7.848-10.239,12.55-2.818,3.648-5.835,7.693-9.493,12.729" transform="translate(0.429 7.381)" fill="#e0dfe6"/><path d="M62.477,116.764c.392-.024.758-.012,1.148,0s.8.02,1.275.012a10.145,10.145,0,0,1,1.214.023l.071-.662a10.483,10.483,0,0,0-1.3-.027c-.463.009-.865,0-1.239-.012-.406-.014-.788-.027-1.212,0Z" transform="translate(4.795 8.916)" fill="#e0dfe6"/><path d="M80.025,102.317c-.06-.275-.121-.55-.19-.823-1.726,2.115-3.5,4.351-5.348,6.744-2.819,3.648-5.835,7.693-9.494,12.729l.538.392c3.655-5.031,6.669-9.071,9.482-12.714,1.728-2.238,3.392-4.336,5.011-6.328" transform="translate(4.992 7.795)" fill="#e0dfe6"/><path d="M80.219,107.319c0-.363,0-.726-.014-1.089-.8,1.047-4.3,5.745-5.292,7.026a74.808,74.808,0,0,1-5.2,6.125l.48.462a75.507,75.507,0,0,0,5.243-6.179c.992-1.286,4.16-5.526,4.779-6.346" transform="translate(5.355 8.159)" fill="#e0dfe6"/><path d="M77.692,115.7c.173-.224.34-.457.511-.683q.42-1.027.755-2.118c-.591.807-1.189,1.61-1.794,2.394-1.233,1.6-2.368,2.949-3.469,4.136l.488.454c1.116-1.2,2.263-2.57,3.509-4.183" transform="translate(5.66 8.671)" fill="#e0dfe6"/><g transform="translate(12.205 96.378)" style="mix-blend-mode:multiply;isolation:isolate"><g clip-path="url(#c)"><path d="M19.372,91.568a54.919,54.919,0,0,1,21.845-1.659c7.967.917,19.816,2.408,24.008,10.072a11.791,11.791,0,0,1,.52,1.089c1.711.2,3.275.744,5.065,1.048,3.6.611,5.318,4.3,5.683,7.464.93,8.1-8.656,10.491-14.8,10.753a111.046,111.046,0,0,1-16.655-.945,170.14,170.14,0,0,1-18.118-2.9c-7.126-1.569-12.491-4.422-15.084-11.648-2.005-5.586,2.291-11.683,7.534-13.271" transform="translate(-11.335 -89.504)" fill="#d7dce0"/></g></g><path d="M10.206,41.609,58.671,119.3,42.688,71.077l14.7,8.481L44.237,48.113l13.15,7.59L46.068,20.782,24.621,9.444,34.7,33.68,22.327,26.534,34.18,55.452Z" transform="translate(0.784 0.725)" fill="#f15a22"/><path d="M10.206,39.925,34.18,53.767,25.006,31.38Z" transform="translate(0.784 2.41)" fill="#fff"/><path d="M21.463,25.627l12.375,7.146L29.045,21.252Z" transform="translate(1.648 1.632)" fill="#fff"/><path d="M23.593,10.092,45.04,21.43l15.727-9.079L39.32,1.013Z" transform="translate(1.812 0.078)" fill="#fff"/><path d="M40.37,66.681,56.354,114.9l15.722-9.077L60.817,71.844l-5.751,3.319Z" transform="translate(3.101 5.121)" fill="#fff"/><path d="M41.81,45.355,54.955,76.8l15.722-9.079L62.646,48.509,54.96,52.945Z" transform="translate(3.211 3.483)" fill="#fff"/><path d="M43.509,20.621,54.829,55.543l15.722-9.079L59.236,11.543Z" transform="translate(3.342 0.887)" fill="#fff"/><path d="M57.824,119.95,9.358,42.265a1.091,1.091,0,0,1,1.472-1.523L32.035,52.986,21.4,27.025a1.091,1.091,0,0,1,1.556-1.359L32.534,31.2,23.691,9.942a1.092,1.092,0,0,1,1.518-1.385L46.655,19.895a1.091,1.091,0,0,1,.529.629L58.5,55.445a1.092,1.092,0,0,1-1.584,1.281l-10.35-5.975,11.9,28.463a1.09,1.09,0,0,1-1.552,1.365L44.7,73.535l15.081,45.5a1.091,1.091,0,0,1-1.961.921M43.311,70.211l11.9,6.865-11.9-28.464a1.091,1.091,0,0,1,1.553-1.365l10.689,6.171-10.307-31.8-18.37-9.713,8.915,21.433A1.091,1.091,0,0,1,34.234,34.7l-9.605-5.548L35.267,55.116a1.091,1.091,0,0,1-1.555,1.359L13.523,44.818,54.837,111.04,41.729,71.5a1.091,1.091,0,0,1,1.582-1.288" transform="translate(0.706 0.648)" fill="#3a3a3a"/><path d="M43.589,21.79a1.09,1.09,0,0,0,.545-.146l15.727-9.079a1.091,1.091,0,0,0-1.091-1.89L43.042,19.754a1.091,1.091,0,0,0,.547,2.036" transform="translate(3.264 0.809)" fill="#3a3a3a"/><path d="M56.438,57.521a1.09,1.09,0,0,0,.545-.146L72.705,48.3a1.089,1.089,0,0,0,.492-1.28L61.882,12.094a1.087,1.087,0,0,0-.528-.629L39.908.127a1.088,1.088,0,0,0-1.055.019L23.126,9.225a1.091,1.091,0,1,0,1.091,1.89l15.2-8.776L59.943,13.188l10.906,33.66L55.891,55.485a1.091,1.091,0,0,0,.547,2.036" transform="translate(1.734 0)" fill="#3a3a3a"/><path d="M54.1,77.744a1.093,1.093,0,0,0,.544-.145l15.724-9.08a1.089,1.089,0,0,0,.461-1.365L62.793,47.941a1.091,1.091,0,0,0-2.014.841l7.66,18.327-14.89,8.6a1.092,1.092,0,0,0,.546,2.037" transform="translate(4.071 3.631)" fill="#3a3a3a"/><path d="M55.293,115.7a1.09,1.09,0,0,0,.545-.146l15.722-9.079a1.091,1.091,0,0,0,.49-1.288L60.79,71.21a1.091,1.091,0,1,0-2.072.686L69.7,105.029l-14.953,8.635a1.091,1.091,0,0,0,.547,2.036" transform="translate(4.163 5.412)" fill="#3a3a3a"/><path d="M10.285,41.094a1.09,1.09,0,0,0,.545-.146L25.63,32.4a1.091,1.091,0,0,0-1.092-1.89l-14.8,8.544a1.091,1.091,0,0,0,.547,2.036" transform="translate(0.706 2.332)" fill="#3a3a3a"/><path d="M21.542,26.8a1.09,1.09,0,0,0,.545-.146l7.581-4.375a1.091,1.091,0,1,0-1.091-1.891L20.995,24.76a1.091,1.091,0,0,0,.547,2.036" transform="translate(1.571 1.554)" fill="#3a3a3a"/></g></g></g><rect width="86" height="145" transform="translate(335 660)" fill="none"/></g></svg>