<svg xmlns="http://www.w3.org/2000/svg" xmlns:xlink="http://www.w3.org/1999/xlink" width="115" height="110.451" viewBox="0 0 115 110.451"><defs><clipPath id="a"><rect width="114.703" height="109.451" fill="none"/></clipPath></defs><g transform="translate(-765 -668)"><g transform="translate(765 669)"><path d="M106.6,63.528l1.068.616,1.068-.616-1.068-.616Z" transform="translate(5.127 3.026)" fill="#969a9e"/><path d="M107.665,66.432l-1.068.616,1.068.616,1.068-.616Z" transform="translate(5.127 3.195)" fill="#969a9e"/><g transform="translate(0 0)"><g clip-path="url(#a)"><path d="M109.5,65.7a5.8,5.8,0,0,0-.121-.89l-.237-.136-1.068.616,1.068.616Z" transform="translate(5.199 3.111)" fill="#969a9e"/><path d="M107.665,69.951l-1.068.616.439.254c.269-.259.518-.526.753-.8Z" transform="translate(5.127 3.365)" fill="#969a9e"/><path d="M108.923,68.314l-.844.487.427.246a7.107,7.107,0,0,0,.417-.734" transform="translate(5.199 3.286)" fill="#969a9e"/><path d="M104.658,59.416l-1.025.592,1.068.616,1.058-.611c-.355-.216-.723-.414-1.1-.6" transform="translate(4.985 2.858)" fill="#969a9e"/><path d="M104.7,62.912l-1.068.616,1.068.616,1.068-.616Z" transform="translate(4.985 3.026)" fill="#969a9e"/><path d="M106.183,61.152l-1.068.616,1.068.616,1.068-.616Z" transform="translate(5.056 2.941)" fill="#969a9e"/><path d="M104.7,66.432l-1.068.616,1.068.616,1.068-.616Z" transform="translate(4.985 3.195)" fill="#969a9e"/><path d="M106.183,64.672l-1.068.616,1.068.616,1.068-.616Z" transform="translate(5.056 3.111)" fill="#969a9e"/><path d="M104.7,69.951l-1.068.616,1.068.617,1.068-.617Z" transform="translate(4.985 3.365)" fill="#969a9e"/><path d="M106.183,68.191l-1.068.616,1.068.616,1.068-.616Z" transform="translate(5.056 3.28)" fill="#969a9e"/><path d="M105.424,72.129l-.309.178.037.021c.091-.066.182-.132.273-.2" transform="translate(5.056 3.469)" fill="#969a9e"/><path d="M101.737,60.625l1.068-.616-1.068-.616-1.068.616Z" transform="translate(4.842 2.857)" fill="#969a9e"/><path d="M103.173,58.81l.012-.006-.067-.026Z" transform="translate(4.96 2.827)" fill="#969a9e"/><path d="M101.737,64.145l1.068-.616-1.068-.616-1.068.616Z" transform="translate(4.842 3.026)" fill="#969a9e"/><path d="M103.219,61.152l-1.068.616,1.068.616,1.068-.616Z" transform="translate(4.914 2.941)" fill="#969a9e"/><path d="M101.737,67.664l1.068-.616-1.068-.616-1.068.616Z" transform="translate(4.842 3.195)" fill="#969a9e"/><path d="M103.219,64.672l-1.068.616,1.068.616,1.068-.616Z" transform="translate(4.914 3.111)" fill="#969a9e"/><path d="M101.737,69.951l-1.068.616,1.068.617,1.068-.617Z" transform="translate(4.842 3.365)" fill="#969a9e"/><path d="M104.287,68.808l-1.068-.616-1.068.616,1.068.616Z" transform="translate(4.914 3.28)" fill="#969a9e"/><path d="M100.67,74.087l.9.519q.539-.3,1.083-.608l-.913-.527Z" transform="translate(4.842 3.534)" fill="#969a9e"/><path d="M103.219,71.711l-1.068.616,1.068.616,1.068-.616Z" transform="translate(4.914 3.449)" fill="#969a9e"/><path d="M97.706,60.009l1.068.616,1.068-.616-1.068-.616Z" transform="translate(4.7 2.857)" fill="#969a9e"/><path d="M100.255,58.859l1.068-.616L101,58.057l-.986-.293-.828.479Z" transform="translate(4.771 2.779)" fill="#969a9e"/><path d="M98.774,64.145l1.068-.616-1.068-.616-1.068.616Z" transform="translate(4.7 3.026)" fill="#969a9e"/><path d="M100.256,62.385l1.068-.616-1.068-.616-1.068.616Z" transform="translate(4.771 2.941)" fill="#969a9e"/><path d="M97.706,67.048l1.068.616,1.068-.616-1.068-.616Z" transform="translate(4.7 3.195)" fill="#969a9e"/><path d="M100.256,65.9l1.068-.616-1.068-.616-1.068.616Z" transform="translate(4.771 3.111)" fill="#969a9e"/><path d="M97.706,70.567l1.068.616,1.068-.616-1.068-.616Z" transform="translate(4.7 3.365)" fill="#969a9e"/><path d="M99.188,68.808l1.068.616,1.068-.616-1.068-.616Z" transform="translate(4.771 3.28)" fill="#969a9e"/><path d="M98.774,73.471l-1.068.616,1.068.616,1.068-.616Z" transform="translate(4.7 3.534)" fill="#969a9e"/><path d="M100.256,71.711l-1.068.616,1.068.616,1.068-.616Z" transform="translate(4.771 3.449)" fill="#969a9e"/><path d="M100.232,75.23l-.56.323.588-.307Z" transform="translate(4.794 3.619)" fill="#969a9e"/><path d="M98.1,80.879l-.4.23.787.454a7.71,7.71,0,0,0-.39-.683" transform="translate(4.7 3.89)" fill="#969a9e"/><path d="M99.3,84.961c.009-.21.009-.42,0-.631l-.52-.3-1.068.616,1.068.616Z" transform="translate(4.7 4.042)" fill="#969a9e"/><path d="M98.122,87.907l-.416.24.132.077c.1-.1.194-.209.284-.317" transform="translate(4.7 4.228)" fill="#969a9e"/><path d="M95.81,57.1l.834-.481q-.583-.288-1.177-.553l-.725.418Z" transform="translate(4.557 2.697)" fill="#969a9e"/><path d="M95.81,60.625l1.068-.616-1.068-.616-1.068.616Z" transform="translate(4.557 2.857)" fill="#969a9e"/><path d="M96.224,58.249l1.068.616,1.068-.616-1.068-.616Z" transform="translate(4.628 2.772)" fill="#969a9e"/><path d="M94.742,63.528l1.068.616,1.068-.616-1.068-.616Z" transform="translate(4.557 3.026)" fill="#969a9e"/><path d="M97.292,62.385l1.068-.616-1.068-.616-1.068.616Z" transform="translate(4.628 2.941)" fill="#969a9e"/><path d="M94.742,67.048l1.068.616,1.068-.616-1.068-.616Z" transform="translate(4.557 3.195)" fill="#969a9e"/><path d="M96.224,65.288l1.068.616,1.068-.616-1.068-.616Z" transform="translate(4.628 3.111)" fill="#969a9e"/><path d="M94.742,70.567l1.068.616,1.068-.616-1.068-.616Z" transform="translate(4.557 3.365)" fill="#969a9e"/><path d="M96.224,68.808l1.068.616,1.068-.616-1.068-.616Z" transform="translate(4.628 3.28)" fill="#969a9e"/><path d="M94.742,74.087l1.068.616,1.068-.616-1.068-.616Z" transform="translate(4.557 3.534)" fill="#969a9e"/><path d="M96.224,72.327l1.068.616,1.068-.616-1.068-.616Z" transform="translate(4.628 3.449)" fill="#969a9e"/><path d="M94.742,77.606l.63.364q.535-.31,1.069-.615l-.631-.365Z" transform="translate(4.557 3.703)" fill="#969a9e"/><path d="M96.224,75.847l1.068.616,1.068-.616-1.068-.616Z" transform="translate(4.628 3.619)" fill="#969a9e"/><path d="M94.742,81.126l1.068.616,1.068-.616L95.81,80.51Z" transform="translate(4.557 3.873)" fill="#969a9e"/><path d="M97.371,79.918c-.1-.109-.2-.221-.305-.323-.162-.154-.337-.295-.507-.441l-.334.193,1.068.617Z" transform="translate(4.628 3.807)" fill="#969a9e"/><path d="M96.878,84.645l-1.068-.616-1.068.616,1.068.616Z" transform="translate(4.557 4.042)" fill="#969a9e"/><path d="M98.359,82.886l-1.068-.616-1.068.616,1.068.616Z" transform="translate(4.628 3.957)" fill="#969a9e"/><path d="M95.81,87.549l-1.068.616,1.068.617,1.068-.617Z" transform="translate(4.557 4.211)" fill="#969a9e"/><path d="M97.292,85.789l-1.068.616,1.068.616,1.068-.616Z" transform="translate(4.628 4.127)" fill="#969a9e"/><path d="M92.846,57.106l1.068-.616-1.068-.616-1.068.616Z" transform="translate(4.415 2.688)" fill="#969a9e"/><path d="M91.778,60.009l1.068.616,1.068-.616-1.068-.616Z" transform="translate(4.415 2.857)" fill="#969a9e"/><path d="M94.328,58.866l1.068-.616-1.068-.616-1.068.616Z" transform="translate(4.486 2.772)" fill="#969a9e"/><path d="M91.778,63.528l1.068.616,1.068-.616-1.068-.616Z" transform="translate(4.415 3.026)" fill="#969a9e"/><path d="M93.26,61.769l1.068.616,1.068-.616-1.068-.616Z" transform="translate(4.486 2.941)" fill="#969a9e"/><path d="M91.778,67.048l1.068.616,1.068-.616-1.068-.616Z" transform="translate(4.415 3.195)" fill="#969a9e"/><path d="M93.26,65.288l1.068.616,1.068-.616-1.068-.616Z" transform="translate(4.486 3.111)" fill="#969a9e"/><path d="M91.778,70.567l1.068.616,1.068-.616-1.068-.616Z" transform="translate(4.415 3.365)" fill="#969a9e"/><path d="M93.26,68.808l1.068.616,1.068-.616-1.068-.616Z" transform="translate(4.486 3.28)" fill="#969a9e"/><path d="M91.778,74.087l1.068.616,1.068-.616-1.068-.616Z" transform="translate(4.415 3.534)" fill="#969a9e"/><path d="M93.26,72.327l1.068.616,1.068-.616-1.068-.616Z" transform="translate(4.486 3.449)" fill="#969a9e"/><path d="M91.778,77.606l1.068.616,1.068-.616-1.068-.616Z" transform="translate(4.415 3.703)" fill="#969a9e"/><path d="M93.26,75.847l1.068.616,1.068-.616-1.068-.616Z" transform="translate(4.486 3.619)" fill="#969a9e"/><path d="M92.846,81.742l1.068-.616-1.068-.616-1.068.616Z" transform="translate(4.415 3.873)" fill="#969a9e"/><path d="M93.26,79.366l1.068.616,1.068-.616-1.068-.616Z" transform="translate(4.486 3.788)" fill="#969a9e"/><path d="M91.778,84.645l1.068.616,1.068-.616-1.068-.616Z" transform="translate(4.415 4.042)" fill="#969a9e"/><path d="M94.328,83.5l1.068-.616-1.068-.616-1.068.616Z" transform="translate(4.486 3.957)" fill="#969a9e"/><path d="M93.914,88.165l-1.068-.616-1.068.616,1.068.616Z" transform="translate(4.415 4.211)" fill="#969a9e"/><path d="M95.4,86.405l-1.068-.616-1.068.616,1.068.616Z" transform="translate(4.486 4.127)" fill="#969a9e"/><path d="M94.894,89.649l-.589-.341-.571.33a6.313,6.313,0,0,0,1.16.01" transform="translate(4.509 4.296)" fill="#969a9e"/><path d="M88.814,56.489l1.068.616,1.068-.616-1.068-.616Z" transform="translate(4.272 2.688)" fill="#969a9e"/><path d="M91.364,55.334l.909-.524c-.457-.154-.915-.3-1.377-.438l-.6.346Z" transform="translate(4.343 2.615)" fill="#969a9e"/><path d="M88.814,60.009l1.068.616,1.068-.616-1.068-.616Z" transform="translate(4.272 2.857)" fill="#969a9e"/><path d="M90.3,58.249l1.068.616,1.068-.616-1.068-.616Z" transform="translate(4.343 2.772)" fill="#969a9e"/><path d="M88.814,63.528l1.068.616,1.068-.616-1.068-.616Z" transform="translate(4.272 3.026)" fill="#969a9e"/><path d="M90.3,61.769l1.068.616,1.068-.616-1.068-.616Z" transform="translate(4.343 2.941)" fill="#969a9e"/><path d="M88.814,67.048l1.068.616,1.068-.616-1.068-.616Z" transform="translate(4.272 3.195)" fill="#969a9e"/><path d="M90.3,65.288l1.068.616,1.068-.616-1.068-.616Z" transform="translate(4.343 3.111)" fill="#969a9e"/><path d="M88.814,70.567l1.068.616,1.068-.616-1.068-.616Z" transform="translate(4.272 3.365)" fill="#969a9e"/><path d="M90.3,68.808l1.068.616,1.068-.616-1.068-.616Z" transform="translate(4.343 3.28)" fill="#969a9e"/><path d="M88.814,74.087l1.068.616,1.068-.616-1.068-.616Z" transform="translate(4.272 3.534)" fill="#969a9e"/><path d="M90.3,72.327l1.068.616,1.068-.616-1.068-.616Z" transform="translate(4.343 3.449)" fill="#969a9e"/><path d="M89.882,78.223l1.068-.616-1.068-.616-1.068.616Z" transform="translate(4.272 3.703)" fill="#969a9e"/><path d="M90.3,75.847l1.068.616,1.068-.616-1.068-.616Z" transform="translate(4.343 3.619)" fill="#969a9e"/><path d="M88.814,81.126l1.068.616,1.068-.616-1.068-.616Z" transform="translate(4.272 3.873)" fill="#969a9e"/><path d="M91.364,79.983l1.068-.616-1.068-.616-1.068.616Z" transform="translate(4.343 3.788)" fill="#969a9e"/><path d="M88.814,84.645l1.068.616,1.068-.616-1.068-.616Z" transform="translate(4.272 4.042)" fill="#969a9e"/><path d="M90.3,82.886l1.068.616,1.068-.616-1.068-.616Z" transform="translate(4.343 3.957)" fill="#969a9e"/><path d="M90.95,88.165l-1.068-.616-1.068.616.179.1c.359.137.721.269,1.084.4Z" transform="translate(4.272 4.211)" fill="#969a9e"/><path d="M91.364,85.789l-1.068.616,1.068.616,1.068-.616Z" transform="translate(4.343 4.127)" fill="#969a9e"/><path d="M85.851,56.489l1.068.616,1.068-.616-1.068-.616Z" transform="translate(4.13 2.688)" fill="#969a9e"/><path d="M88.4,55.346l1.068-.616L88.4,54.114l-1.068.616Z" transform="translate(4.201 2.603)" fill="#969a9e"/><path d="M85.851,60.009l1.068.616,1.068-.616-1.068-.616Z" transform="translate(4.13 2.857)" fill="#969a9e"/><path d="M87.332,58.249l1.068.616,1.068-.616L88.4,57.633Z" transform="translate(4.201 2.772)" fill="#969a9e"/><path d="M86.918,64.145l1.068-.616-1.068-.616-1.068.616Z" transform="translate(4.129 3.026)" fill="#969a9e"/><path d="M87.332,61.769l1.068.616,1.068-.616L88.4,61.152Z" transform="translate(4.201 2.941)" fill="#969a9e"/><path d="M85.851,67.048l1.068.616,1.068-.616-1.068-.616Z" transform="translate(4.13 3.195)" fill="#969a9e"/><path d="M88.4,65.9l1.068-.616L88.4,64.672l-1.068.616Z" transform="translate(4.201 3.111)" fill="#969a9e"/><path d="M85.851,70.567l1.068.616,1.068-.616-1.068-.616Z" transform="translate(4.13 3.365)" fill="#969a9e"/><path d="M87.332,68.808l1.068.616,1.068-.616L88.4,68.192Z" transform="translate(4.201 3.28)" fill="#969a9e"/><path d="M86.918,74.7l1.068-.616-1.068-.616-1.068.616Z" transform="translate(4.129 3.534)" fill="#969a9e"/><path d="M87.332,72.327l1.068.616,1.068-.616L88.4,71.711Z" transform="translate(4.201 3.449)" fill="#969a9e"/><path d="M85.851,77.606l1.068.616,1.068-.616-1.068-.616Z" transform="translate(4.13 3.703)" fill="#969a9e"/><path d="M88.4,76.463l1.068-.616L88.4,75.231l-1.068.616Z" transform="translate(4.201 3.619)" fill="#969a9e"/><path d="M85.851,81.126l1.068.616,1.068-.616-1.068-.616Z" transform="translate(4.13 3.873)" fill="#969a9e"/><path d="M87.332,79.366l1.068.616,1.068-.616L88.4,78.75Z" transform="translate(4.201 3.788)" fill="#969a9e"/><path d="M85.851,84.645l1.068.616,1.068-.616-1.068-.616Z" transform="translate(4.13 4.042)" fill="#969a9e"/><path d="M87.332,82.886,88.4,83.5l1.068-.616L88.4,82.27Z" transform="translate(4.201 3.957)" fill="#969a9e"/><path d="M87.332,86.405l1.068.616,1.068-.616L88.4,85.789Z" transform="translate(4.201 4.127)" fill="#969a9e"/><path d="M83.167,56.321a2.736,2.736,0,0,0-.032.319l.808.466,1.068-.616-1.068-.616Z" transform="translate(3.999 2.688)" fill="#969a9e"/><path d="M84.369,54.73l1.068.616L86.5,54.73l-1.068-.616Z" transform="translate(4.058 2.603)" fill="#969a9e"/><path d="M83.955,60.612,85.022,60l-.551-.319c-.488.079-.978.159-1.463.249L82.887,60Z" transform="translate(3.987 2.871)" fill="#969a9e"/><path d="M86.5,58.249l-1.068-.616-1.068.616,1.068.616Z" transform="translate(4.058 2.772)" fill="#969a9e"/><path d="M82.887,63.528l1.068.616,1.068-.616-1.068-.616Z" transform="translate(3.987 3.026)" fill="#969a9e"/><path d="M85.437,62.385l1.068-.616-1.068-.616-1.068.616Z" transform="translate(4.058 2.941)" fill="#969a9e"/><path d="M82.922,67.066l1.03.6,1.068-.617-.93-.537c-.389.188-.778.375-1.169.559" transform="translate(3.989 3.199)" fill="#969a9e"/><path d="M85.494,65.79l-.113.057.007,0Z" transform="translate(4.107 3.165)" fill="#969a9e"/><path d="M84.442,65.244q.773-.137,1.549-.25l-.558-.322Z" transform="translate(4.062 3.111)" fill="#969a9e"/><path d="M83.955,71.184l1.068-.616-1.068-.617-1.068.617Z" transform="translate(3.987 3.365)" fill="#969a9e"/><path d="M85.437,69.424l1.068-.616-1.068-.616-1.068.616Z" transform="translate(4.058 3.28)" fill="#969a9e"/><path d="M82.887,74.087l1.068.616,1.068-.616-1.068-.616Z" transform="translate(3.987 3.534)" fill="#969a9e"/><path d="M85.437,72.944l1.068-.616-1.068-.616-1.068.616Z" transform="translate(4.058 3.449)" fill="#969a9e"/><path d="M82.887,77.606l1.068.616,1.068-.616-1.068-.616Z" transform="translate(3.987 3.703)" fill="#969a9e"/><path d="M84.369,75.847l1.068.616,1.068-.616-1.068-.616Z" transform="translate(4.058 3.619)" fill="#969a9e"/><path d="M82.887,81.126l1.068.616,1.068-.616-1.068-.616Z" transform="translate(3.987 3.873)" fill="#969a9e"/><path d="M84.369,79.366l1.068.616,1.068-.616-1.068-.616Z" transform="translate(4.058 3.788)" fill="#969a9e"/><path d="M82.887,84.645l1.068.616,1.068-.616-1.068-.616Z" transform="translate(3.987 4.042)" fill="#969a9e"/><path d="M84.369,82.886l1.068.616,1.068-.616-1.068-.616Z" transform="translate(4.058 3.957)" fill="#969a9e"/><path d="M84.469,86.344c.4.183.8.366,1.195.543l.835-.482-1.068-.616Z" transform="translate(4.063 4.127)" fill="#969a9e"/><path d="M80.7,60.443l.252.145.692-.4c-.121.025-.243.045-.365.071a3.119,3.119,0,0,0-.579.183" transform="translate(3.882 2.895)" fill="#969a9e"/><path d="M80.991,64.145l1.068-.616-1.068-.616-1.068.616Z" transform="translate(3.844 3.026)" fill="#969a9e"/><path d="M81.4,61.769l1.068.616,1.068-.616-1.068-.616Z" transform="translate(3.916 2.941)" fill="#969a9e"/><path d="M81.4,65.288l.652.376a3.179,3.179,0,0,0,.721-.071c.119-.025.239-.047.36-.072l.4-.233-1.068-.616Z" transform="translate(3.916 3.111)" fill="#969a9e"/><path d="M79.923,70.567l1.068.616,1.068-.616-1.068-.616Z" transform="translate(3.844 3.365)" fill="#969a9e"/><path d="M82.473,69.424l1.068-.616-1.068-.616-1.068.616Z" transform="translate(3.916 3.28)" fill="#969a9e"/><path d="M79.923,74.087l1.068.616,1.068-.616-1.068-.616Z" transform="translate(3.844 3.534)" fill="#969a9e"/><path d="M81.4,72.327l1.068.616,1.068-.616-1.068-.616Z" transform="translate(3.916 3.449)" fill="#969a9e"/><path d="M79.923,77.606l1.068.616,1.068-.616-1.068-.616Z" transform="translate(3.844 3.703)" fill="#969a9e"/><path d="M81.4,75.847l1.068.616,1.068-.616-1.068-.616Z" transform="translate(3.916 3.619)" fill="#969a9e"/><path d="M79.923,81.126l1.068.616,1.068-.616-1.068-.616Z" transform="translate(3.844 3.873)" fill="#969a9e"/><path d="M81.4,79.366l1.068.616,1.068-.616-1.068-.616Z" transform="translate(3.916 3.788)" fill="#969a9e"/><path d="M79.923,84.645l.106.062c.437.108.871.225,1.3.358l.728-.42-1.068-.616Z" transform="translate(3.844 4.042)" fill="#969a9e"/><path d="M81.4,82.886l1.068.616,1.068-.616-1.068-.616Z" transform="translate(3.916 3.957)" fill="#969a9e"/><path d="M79.687,61.274a2.486,2.486,0,0,0-.376,1.016l.155.09,1.068-.616Z" transform="translate(3.815 2.947)" fill="#969a9e"/><path d="M76.959,70.567l1.068.616,1.068-.616-1.068-.616Z" transform="translate(3.702 3.365)" fill="#969a9e"/><path d="M79.5,69.414l1.068-.616-.655-.378q-.615.264-1.234.521Z" transform="translate(3.784 3.291)" fill="#969a9e"/><path d="M76.959,74.087l1.068.616,1.068-.616-1.068-.616Z" transform="translate(3.702 3.534)" fill="#969a9e"/><path d="M79.509,72.944l1.068-.616-1.068-.616-1.068.616Z" transform="translate(3.773 3.449)" fill="#969a9e"/><path d="M76.959,77.606l1.068.616,1.068-.616-1.068-.616Z" transform="translate(3.702 3.703)" fill="#969a9e"/><path d="M78.441,75.847l1.068.616,1.068-.616-1.068-.616Z" transform="translate(3.773 3.619)" fill="#969a9e"/><path d="M76.959,81.126l1.068.616,1.068-.616-1.068-.616Z" transform="translate(3.702 3.873)" fill="#969a9e"/><path d="M78.441,79.366l1.068.616,1.068-.616-1.068-.616Z" transform="translate(3.773 3.788)" fill="#969a9e"/><path d="M77.688,84.205q.445.075.887.16l-.583-.336Z" transform="translate(3.737 4.042)" fill="#969a9e"/><path d="M78.441,82.886l1.068.616,1.068-.616-1.068-.616Z" transform="translate(3.773 3.957)" fill="#969a9e"/><path d="M74.206,70.683l.847.488,1.068-.616L75.5,70.2c-.432.164-.864.326-1.3.484" transform="translate(3.569 3.377)" fill="#969a9e"/><path d="M74,74.087l1.068.616,1.068-.616-1.068-.616Z" transform="translate(3.559 3.534)" fill="#969a9e"/><path d="M75.477,72.327l1.068.616,1.068-.616-1.068-.616Z" transform="translate(3.631 3.449)" fill="#969a9e"/><path d="M74,77.606l1.068.616,1.068-.616-1.068-.616Z" transform="translate(3.559 3.703)" fill="#969a9e"/><path d="M75.477,75.847l1.068.616,1.068-.616-1.068-.616Z" transform="translate(3.631 3.619)" fill="#969a9e"/><path d="M74,81.126l1.068.616,1.068-.616-1.068-.616Z" transform="translate(3.559 3.873)" fill="#969a9e"/><path d="M75.477,79.366l1.068.616,1.068-.616-1.068-.616Z" transform="translate(3.631 3.788)" fill="#969a9e"/><path d="M75.477,82.886l1.068.616,1.068-.616-1.068-.616Z" transform="translate(3.631 3.957)" fill="#969a9e"/><path d="M71.032,70.565l1.068.616.587-.339A3.564,3.564,0,0,0,72,70Z" transform="translate(3.417 3.367)" fill="#969a9e"/><path d="M71.032,74.087,72.1,74.7l1.068-.616L72.1,73.471Z" transform="translate(3.417 3.534)" fill="#969a9e"/><path d="M72.513,72.327l1.068.616,1.068-.616-1.068-.616Z" transform="translate(3.488 3.449)" fill="#969a9e"/><path d="M71.032,77.606l1.068.616,1.068-.616L72.1,76.99Z" transform="translate(3.417 3.703)" fill="#969a9e"/><path d="M72.513,75.847l1.068.616,1.068-.616-1.068-.616Z" transform="translate(3.488 3.619)" fill="#969a9e"/><path d="M73.167,81.126,72.1,80.51l-1.068.616,1.068.616Z" transform="translate(3.417 3.873)" fill="#969a9e"/><path d="M72.513,79.366l1.068.616,1.068-.616-1.068-.616Z" transform="translate(3.488 3.788)" fill="#969a9e"/><path d="M72.513,82.886l1.068.616,1.068-.616-1.068-.616Z" transform="translate(3.488 3.957)" fill="#969a9e"/><path d="M68.068,70.567l1.068.616,1.068-.616-1.068-.616Z" transform="translate(3.274 3.365)" fill="#969a9e"/><path d="M70.676,69.315a2.609,2.609,0,0,0-.287-.051l.189.109Z" transform="translate(3.386 3.332)" fill="#969a9e"/><path d="M68.068,74.087l1.068.616,1.068-.616-1.068-.616Z" transform="translate(3.274 3.534)" fill="#969a9e"/><path d="M70.618,72.944l1.068-.616-1.068-.616-1.068.616Z" transform="translate(3.345 3.449)" fill="#969a9e"/><path d="M70.2,77.606l-1.068-.616-1.068.616,1.068.616Z" transform="translate(3.274 3.703)" fill="#969a9e"/><path d="M69.55,75.847l1.068.616,1.068-.616-1.068-.616Z" transform="translate(3.345 3.619)" fill="#969a9e"/><path d="M70.2,81.126l-1.068-.616-1.068.616,1.068.616Z" transform="translate(3.274 3.873)" fill="#969a9e"/><path d="M71.685,79.366l-1.068-.616-1.068.616,1.068.616Z" transform="translate(3.345 3.788)" fill="#969a9e"/><path d="M71.016,83.245l.037.006.632-.365-1.067-.616-1.068.616.729.421c.245-.024.491-.048.737-.063" transform="translate(3.345 3.957)" fill="#969a9e"/><path d="M65.672,70.235l-.568.328,1.068.616,1.068-.616-.885-.51c-.227.06-.456.119-.683.182" transform="translate(3.132 3.37)" fill="#969a9e"/><path d="M67.24,74.087l-1.068-.616-1.068.616,1.068.616Z" transform="translate(3.132 3.534)" fill="#969a9e"/><path d="M66.586,72.327l1.068.616,1.068-.616-1.068-.616Z" transform="translate(3.203 3.449)" fill="#969a9e"/><path d="M67.24,77.606l-1.068-.616-1.068.616,1.068.616Z" transform="translate(3.132 3.703)" fill="#969a9e"/><path d="M68.722,75.847l-1.068-.616-1.068.616,1.068.616Z" transform="translate(3.203 3.619)" fill="#969a9e"/><path d="M66.172,80.51l-1.068.616,1.068.616,1.068-.616Z" transform="translate(3.132 3.873)" fill="#969a9e"/><path d="M68.722,79.366l-1.068-.616-1.068.616,1.068.616Z" transform="translate(3.203 3.788)" fill="#969a9e"/><path d="M65.893,84.168c.1-.033.209-.066.313-.1l-.073-.042Z" transform="translate(3.17 4.042)" fill="#969a9e"/><path d="M68.722,82.886l-1.068-.616-1.068.616,1.068.616Z" transform="translate(3.203 3.957)" fill="#969a9e"/><path d="M63.168,71.145l.657-.379c-.284.087-.567.178-.849.268Z" transform="translate(3.029 3.404)" fill="#969a9e"/><path d="M63.208,74.7l1.068-.616-1.068-.616-1.068.616Z" transform="translate(2.989 3.534)" fill="#969a9e"/><path d="M65.758,72.327l-1.068-.616-1.068.616,1.068.616Z" transform="translate(3.06 3.449)" fill="#969a9e"/><path d="M64.276,77.606l-1.068-.616-1.068.616,1.068.616Z" transform="translate(2.989 3.703)" fill="#969a9e"/><path d="M65.758,75.847,64.69,75.23l-1.068.616,1.068.616Z" transform="translate(3.06 3.619)" fill="#969a9e"/><path d="M64.276,81.126l-1.068-.616-1.068.616,1.068.616Z" transform="translate(2.989 3.873)" fill="#969a9e"/><path d="M65.758,79.366,64.69,78.75l-1.068.616,1.068.616Z" transform="translate(3.06 3.788)" fill="#969a9e"/><path d="M63.552,85.063l.724-.418-1.068-.616-1.068.616,1.011.584c.133-.056.266-.112.4-.166" transform="translate(2.989 4.042)" fill="#969a9e"/><path d="M64.69,82.269l-1.068.616,1.068.616,1.068-.616Z" transform="translate(3.06 3.957)" fill="#969a9e"/><path d="M59.176,74.087l1.068.616,1.068-.616-1.068-.616Z" transform="translate(2.846 3.534)" fill="#969a9e"/><path d="M61.726,72.944l1.068-.616-1.068-.616-1.068.616Z" transform="translate(2.918 3.449)" fill="#969a9e"/><path d="M61.312,77.606l-1.068-.616-1.068.616,1.068.616Z" transform="translate(2.846 3.703)" fill="#969a9e"/><path d="M62.794,75.847l-1.068-.616-1.068.616,1.068.616Z" transform="translate(2.918 3.619)" fill="#969a9e"/><path d="M61.312,81.126l-1.068-.616-1.068.616,1.068.616Z" transform="translate(2.846 3.873)" fill="#969a9e"/><path d="M62.794,79.366l-1.068-.616-1.068.616,1.068.616Z" transform="translate(2.918 3.788)" fill="#969a9e"/><path d="M61.312,84.645l-1.068-.616-1.068.616,1.068.616Z" transform="translate(2.846 4.042)" fill="#969a9e"/><path d="M61.726,82.269l-1.068.616,1.068.616,1.068-.616Z" transform="translate(2.918 3.957)" fill="#969a9e"/><path d="M61.554,85.863,61.7,85.8l-.013-.007Z" transform="translate(2.961 4.127)" fill="#969a9e"/><path d="M56.213,74.087l1.068.616,1.068-.616-1.068-.616Z" transform="translate(2.704 3.534)" fill="#969a9e"/><path d="M59.8,72.3l-.168-.1c-.429.161-.857.325-1.283.493l.383.221Z" transform="translate(2.807 3.473)" fill="#969a9e"/><path d="M58.348,77.606,57.28,76.99l-1.068.616,1.068.616Z" transform="translate(2.704 3.703)" fill="#969a9e"/><path d="M58.762,76.463l1.068-.616-1.068-.616-1.068.616Z" transform="translate(2.775 3.619)" fill="#969a9e"/><path d="M58.348,81.126,57.28,80.51l-1.068.616,1.068.616Z" transform="translate(2.704 3.873)" fill="#969a9e"/><path d="M59.83,79.366l-1.068-.616-1.068.616,1.068.616Z" transform="translate(2.775 3.788)" fill="#969a9e"/><path d="M58.348,84.645l-1.068-.616-1.068.616,1.068.616Z" transform="translate(2.704 4.042)" fill="#969a9e"/><path d="M59.83,82.886l-1.068-.616-1.068.616,1.068.616Z" transform="translate(2.775 3.957)" fill="#969a9e"/><path d="M56.792,88.446q.508-.3,1.024-.589l-.536-.309-1.068.616.535.309.045-.027" transform="translate(2.704 4.211)" fill="#969a9e"/><path d="M58.762,85.789l-1.068.616,1.068.616,1.068-.616Z" transform="translate(2.775 4.127)" fill="#969a9e"/><path d="M54.28,74.678l1.068-.616-.116-.067q-.605.264-1.208.536Z" transform="translate(2.599 3.559)" fill="#969a9e"/><path d="M53.249,77.606l1.068.616,1.068-.616-1.068-.616Z" transform="translate(2.561 3.703)" fill="#969a9e"/><path d="M56.866,75.847,55.8,75.23l-1.068.616,1.068.616Z" transform="translate(2.633 3.619)" fill="#969a9e"/><path d="M55.384,81.126l-1.068-.616-1.068.616,1.068.616Z" transform="translate(2.561 3.873)" fill="#969a9e"/><path d="M56.866,79.366,55.8,78.75l-1.068.616,1.068.616Z" transform="translate(2.633 3.788)" fill="#969a9e"/><path d="M55.384,84.645l-1.068-.616-1.068.616,1.068.616Z" transform="translate(2.561 4.042)" fill="#969a9e"/><path d="M56.866,82.886,55.8,82.27l-1.068.616L55.8,83.5Z" transform="translate(2.633 3.957)" fill="#969a9e"/><path d="M55.384,88.165l-1.068-.616-1.068.616,1.068.616Z" transform="translate(2.561 4.211)" fill="#969a9e"/><path d="M56.866,86.405,55.8,85.789l-1.068.616,1.068.616Z" transform="translate(2.633 4.127)" fill="#969a9e"/><path d="M50.285,77.606l1.068.616,1.068-.616-1.068-.616Z" transform="translate(2.419 3.703)" fill="#969a9e"/><path d="M52.835,76.463l1.068-.616-1.068-.616-1.068.616Z" transform="translate(2.49 3.619)" fill="#969a9e"/><path d="M52.421,81.126l-1.068-.616-1.068.616,1.068.616Z" transform="translate(2.419 3.873)" fill="#969a9e"/><path d="M53.9,79.366l-1.068-.616-1.068.616,1.068.616Z" transform="translate(2.49 3.788)" fill="#969a9e"/><path d="M52.421,84.645l-1.068-.616-1.068.616,1.068.616Z" transform="translate(2.419 4.042)" fill="#969a9e"/><path d="M53.9,82.886l-1.068-.616-1.068.616,1.068.616Z" transform="translate(2.49 3.957)" fill="#969a9e"/><path d="M51.353,87.549l-1.068.616,1.068.617,1.068-.617Z" transform="translate(2.419 4.211)" fill="#969a9e"/><path d="M53.9,86.405l-1.068-.616-1.068.616,1.068.616Z" transform="translate(2.49 4.127)" fill="#969a9e"/><path d="M51.493,92.22c.006-.156.02-.31.02-.467.161-.1.324-.206.485-.311l-.646-.373-1.068.616,1.068.616Z" transform="translate(2.419 4.38)" fill="#969a9e"/><path d="M53.9,89.925l-1.068-.616-1.068.616,1.068.616Z" transform="translate(2.49 4.296)" fill="#969a9e"/><path d="M51.019,94.772l-.734.423.488.282c.089-.232.172-.467.245-.705" transform="translate(2.419 4.559)" fill="#969a9e"/><path d="M48.616,77.117c-.2.1-.406.2-.607.3-.21.069-.415.146-.622.219l1,.576,1.068-.617Z" transform="translate(2.279 3.709)" fill="#969a9e"/><path d="M49.457,81.126l-1.068-.616-1.068.616,1.068.616Z" transform="translate(2.276 3.873)" fill="#969a9e"/><path d="M50.939,79.366l-1.068-.616-1.068.616,1.068.616Z" transform="translate(2.347 3.788)" fill="#969a9e"/><path d="M48.389,84.029l-1.068.616,1.068.616,1.068-.616Z" transform="translate(2.276 4.042)" fill="#969a9e"/><path d="M50.939,82.886l-1.068-.616-1.068.616,1.068.616Z" transform="translate(2.347 3.957)" fill="#969a9e"/><path d="M49.457,88.165l-1.068-.616-1.068.616,1.068.616Z" transform="translate(2.276 4.211)" fill="#969a9e"/><path d="M49.871,85.789l-1.068.616,1.068.616,1.068-.616Z" transform="translate(2.347 4.127)" fill="#969a9e"/><path d="M48.389,91.068l-1.068.616,1.068.616,1.068-.616Z" transform="translate(2.276 4.38)" fill="#969a9e"/><path d="M50.939,89.925l-1.068-.616-1.068.616,1.068.616Z" transform="translate(2.347 4.296)" fill="#969a9e"/><path d="M49.457,95.2l-1.068-.616-1.068.616,1.068.616Z" transform="translate(2.276 4.55)" fill="#969a9e"/><path d="M49.871,92.828l-1.068.616,1.068.616,1.068-.616Z" transform="translate(2.347 4.465)" fill="#969a9e"/><path d="M49.079,98.505l-.69-.4-1.068.616,1.05.607c.248-.265.482-.542.707-.825" transform="translate(2.276 4.719)" fill="#969a9e"/><path d="M50.31,96.6l-.439-.254-1.068.616.969.56c.192-.3.373-.607.538-.922" transform="translate(2.347 4.634)" fill="#969a9e"/><path d="M44.357,81.126l1.068.616,1.068-.616-1.068-.616Z" transform="translate(2.134 3.873)" fill="#969a9e"/><path d="M46.907,79.983l1.068-.616-1.068-.616-1.068.616Z" transform="translate(2.205 3.788)" fill="#969a9e"/><path d="M46.493,84.645l-1.068-.616-1.068.616,1.068.616Z" transform="translate(2.134 4.042)" fill="#969a9e"/><path d="M46.907,82.269l-1.068.616,1.068.616,1.068-.616Z" transform="translate(2.205 3.957)" fill="#969a9e"/><path d="M45.425,87.549l-1.068.616,1.068.617,1.068-.617Z" transform="translate(2.134 4.211)" fill="#969a9e"/><path d="M47.975,86.405l-1.068-.616-1.068.616,1.068.616Z" transform="translate(2.205 4.127)" fill="#969a9e"/><path d="M46.493,91.685l-1.068-.616-1.068.616,1.068.616Z" transform="translate(2.134 4.38)" fill="#969a9e"/><path d="M46.907,89.308l-1.068.616,1.068.616,1.068-.616Z" transform="translate(2.205 4.296)" fill="#969a9e"/><path d="M46.493,95.2l-1.068-.616-1.068.616,1.068.616Z" transform="translate(2.134 4.55)" fill="#969a9e"/><path d="M47.975,93.444l-1.068-.616-1.068.616,1.068.616Z" transform="translate(2.205 4.465)" fill="#969a9e"/><path d="M45.425,98.107l-1.068.616,1.068.616,1.068-.616Z" transform="translate(2.134 4.719)" fill="#969a9e"/><path d="M46.907,96.347l-1.068.616,1.068.616,1.068-.616Z" transform="translate(2.205 4.634)" fill="#969a9e"/><path d="M45.414,101.627l-.836.483c.288-.15.572-.307.851-.475Z" transform="translate(2.144 4.888)" fill="#969a9e"/><path d="M47.464,100.188l-.555-.321-1.068.616.736.424q.457-.343.888-.72" transform="translate(2.205 4.804)" fill="#969a9e"/><path d="M42.445,78.153c-.043-.013-.087-.032-.13-.042l.1.059Z" transform="translate(2.035 3.757)" fill="#969a9e"/><path d="M42.461,81.742l1.068-.616-1.068-.616-1.068.616Z" transform="translate(1.991 3.873)" fill="#969a9e"/><path d="M44.337,78.972c-.088.046-.178.088-.266.135-.112-.083-.226-.159-.34-.24l-.855.494,1.067.617,1.068-.617Z" transform="translate(2.062 3.794)" fill="#969a9e"/><path d="M42.461,84.029l-1.068.616,1.068.616,1.068-.616Z" transform="translate(1.991 4.042)" fill="#969a9e"/><path d="M42.875,82.886l1.068.616,1.068-.616-1.068-.616Z" transform="translate(2.062 3.957)" fill="#969a9e"/><path d="M43.529,88.165l-1.068-.616-1.068.616,1.068.616Z" transform="translate(1.991 4.211)" fill="#969a9e"/><path d="M43.943,85.789l-1.068.616,1.068.616,1.068-.616Z" transform="translate(2.062 4.127)" fill="#969a9e"/><path d="M43.529,91.685l-1.068-.616-1.068.616,1.068.616Z" transform="translate(1.991 4.38)" fill="#969a9e"/><path d="M45.011,89.925l-1.068-.616-1.068.616,1.068.616Z" transform="translate(2.062 4.296)" fill="#969a9e"/><path d="M43.529,95.2l-1.068-.616-1.068.616,1.068.616Z" transform="translate(1.991 4.55)" fill="#969a9e"/><path d="M45.011,93.444l-1.068-.616-1.068.616,1.068.616Z" transform="translate(2.062 4.465)" fill="#969a9e"/><path d="M42.461,98.107l-1.068.616,1.068.616,1.068-.616Z" transform="translate(1.991 4.719)" fill="#969a9e"/><path d="M45.011,96.964l-1.068-.616-1.068.616,1.068.616Z" transform="translate(2.062 4.634)" fill="#969a9e"/><path d="M42.461,101.627l-1.068.616,1.068.616,1.068-.616Z" transform="translate(1.991 4.888)" fill="#969a9e"/><path d="M43.943,99.867l-1.068.616,1.068.616,1.068-.616Z" transform="translate(2.062 4.804)" fill="#969a9e"/><path d="M39.279,80.613a2.654,2.654,0,0,0,.119,1.1l.059.034,1.068-.616-1.068-.616Z" transform="translate(1.889 3.873)" fill="#969a9e"/><path d="M40.98,79.983l1.068-.616L40.98,78.75l-1.068.616Z" transform="translate(1.92 3.788)" fill="#969a9e"/><path d="M39.5,85.262l1.068-.616L39.5,84.03l-1.068.616Z" transform="translate(1.849 4.042)" fill="#969a9e"/><path d="M39.912,82.886l1.068.616,1.068-.616L40.98,82.27Z" transform="translate(1.92 3.957)" fill="#969a9e"/><path d="M38.43,88.165l1.068.616,1.068-.616L39.5,87.549Z" transform="translate(1.849 4.211)" fill="#969a9e"/><path d="M42.047,86.405l-1.068-.616-1.068.616,1.068.616Z" transform="translate(1.92 4.127)" fill="#969a9e"/><path d="M40.566,91.685,39.5,91.068l-1.068.616L39.5,92.3Z" transform="translate(1.848 4.38)" fill="#969a9e"/><path d="M42.047,89.925l-1.068-.616-1.068.616,1.068.616Z" transform="translate(1.92 4.296)" fill="#969a9e"/><path d="M39.5,94.588,38.43,95.2l1.068.616,1.068-.616Z" transform="translate(1.849 4.55)" fill="#969a9e"/><path d="M42.047,93.444l-1.068-.616-1.068.616,1.068.616Z" transform="translate(1.92 4.465)" fill="#969a9e"/><path d="M40.566,98.724,39.5,98.107l-1.068.616,1.068.616Z" transform="translate(1.848 4.719)" fill="#969a9e"/><path d="M40.98,96.347l-1.068.616,1.068.616,1.068-.616Z" transform="translate(1.92 4.634)" fill="#969a9e"/><path d="M39.5,101.627l-1.068.616,1.068.616,1.068-.616Z" transform="translate(1.849 4.888)" fill="#969a9e"/><path d="M40.98,99.867l-1.068.616,1.068.616,1.068-.616Z" transform="translate(1.92 4.804)" fill="#969a9e"/><path d="M40.476,103.662c.213-.057.426-.119.637-.182l-.161-.092Z" transform="translate(1.947 4.973)" fill="#969a9e"/><path d="M35.6,84.722l.931.538,1.068-.617-.962-.555q-.524.31-1.037.635" transform="translate(1.712 4.045)" fill="#969a9e"/><path d="M37.841,83.4l.132.077,1.068-.616-.086-.049q-.561.288-1.114.589" transform="translate(1.82 3.983)" fill="#969a9e"/><path d="M36.534,88.782l1.068-.616-1.068-.617-1.068.617Z" transform="translate(1.706 4.211)" fill="#969a9e"/><path d="M38.016,87.022l1.068-.616-1.068-.616-1.068.616Z" transform="translate(1.777 4.127)" fill="#969a9e"/><path d="M36.035,91.341l1.2.164c-.041.145-.074.292-.107.44l.449-.26-1.068-.616Z" transform="translate(1.733 4.38)" fill="#969a9e"/><path d="M38.016,90.541l1.068-.616-1.068-.616-1.068.616Z" transform="translate(1.777 4.296)" fill="#969a9e"/><path d="M36.534,95.821,37.6,95.2l-1.068-.616-1.068.616Z" transform="translate(1.706 4.55)" fill="#969a9e"/><path d="M38.016,92.828l-1.068.616,1.068.616,1.068-.616Z" transform="translate(1.777 4.465)" fill="#969a9e"/><path d="M37.6,98.724l-1.068-.616-1.068.616,1.068.616Z" transform="translate(1.706 4.719)" fill="#969a9e"/><path d="M38.016,97.58l1.068-.616-1.068-.616-1.068.616Z" transform="translate(1.777 4.634)" fill="#969a9e"/><path d="M37.6,102.243l-1.068-.616-1.068.616,1.068.616Z" transform="translate(1.706 4.888)" fill="#969a9e"/><path d="M39.084,100.483l-1.068-.616-1.068.616,1.068.616Z" transform="translate(1.777 4.804)" fill="#969a9e"/><path d="M38.016,103.386,36.948,104l.493.285c.537-.068,1.069-.157,1.6-.26l.043-.025Z" transform="translate(1.777 4.973)" fill="#969a9e"/><path d="M32.5,88.165l1.068.616,1.068-.616-1.068-.616Z" transform="translate(1.563 4.211)" fill="#969a9e"/><path d="M35.052,87.022l1.068-.616-1.068-.616-1.068.616Z" transform="translate(1.635 4.127)" fill="#969a9e"/><path d="M33.984,89.925l1.068.616,1.068-.616-1.068-.616Z" transform="translate(1.635 4.296)" fill="#969a9e"/><path d="M32.921,94.947l-.419.242,1.068.616,1.068-.616-.487-.282a4.842,4.842,0,0,1-1.229.04" transform="translate(1.563 4.565)" fill="#969a9e"/><path d="M33.57,99.34l1.068-.616-1.068-.616-1.068.616Z" transform="translate(1.563 4.719)" fill="#969a9e"/><path d="M33.984,96.964l1.068.616,1.068-.616-1.068-.616Z" transform="translate(1.635 4.634)" fill="#969a9e"/><path d="M34.638,102.243l-1.068-.616-1.068.616,1.068.616Z" transform="translate(1.563 4.888)" fill="#969a9e"/><path d="M35.052,101.1l1.068-.616-1.068-.616-1.068.616Z" transform="translate(1.635 4.804)" fill="#969a9e"/><path d="M35.052,103.386,33.984,104l.824.476c.171,0,.341-.007.511-.014l.8-.462Z" transform="translate(1.635 4.973)" fill="#969a9e"/><path d="M32.718,90.129l.372-.215-.691-.4a3.064,3.064,0,0,0,.319.613" transform="translate(1.558 4.306)" fill="#969a9e"/><path d="M30.606,95.821l1.068-.616-1.068-.616-1.068.616Z" transform="translate(1.421 4.55)" fill="#969a9e"/><path d="M29.538,98.724l1.068.616,1.068-.616-1.068-.616Z" transform="translate(1.421 4.719)" fill="#969a9e"/><path d="M31.02,96.964l1.068.616,1.068-.616-1.068-.616Z" transform="translate(1.492 4.634)" fill="#969a9e"/><path d="M31.674,102.243l-1.068-.616-1.068.616,1.068.616Z" transform="translate(1.421 4.888)" fill="#969a9e"/><path d="M31.02,100.483l1.068.616,1.068-.616-1.068-.616Z" transform="translate(1.492 4.804)" fill="#969a9e"/><path d="M32.47,104.4l.687-.4-1.068-.616L31.02,104l.54.311c.3.034.606.061.91.085" transform="translate(1.492 4.973)" fill="#969a9e"/><path d="M27.643,95.821l1.068-.616-1.068-.616-1.068.616Z" transform="translate(1.278 4.55)" fill="#969a9e"/><path d="M28.411,93.224l-.354.2,1.068.616,1-.574a2.482,2.482,0,0,0-1.709-.246" transform="translate(1.35 4.481)" fill="#969a9e"/><path d="M28.71,98.723l-1.068-.616-.1.06c.267.233.539.454.816.654-.443-.107-.883-.232-1.32-.364l-.461.266,1.068.616Z" transform="translate(1.278 4.719)" fill="#969a9e"/><path d="M29.124,97.58l1.068-.616-1.068-.616-1.068.616Z" transform="translate(1.35 4.634)" fill="#969a9e"/><path d="M27.643,102.86l1.068-.616-1.068-.616-1.068.616Z" transform="translate(1.278 4.888)" fill="#969a9e"/><path d="M29.124,101.1l1.068-.616-1.068-.616-1.068.616Z" transform="translate(1.35 4.804)" fill="#969a9e"/><path d="M30.044,104.078l.129-.074-1.068-.616-.644.372q.786.182,1.583.319" transform="translate(1.369 4.973)" fill="#969a9e"/><path d="M24.679,99.34l1.068-.616-1.068-.616-1.068.616Z" transform="translate(1.136 4.719)" fill="#969a9e"/><path d="M26.616,97.283l.558-.322-.956-.552a2.559,2.559,0,0,0,.4.874" transform="translate(1.261 4.637)" fill="#969a9e"/><path d="M23.686,102.2c.414.178.831.35,1.252.509l.8-.464-1.068-.616Z" transform="translate(1.139 4.888)" fill="#969a9e"/><path d="M26.161,101.1l1.068-.616-1.068-.616-1.068.616Z" transform="translate(1.207 4.804)" fill="#969a9e"/><path d="M20.647,98.724l1.068.616,1.068-.616-1.068-.616Z" transform="translate(0.993 4.719)" fill="#969a9e"/><path d="M23.2,97.566l.609-.352c-.389-.18-.776-.366-1.155-.566l-.522.3Z" transform="translate(1.064 4.649)" fill="#969a9e"/><path d="M22.129,100.483l1.068.616,1.068-.616L23.2,99.867Z" transform="translate(1.064 4.804)" fill="#969a9e"/><path d="M18.751,94.588l-1.068.616,1.068.616,1.068-.616Z" transform="translate(0.851 4.55)" fill="#969a9e"/><path d="M18.75,98.107l-1.04.6.161.126.878.506,1.068-.616Z" transform="translate(0.852 4.719)" fill="#969a9e"/><path d="M19.165,96.964l1.068.616,1.068-.616-1.068-.616Z" transform="translate(0.922 4.634)" fill="#969a9e"/><path d="M19.763,100.122c.344.217.694.426,1.047.629l.461-.267L20.2,99.867Z" transform="translate(0.951 4.804)" fill="#969a9e"/><path d="M16.855,95.2l-1.068-.616-1.068.616,1.068.616Z" transform="translate(0.708 4.55)" fill="#969a9e"/><path d="M18.135,93.556c-.043-.038-.09-.071-.133-.11a2.274,2.274,0,0,0-.934-.507l-.866.5,1.067.617Z" transform="translate(0.779 4.47)" fill="#969a9e"/><path d="M17.269,97.58l1.068-.616-1.068-.616-1.068.616Z" transform="translate(0.779 4.634)" fill="#969a9e"/><path d="M15.291,93.418l-.087-.05a2.4,2.4,0,0,0-.269.256Z" transform="translate(0.718 4.491)" fill="#969a9e"/><path d="M91.733,38.542c2.453,5.015,1.719,8.463-.124,10.365a5.393,5.393,0,0,1-.821.693c-3.306,2.285-10.986,7.925-15.563,7.415A27.932,27.932,0,0,1,67.4,54.873c-2.476-1.125-4.314-2.6-4.058-4.255.383-2.494,3.894-4.489,6.95-4.467a27.541,27.541,0,0,0,4.643.974c4.577.506,12.261-5.132,15.566-7.418a4.8,4.8,0,0,0,1.206-1.184Z" transform="translate(3.046 1.853)" fill="#dae0e5"/><path d="M64.582,23.906c8.064-2.689,18.047-4.921,22.409.084,7.4,8.486,8.467,13.618,6.55,16.351a4.823,4.823,0,0,1-1.207,1.184c-3.3,2.287-10.989,7.925-15.566,7.418a27.562,27.562,0,0,1-4.643-.974c-3.055-.022-6.567,1.973-6.95,4.467-.256,1.654,1.584,3.131,4.058,4.255-2.115.695-3.954,2.186-4.22,3.931-.292,1.884,2.208,3.533,5.225,4.671-2.128.61-4.032,2.083-4.3,3.818-.471,3.046,6.737,5.429,10.954,5.9l.087.009C65.758,81.294,55.65,81.466,43.755,89.111a23.953,23.953,0,0,0,.377-4.353c0-11.969-7.577-26.043-16.918-31.441a20.237,20.237,0,0,0-2-1L33.9,47.689a14.515,14.515,0,0,0,7.315-9.546l2.406-10.477A14.507,14.507,0,0,1,49.1,19.284l2.929-2.18a12.893,12.893,0,0,0,4.823-7.272l1.861-7.584A2.018,2.018,0,0,1,60.568.7c9.241-.393,6.258,11.878,4.013,23.2" transform="translate(1.213 0.033)" fill="#dae0e5"/><path d="M91.617,48.43c1.385,3.873.648,6.606-.9,8.216a5.373,5.373,0,0,1-.809.691c-3.215,2.232-10.7,7.716-15.154,7.22A27.8,27.8,0,0,1,68.412,63c-3.017-1.138-5.518-2.786-5.226-4.67.266-1.745,2.1-3.238,4.22-3.931a27.961,27.961,0,0,0,7.827,2.14c4.577.509,12.258-5.129,15.563-7.414a5.4,5.4,0,0,0,.821-.694" transform="translate(3.038 2.33)" fill="#dae0e5"/><path d="M90.677,56.269c1.979,4.713.775,7.794-1.3,9.234-3.026,2.1-10.037,7.274-14.263,6.844l-.087-.009c-4.217-.467-11.424-2.851-10.955-5.9.266-1.736,2.171-3.208,4.3-3.818a27.8,27.8,0,0,0,6.345,1.556c4.457.5,11.939-4.987,15.155-7.22a5.191,5.191,0,0,0,.808-.69" transform="translate(3.081 2.707)" fill="#dae0e5"/><path d="M45.05,82.44a24.047,24.047,0,0,1-.377,4.353,15.529,15.529,0,0,1-1.712,4.882,9.622,9.622,0,0,1-3.526,3.646L28.656,101.5c3.448-1.976,5.615-6.48,5.615-12.88,0-11.969-7.574-26.047-16.919-31.442-4.3-2.481-8.224-2.695-11.208-1.031l10.68-6.124a9.18,9.18,0,0,1,6.426-.924,14.143,14.143,0,0,1,2.883.9,20.093,20.093,0,0,1,2,1C37.473,56.4,45.05,70.47,45.05,82.44" transform="translate(0.295 2.352)" fill="#f6d84c"/><path d="M34.533,88.332c0,6.4-2.166,10.905-5.615,12.881-2.994,1.719-6.958,1.53-11.3-.977C8.269,94.838.695,80.764.695,68.795c0-6.462,2.206-10.986,5.71-12.936,2.984-1.664,6.908-1.451,11.208,1.031,9.346,5.395,16.919,19.472,16.919,31.441" transform="translate(0.033 2.635)" fill="#f6d84c"/><path d="M24.6,103.1a14.807,14.807,0,0,1-7.314-2.2C7.754,95.4,0,81.008,0,68.828,0,62.356,2.218,57.41,6.083,55.256c3.322-1.851,7.56-1.484,11.928,1.038,9.529,5.5,17.283,19.888,17.283,32.071,0,6.407-2.18,11.332-5.982,13.512A9.349,9.349,0,0,1,24.6,103.1M10.7,55.552a7.922,7.922,0,0,0-3.9.977C3.4,58.417,1.457,62.9,1.457,68.828c0,11.717,7.426,25.538,16.555,30.811,3.947,2.276,7.7,2.622,10.577.975,3.336-1.914,5.249-6.378,5.249-12.249,0-11.72-7.426-25.541-16.555-30.81a13.387,13.387,0,0,0-6.587-2" transform="translate(0 2.602)" fill="#373a3a"/><path d="M27.656,100.518a.728.728,0,0,1-.363-1.359l10.779-6.176a8.882,8.882,0,0,0,3.256-3.376,14.793,14.793,0,0,0,1.627-4.653.729.729,0,0,1,1.433.265,16.232,16.232,0,0,1-1.8,5.109,10.3,10.3,0,0,1-3.8,3.917l-10.779,6.176a.731.731,0,0,1-.362.1" transform="translate(1.295 4.058)" fill="#373a3a"/><path d="M44.711,87.554a.73.73,0,0,1-.717-.86,23.3,23.3,0,0,0,.366-4.221c0-11.715-7.427-25.536-16.556-30.81a19.121,19.121,0,0,0-1.92-.964,13.35,13.35,0,0,0-2.734-.855,8.4,8.4,0,0,0-5.926.841L6.448,56.86A.728.728,0,0,1,5.724,55.6L16.5,49.42a9.957,9.957,0,0,1,6.925-1.007,14.841,14.841,0,0,1,3.033.947A20.659,20.659,0,0,1,28.528,50.4c9.535,5.509,17.287,19.9,17.287,32.074a24.7,24.7,0,0,1-.39,4.486.729.729,0,0,1-.715.6" transform="translate(0.258 2.318)" fill="#373a3a"/><path d="M25.248,53.076a.728.728,0,0,1-.342-1.371l8.686-4.625a13.78,13.78,0,0,0,6.948-9.067l2.406-10.477a15.248,15.248,0,0,1,5.751-8.8l2.928-2.18a12.167,12.167,0,0,0,4.55-6.862l1.862-7.583A2.757,2.757,0,0,1,60.569.01a6.215,6.215,0,0,1,5.278,1.939c3.172,3.707,1.56,11.751-.147,20.268-.125.623-.251,1.244-.371,1.864-.894,4.518-1.743,9.213-1.454,12.593a.728.728,0,0,1-1.451.125c-.3-3.57.562-8.38,1.475-13l.373-1.867c1.562-7.8,3.179-15.866.467-19.036a4.769,4.769,0,0,0-4.11-1.431,1.292,1.292,0,0,0-1.179.99l-1.86,7.583a13.656,13.656,0,0,1-5.1,7.684L49.566,19.9a13.789,13.789,0,0,0-5.2,7.961L41.959,38.34a15.24,15.24,0,0,1-7.683,10.025l-8.686,4.626a.731.731,0,0,1-.343.085" transform="translate(1.179 0)" fill="#373a3a"/><path d="M70.338,47.384a.716.716,0,0,1-.208-.03c-2.506-.741-8.277-2.833-7.754-6.235a4.819,4.819,0,0,1,3.049-3.5,8.816,8.816,0,0,1,7.263-.061l.671-.529a38.424,38.424,0,0,1,5.688-3.93L76.23,29.2a.728.728,0,0,1,1.18-.852l3.306,4.577A.729.729,0,0,1,80.462,34a35.216,35.216,0,0,0-6.2,4.178c-.341.269-.692.546-1.06.833a.728.728,0,0,1-.834.042,7.189,7.189,0,0,0-6.338-.1,3.568,3.568,0,0,0-2.216,2.394c-.231,1.5,2.474,3.358,6.73,4.617a.728.728,0,0,1-.208,1.426" transform="translate(2.999 1.349)" fill="#373a3a"/><path d="M75.584,48.8a6.111,6.111,0,0,1-.671-.036,28.157,28.157,0,0,1-4.77-1,.728.728,0,0,1,.414-1.4,26.7,26.7,0,0,0,4.517.947c3.991.442,10.968-4.431,14.323-6.773l.747-.52a4.066,4.066,0,0,0,1.025-1c2.006-2.854-.3-8.343-6.5-15.454-3.22-3.695-10.294-3.652-21.631.128a.728.728,0,0,1-.46-1.381c11.955-3.987,19.54-3.891,23.188.3,8.564,9.826,8.315,14.8,6.6,17.249a5.524,5.524,0,0,1-1.388,1.364l-.743.518c-3.588,2.5-10.117,7.061-14.647,7.061" transform="translate(2.986 0.933)" fill="#373a3a"/><path d="M75.852,57.807a6.134,6.134,0,0,1-.673-.036,28.891,28.891,0,0,1-8.048-2.2c-4.057-1.847-4.673-3.754-4.475-5.03.463-3.026,4.394-5.113,7.674-5.083a.728.728,0,0,1-.005,1.456.491.491,0,0,0-.056,0c-2.877,0-5.869,1.86-6.174,3.849-.169,1.086,1.158,2.354,3.639,3.483a27.218,27.218,0,0,0,7.606,2.079c3.985.453,10.953-4.42,14.3-6.757l.766-.532a4.84,4.84,0,0,0,.713-.6c1.966-2.029,1.963-5.506-.008-9.538a.728.728,0,0,1,1.308-.639c3.206,6.556.89,10.009-.255,11.191a6.277,6.277,0,0,1-.929.785l-.762.53c-3.582,2.5-10.1,7.046-14.623,7.046" transform="translate(3.012 1.82)" fill="#373a3a"/><path d="M75.646,73.133a5.706,5.706,0,0,1-.573-.028l-.1-.012c-3.4-.377-9.045-2.021-10.938-4.493a2.876,2.876,0,0,1-.653-2.238c.334-2.186,2.66-3.789,4.816-4.407a.728.728,0,1,1,.4,1.4c-2.022.58-3.576,1.908-3.778,3.228a1.468,1.468,0,0,0,.37,1.131c1.416,1.85,6.285,3.527,9.944,3.932l.089.01c3.635.372,9.975-4.07,13.023-6.2l.743-.519c2.207-1.53,2.6-4.654,1.045-8.352a.728.728,0,0,1,1.343-.565c1.839,4.381,1.257,8.162-1.557,10.114l-.738.515c-3.283,2.3-9.267,6.485-13.44,6.485" transform="translate(3.047 2.673)" fill="#373a3a"/><path d="M75.371,65.349a5.959,5.959,0,0,1-.662-.036,28.587,28.587,0,0,1-6.52-1.6C64.149,62.19,62.183,60.3,62.5,58.251c.288-1.895,2.138-3.667,4.712-4.511a.728.728,0,1,1,.454,1.382c-2.025.666-3.523,2.011-3.727,3.35-.191,1.234,1.589,2.683,4.763,3.88a27.02,27.02,0,0,0,6.168,1.515c3.9.44,10.716-4.336,13.991-6.628l.668-.466a4.6,4.6,0,0,0,.7-.6c1.6-1.669,1.864-4.319.738-7.467a.728.728,0,0,1,1.371-.491c1.783,4.985.1,7.757-1.058,8.965a6.1,6.1,0,0,1-.918.784l-.664.463c-3.5,2.454-9.885,6.919-14.324,6.919" transform="translate(3.005 2.296)" fill="#373a3a"/><path d="M42.938,86.461a.728.728,0,0,1-.394-1.341C49.113,80.9,55.186,78.915,61.058,77a78.3,78.3,0,0,0,14.751-5.989.728.728,0,0,1,.71,1.271,80.626,80.626,0,0,1-15.008,6.1c-5.786,1.89-11.768,3.843-18.179,7.966a.729.729,0,0,1-.393.115" transform="translate(2.03 3.411)" fill="#373a3a"/></g></g></g><rect width="115" height="110" transform="translate(765 668)" fill="none"/></g></svg>