<svg xmlns="http://www.w3.org/2000/svg" xmlns:xlink="http://www.w3.org/1999/xlink" width="92" height="140" viewBox="0 0 92 140"><defs><clipPath id="a"><rect width="91.299" height="139.262" fill="none"/></clipPath></defs><g transform="translate(-549 -660)"><g transform="translate(549 660)"><g clip-path="url(#a)"><path d="M90.99,92.966c-.071-.21-.155-.42-.249-.629l-.42.243Z" fill="#969a9e"/><path d="M91.131,96.269a5.275,5.275,0,0,0,.168-.98l-.045-.026-.933.539Z" fill="#969a9e"/><path d="M88.541,89.9l.4-.233q-.315-.35-.666-.693l-.67.388Z" fill="#969a9e"/><path d="M87.608,92.58l.932.538.933-.538-.933-.538Z" fill="#969a9e"/><path d="M88.965,90.969l.932.538.308-.178c-.158-.259-.335-.516-.527-.773Z" fill="#969a9e"/><path d="M87.608,95.8l.932.538.933-.538-.933-.538Z" fill="#969a9e"/><path d="M88.965,94.191l.933.538.932-.538-.932-.538Z" fill="#969a9e"/><path d="M89.473,99.023l-.933-.538-.932.538.932.538Z" fill="#969a9e"/><path d="M88.965,97.412l.932.538.725-.418c.034-.062.066-.123.1-.184l-.821-.474Z" fill="#969a9e"/><path d="M84.9,89.359l.933.538.932-.538-.932-.538Z" fill="#969a9e"/><path d="M86.252,87.748l.933.538.209-.121q-.372-.318-.775-.629Z" fill="#969a9e"/><path d="M84.9,92.58l.933.538.932-.538-.932-.538Z" fill="#969a9e"/><path d="M86.252,90.969l.933.538.932-.538-.932-.538Z" fill="#969a9e"/><path d="M84.9,95.8l.933.538.932-.538-.932-.538Z" fill="#969a9e"/><path d="M86.252,94.191l.933.538.932-.538-.932-.538Z" fill="#969a9e"/><path d="M85.828,98.485l-.933.538.933.539.933-.539Z" fill="#969a9e"/><path d="M86.252,97.412l.933.538.932-.538-.932-.538Z" fill="#969a9e"/><path d="M84.895,102.245l.066.038c.341-.169.663-.341.974-.514l-.107-.062Z" fill="#969a9e"/><path d="M87.9,100.509l-.716-.413-.932.538.8.464q.448-.291.845-.589" fill="#969a9e"/><path d="M83.115,86.676l.932-.538-.932-.539-.933.539Z" fill="#969a9e"/><path d="M82.182,89.359l.933.538.932-.538-.932-.538Z" fill="#969a9e"/><path d="M84.471,88.286l.933-.538-.933-.539-.932.539Z" fill="#969a9e"/><path d="M82.182,92.58l.933.538.932-.538-.932-.538Z" fill="#969a9e"/><path d="M83.539,90.969l.932.538.933-.538-.933-.538Z" fill="#969a9e"/><path d="M82.182,95.8l.933.538.932-.538-.932-.538Z" fill="#969a9e"/><path d="M83.539,94.191l.932.538.933-.538-.933-.538Z" fill="#969a9e"/><path d="M82.182,99.023l.933.538.932-.538-.932-.538Z" fill="#969a9e"/><path d="M83.539,97.412l.932.538.933-.538-.933-.538Z" fill="#969a9e"/><path d="M83.115,101.706l-.933.538.933.539.932-.539Z" fill="#969a9e"/><path d="M84.471,100.1l-.932.538.932.539.933-.539Z" fill="#969a9e"/><path d="M80.4,86.676l.932-.538L80.4,85.6l-.933.539Z" fill="#969a9e"/><path d="M82.241,84.786q-.49-.254-1-.5l-.414.239.933.538Z" fill="#969a9e"/><path d="M79.47,89.359l.933.538.932-.538-.932-.538Z" fill="#969a9e"/><path d="M80.826,87.748l.932.538.933-.538-.933-.538Z" fill="#969a9e"/><path d="M79.47,92.58l.933.538.932-.538-.932-.538Z" fill="#969a9e"/><path d="M80.826,90.969l.932.538.933-.538-.933-.538Z" fill="#969a9e"/><path d="M79.47,95.8l.933.538.932-.538-.932-.538Z" fill="#969a9e"/><path d="M80.826,94.191l.932.538.933-.538-.933-.538Z" fill="#969a9e"/><path d="M79.47,99.023l.933.538.932-.538-.932-.538Z" fill="#969a9e"/><path d="M80.826,97.412l.932.538.933-.538-.933-.538Z" fill="#969a9e"/><path d="M79.47,102.245l.933.538.932-.538-.932-.538Z" fill="#969a9e"/><path d="M80.826,100.634l.932.538.933-.538-.933-.538Z" fill="#969a9e"/><path d="M81.758,103.317l-.932.538.121.07c.4-.135.781-.272,1.151-.412Z" fill="#969a9e"/><path d="M78.284,83.011c-.288-.158-.573-.321-.86-.48l-.667.385.933.539.7-.4-.1-.041" fill="#969a9e"/><path d="M77.689,85.6l-.932.538.932.539.933-.539Z" fill="#969a9e"/><path d="M79.046,83.988l-.933.538.933.539.933-.539Z" fill="#969a9e"/><path d="M76.757,89.359l.932.538.933-.538-.933-.538Z" fill="#969a9e"/><path d="M78.113,87.748l.933.538.932-.538-.932-.538Z" fill="#969a9e"/><path d="M76.757,92.58l.932.538.933-.538-.933-.538Z" fill="#969a9e"/><path d="M78.113,90.969l.933.538.932-.538-.932-.538Z" fill="#969a9e"/><path d="M76.757,95.8l.932.538.933-.538-.933-.538Z" fill="#969a9e"/><path d="M78.113,94.191l.933.538.932-.538-.932-.538Z" fill="#969a9e"/><path d="M76.757,99.023l.932.538.933-.538-.933-.538Z" fill="#969a9e"/><path d="M78.113,97.412l.933.538.932-.538-.932-.538Z" fill="#969a9e"/><path d="M76.757,102.245l.932.538.933-.538-.933-.538Z" fill="#969a9e"/><path d="M78.113,100.634l.933.538.932-.538-.932-.538Z" fill="#969a9e"/><path d="M78.113,103.855l.933.538.932-.538-.932-.538Z" fill="#969a9e"/><path d="M74.977,82.377l-.932.538.932.539.933-.539Z" fill="#969a9e"/><path d="M74.044,86.137l.932.538.933-.538-.933-.538Z" fill="#969a9e"/><path d="M75.4,84.526l.933.538.932-.538-.932-.538Z" fill="#969a9e"/><path d="M74.977,88.82l-.932.538.932.539.933-.539Z" fill="#969a9e"/><path d="M76.333,87.209l-.933.538.933.539.932-.539Z" fill="#969a9e"/><path d="M74.044,92.58l.932.538.933-.538-.933-.538Z" fill="#969a9e"/><path d="M75.4,90.969l.933.538.932-.538-.932-.538Z" fill="#969a9e"/><path d="M74.044,95.8l.932.538.933-.538-.933-.538Z" fill="#969a9e"/><path d="M75.4,94.191l.933.538.932-.538-.932-.538Z" fill="#969a9e"/><path d="M74.044,99.023l.932.538.933-.538-.933-.538Z" fill="#969a9e"/><path d="M75.4,97.412l.933.538.932-.538-.932-.538Z" fill="#969a9e"/><path d="M74.044,102.245l.932.538.933-.538-.933-.538Z" fill="#969a9e"/><path d="M75.4,100.634l.933.538.932-.538-.932-.538Z" fill="#969a9e"/><path d="M74.044,105.466c.461-.091.923-.184,1.383-.278l-.451-.26Z" fill="#969a9e"/><path d="M75.4,103.855l.933.538.932-.538-.932-.538Z" fill="#969a9e"/><path d="M72.264,80.233l.552-.319c-.309-.179-.616-.362-.924-.543l-.561.324Z" fill="#969a9e"/><path d="M71.331,82.916l.933.538.932-.538-.932-.538Z" fill="#969a9e"/><path d="M73.62,81.843l.932-.538-.932-.539-.933.539Z" fill="#969a9e"/><path d="M71.331,86.137l.933.538.932-.538-.932-.538Z" fill="#969a9e"/><path d="M72.688,84.526l.933.538.932-.538-.932-.538Z" fill="#969a9e"/><path d="M71.331,89.359l.933.538.932-.538-.932-.538Z" fill="#969a9e"/><path d="M72.688,87.748l.933.538.932-.538-.932-.538Z" fill="#969a9e"/><path d="M72.264,92.042l-.933.538.933.539.933-.539Z" fill="#969a9e"/><path d="M73.62,90.431l-.933.538.933.539.932-.539Z" fill="#969a9e"/><path d="M71.331,95.8l.933.538L73.2,95.8l-.932-.538Z" fill="#969a9e"/><path d="M72.688,94.191l.933.538.932-.538-.932-.538Z" fill="#969a9e"/><path d="M71.331,99.023l.933.538.932-.538-.932-.538Z" fill="#969a9e"/><path d="M72.688,97.412l.933.538.932-.538-.932-.538Z" fill="#969a9e"/><path d="M71.331,102.245l.933.538.932-.538-.932-.538Z" fill="#969a9e"/><path d="M72.688,100.634l.933.538.932-.538-.932-.538Z" fill="#969a9e"/><path d="M71.331,105.466l.676.39q.381-.071.762-.144l.427-.246-.932-.538Z" fill="#969a9e"/><path d="M72.688,103.855l.933.538.932-.538-.932-.538Z" fill="#969a9e"/><path d="M69.551,79.156l-.933.538.933.539.932-.539Z" fill="#969a9e"/><path d="M68.618,82.916l.933.538.932-.538-.932-.538Z" fill="#969a9e"/><path d="M69.975,81.3l.932.538.933-.538-.933-.538Z" fill="#969a9e"/><path d="M68.618,86.137l.933.538.932-.538-.932-.538Z" fill="#969a9e"/><path d="M69.975,84.526l.932.538.933-.538-.933-.538Z" fill="#969a9e"/><path d="M68.618,89.359l.933.538.932-.538-.932-.538Z" fill="#969a9e"/><path d="M69.975,87.748l.932.538.933-.538-.933-.538Z" fill="#969a9e"/><path d="M68.618,92.58l.933.538.932-.538-.932-.538Z" fill="#969a9e"/><path d="M69.975,90.969l.932.538.933-.538-.933-.538Z" fill="#969a9e"/><path d="M68.618,95.8l.933.538.932-.538-.932-.538Z" fill="#969a9e"/><path d="M69.975,94.191l.932.538.933-.538-.933-.538Z" fill="#969a9e"/><path d="M68.618,99.023l.933.538.932-.538-.932-.538Z" fill="#969a9e"/><path d="M69.975,97.412l.932.538.933-.538-.933-.538Z" fill="#969a9e"/><path d="M68.618,102.245l.933.538.932-.538-.932-.538Z" fill="#969a9e"/><path d="M69.975,100.634l.932.538.933-.538-.933-.538Z" fill="#969a9e"/><path d="M68.618,105.466l.933.538.932-.538-.932-.538Z" fill="#969a9e"/><path d="M69.975,103.855l.932.538.933-.538-.933-.538Z" fill="#969a9e"/><path d="M65.906,76.473l.933.538.548-.317c-.3-.183-.605-.368-.908-.552Z" fill="#969a9e"/><path d="M65.906,79.694l.933.538.932-.538-.932-.538Z" fill="#969a9e"/><path d="M67.262,78.083l.932.538.933-.538-.933-.538Z" fill="#969a9e"/><path d="M65.906,82.916l.933.538.932-.538-.932-.538Z" fill="#969a9e"/><path d="M67.262,81.3l.932.538.933-.538-.933-.538Z" fill="#969a9e"/><path d="M65.906,86.137l.933.538.932-.538-.932-.538Z" fill="#969a9e"/><path d="M67.262,84.526l.932.538.933-.538-.933-.538Z" fill="#969a9e"/><path d="M65.906,89.359l.933.538.932-.538-.932-.538Z" fill="#969a9e"/><path d="M67.262,87.748l.932.538.933-.538-.933-.538Z" fill="#969a9e"/><path d="M65.906,92.58l.933.538.932-.538-.932-.538Z" fill="#969a9e"/><path d="M67.262,90.969l.932.538.933-.538-.933-.538Z" fill="#969a9e"/><path d="M65.906,95.8l.933.538.932-.538-.932-.538Z" fill="#969a9e"/><path d="M67.262,94.191l.932.538.933-.538-.933-.538Z" fill="#969a9e"/><path d="M65.906,99.023l.933.538.932-.538-.932-.538Z" fill="#969a9e"/><path d="M67.262,97.412l.932.538.933-.538-.933-.538Z" fill="#969a9e"/><path d="M65.906,102.245l.933.538.932-.538-.932-.538Z" fill="#969a9e"/><path d="M67.262,100.634l.932.538.933-.538-.933-.538Z" fill="#969a9e"/><path d="M65.906,105.466l.933.538.932-.538-.932-.538Z" fill="#969a9e"/><path d="M67.262,103.855l.932.538.933-.538-.933-.538Z" fill="#969a9e"/><path d="M64.125,75.934l-.932.538.932.539.933-.539Z" fill="#969a9e"/><path d="M63.193,79.694l.932.538.933-.538-.933-.538Z" fill="#969a9e"/><path d="M64.549,78.083l.933.538.932-.538-.932-.538Z" fill="#969a9e"/><path d="M63.193,82.916l.932.538.933-.538-.933-.538Z" fill="#969a9e"/><path d="M64.549,81.3l.933.538.932-.538-.932-.538Z" fill="#969a9e"/><path d="M63.193,86.137l.932.538.933-.538-.933-.538Z" fill="#969a9e"/><path d="M64.549,84.526l.933.538.932-.538-.932-.538Z" fill="#969a9e"/><path d="M63.193,89.359l.932.538.933-.538-.933-.538Z" fill="#969a9e"/><path d="M64.549,87.748l.933.538.932-.538-.932-.538Z" fill="#969a9e"/><path d="M63.193,92.58l.932.538.933-.538-.933-.538Z" fill="#969a9e"/><path d="M64.549,90.969l.933.538.932-.538-.932-.538Z" fill="#969a9e"/><path d="M63.193,95.8l.932.538.933-.538-.933-.538Z" fill="#969a9e"/><path d="M64.549,94.191l.933.538.932-.538-.932-.538Z" fill="#969a9e"/><path d="M63.193,99.023l.932.538.933-.538-.933-.538Z" fill="#969a9e"/><path d="M64.549,97.412l.933.538.932-.538-.932-.538Z" fill="#969a9e"/><path d="M63.193,102.245l.932.538.933-.538-.933-.538Z" fill="#969a9e"/><path d="M64.549,100.634l.933.538.932-.538-.932-.538Z" fill="#969a9e"/><path d="M63.193,105.466l.932.538.933-.538-.933-.538Z" fill="#969a9e"/><path d="M64.549,103.855l.933.538.932-.538-.932-.538Z" fill="#969a9e"/><path d="M61.14,72.87l-.66.381.932.539.628-.363Z" fill="#969a9e"/><path d="M61.412,75.934l-.932.538.932.539.933-.539Z" fill="#969a9e"/><path d="M62.769,74.324l-.933.538.933.539.932-.539Z" fill="#969a9e"/><path d="M61.412,79.156l-.932.538.932.539.933-.539Z" fill="#969a9e"/><path d="M62.769,77.545l-.933.538.933.539.932-.539Z" fill="#969a9e"/><path d="M60.48,82.916l.932.538.933-.538-.933-.538Z" fill="#969a9e"/><path d="M61.836,81.3l.933.538L63.7,81.3l-.932-.538Z" fill="#969a9e"/><path d="M60.48,86.137l.932.538.933-.538-.933-.538Z" fill="#969a9e"/><path d="M61.836,84.526l.933.538.932-.538-.932-.538Z" fill="#969a9e"/><path d="M60.48,89.359l.932.538.933-.538-.933-.538Z" fill="#969a9e"/><path d="M61.836,87.748l.933.538.932-.538-.932-.538Z" fill="#969a9e"/><path d="M60.48,92.58l.932.538.933-.538-.933-.538Z" fill="#969a9e"/><path d="M61.836,90.969l.933.538.932-.538-.932-.538Z" fill="#969a9e"/><path d="M60.48,95.8l.932.538.933-.538-.933-.538Z" fill="#969a9e"/><path d="M61.836,94.191l.933.538.932-.538-.932-.538Z" fill="#969a9e"/><path d="M60.48,99.023l.932.538.933-.538-.933-.538Z" fill="#969a9e"/><path d="M61.836,97.412l.933.538.932-.538-.932-.538Z" fill="#969a9e"/><path d="M60.48,102.245l.932.538.933-.538-.933-.538Z" fill="#969a9e"/><path d="M61.836,100.634l.933.538.932-.538-.932-.538Z" fill="#969a9e"/><path d="M61.412,106l.933-.538-.933-.539-.932.539Z" fill="#969a9e"/><path d="M61.836,103.855l.933.538.932-.538-.932-.538Z" fill="#969a9e"/><path d="M57.767,73.251l.933.538.932-.538-.932-.538Z" fill="#969a9e"/><path d="M59.123,71.64l.452.261-.436-.27Z" fill="#969a9e"/><path d="M57.767,76.473l.933.538.932-.538-.932-.538Z" fill="#969a9e"/><path d="M60.056,75.4l.932-.538-.932-.539-.933.539Z" fill="#969a9e"/><path d="M58.7,79.156l-.933.538.933.539.933-.539Z" fill="#969a9e"/><path d="M60.056,77.545l-.933.538.933.539.932-.539Z" fill="#969a9e"/><path d="M58.7,82.377l-.933.538.933.539.933-.539Z" fill="#969a9e"/><path d="M60.056,80.766l-.933.538.933.539.932-.539Z" fill="#969a9e"/><path d="M57.767,86.137l.933.538.932-.538L58.7,85.6Z" fill="#969a9e"/><path d="M59.123,84.526l.933.538.932-.538-.932-.538Z" fill="#969a9e"/><path d="M57.767,89.359l.933.538.932-.538-.932-.538Z" fill="#969a9e"/><path d="M59.123,87.748l.933.538.932-.538-.932-.538Z" fill="#969a9e"/><path d="M57.767,92.58l.933.538.932-.538-.932-.538Z" fill="#969a9e"/><path d="M59.123,90.969l.933.538.932-.538-.932-.538Z" fill="#969a9e"/><path d="M57.767,95.8l.933.538.932-.538-.932-.538Z" fill="#969a9e"/><path d="M59.123,94.191l.933.538.932-.538-.932-.538Z" fill="#969a9e"/><path d="M59.632,99.023l-.933-.538-.932.538.932.538Z" fill="#969a9e"/><path d="M60.988,97.412l-.932-.538-.933.538.933.538Z" fill="#969a9e"/><path d="M58.7,102.783l.933-.538-.933-.539-.933.539Z" fill="#969a9e"/><path d="M60.056,101.172l.932-.538-.932-.539-.933.539Z" fill="#969a9e"/><path d="M58.7,106l.933-.538-.933-.539-.933.539Z" fill="#969a9e"/><path d="M60.056,104.394l.932-.538-.932-.539-.933.539Z" fill="#969a9e"/><path d="M55.054,70.03l.933.538.747-.431-.015-.009a3.981,3.981,0,0,0-1.043-.457Z" fill="#969a9e"/><path d="M55.054,73.251l.933.538.932-.538-.932-.538Z" fill="#969a9e"/><path d="M56.411,71.64l.932.538.933-.538-.933-.538Z" fill="#969a9e"/><path d="M55.054,76.473l.933.538.932-.538-.932-.538Z" fill="#969a9e"/><path d="M56.411,74.862l.932.538.933-.538-.933-.538Z" fill="#969a9e"/><path d="M55.054,79.694l.933.538.932-.538-.932-.538Z" fill="#969a9e"/><path d="M56.411,78.083l.932.538.933-.538-.933-.538Z" fill="#969a9e"/><path d="M55.736,82.522q.177.441.323.89l.86-.5-.933-.539Z" fill="#969a9e"/><path d="M57.343,80.766l-.932.538.932.539.933-.539Z" fill="#969a9e"/><path d="M56.654,85.984c.014.1.024.19.037.285l.229-.132Z" fill="#969a9e"/><path d="M57.343,83.988l-.932.538.932.539.933-.539Z" fill="#969a9e"/><path d="M56.839,89.4l.081-.047-.078-.045,0,.092" fill="#969a9e"/><path d="M56.811,87.517c.01.158.015.316.021.474l.511.3.933-.538-.933-.538Z" fill="#969a9e"/><path d="M56.535,92.8l.384-.222-.326-.188c-.017.137-.037.273-.058.41" fill="#969a9e"/><path d="M56.733,91.156l.61.352.933-.538-.933-.539-.575.332c-.01.131-.023.262-.035.393" fill="#969a9e"/><path d="M55.875,96.275l.112.065.933-.539-.836-.482c-.067.319-.136.638-.209.956" fill="#969a9e"/><path d="M57.343,94.729l.933-.538-.933-.539-.932.539Z" fill="#969a9e"/><path d="M55.162,99.085l.824.476.933-.538-.933-.539-.783.453Z" fill="#969a9e"/><path d="M58.276,97.412l-.933-.538-.932.538.932.538Z" fill="#969a9e"/><path d="M56.919,102.245l-.932-.538-.933.538.933.538Z" fill="#969a9e"/><path d="M58.276,100.634l-.933-.538-.932.538.932.538Z" fill="#969a9e"/><path d="M55.987,106l.932-.538-.932-.539-.933.539Z" fill="#969a9e"/><path d="M57.343,104.394l.933-.538-.933-.539-.932.539Z" fill="#969a9e"/><path d="M52.555,70.153l.719.415.932-.539-.592-.341a4.436,4.436,0,0,0-1.059.465" fill="#969a9e"/><path d="M53.274,73.79l.932-.538-.932-.539-.933.539Z" fill="#969a9e"/><path d="M53.7,71.64l.932.538.933-.538L54.63,71.1Z" fill="#969a9e"/><path d="M52.341,76.473l.933.538.932-.538-.932-.538Z" fill="#969a9e"/><path d="M53.7,74.862l.932.538.933-.538-.933-.538Z" fill="#969a9e"/><path d="M54.206,79.694l-.021-.012.012.017Z" fill="#969a9e"/><path d="M53.7,78.083l.932.538.933-.538-.933-.538Z" fill="#969a9e"/><path d="M55.27,81.474l.292-.169-.554-.32c.089.162.18.324.262.489" fill="#969a9e"/><path d="M53.274,102.783l.932-.538-.932-.539-.933.539Z" fill="#969a9e"/><path d="M54.6,101.086l-.087.017.121.069.932-.538-.716-.414q-.125.435-.25.866" fill="#969a9e"/><path d="M53.274,106l.932-.538-.932-.539-.933.539Z" fill="#969a9e"/><path d="M54.63,104.394l.933-.538-.933-.539-.932.539Z" fill="#969a9e"/><path d="M50.4,72.8a4.171,4.171,0,0,0-.184.788l.342.2.933-.539-.933-.538Z" fill="#969a9e"/><path d="M50.985,71.64l.933.538.932-.538-.932-.538Z" fill="#969a9e"/><path d="M51.266,76.6l.228-.132-.663-.382a3.876,3.876,0,0,0,.435.514" fill="#969a9e"/><path d="M50.985,74.862l.933.538.932-.538-.932-.538Z" fill="#969a9e"/><path d="M49.629,102.245l.932.538.933-.538-.679-.392c-.266.055-.532.112-.8.168Z" fill="#969a9e"/><path d="M49.629,105.466l.932.538.933-.538-.933-.538Z" fill="#969a9e"/><path d="M51.917,104.394l.933-.538-.933-.539-.933.539Z" fill="#969a9e"/><path d="M47.848,102.783l.836-.482c-.4.086-.808.177-1.211.265Z" fill="#969a9e"/><path d="M47.848,106l.933-.538-.933-.539-.932.539Z" fill="#969a9e"/><path d="M49.2,104.394l.932-.538-.932-.539-.933.539Z" fill="#969a9e"/><path d="M44.2,105.466l.933.538.932-.538-.932-.538Z" fill="#969a9e"/><path d="M45.559,103.855l.933.538.932-.538-.932-.538Z" fill="#969a9e"/><path d="M41.49,105.466l.933.538.932-.538-.932-.538Z" fill="#969a9e"/><path d="M43.535,103.458l-.689.4.933.538.932-.538-.828-.479-.348.081" fill="#969a9e"/><path d="M40.5,105.547l.141-.081-.089-.051c-.017.044-.036.087-.052.132" fill="#969a9e"/><path d="M84.895,121.573l.084.048c-.02-.02-.039-.042-.06-.062Z" fill="#969a9e"/><path d="M86.76,124.795l-.933-.538-.932.538.932.538Z" fill="#969a9e"/><path d="M86.5,128.169c.031-.084.066-.167.094-.251l-.762-.44-.933.538.933.539Z" fill="#969a9e"/><path d="M86.9,126.032l-.648.374.6.346a5.655,5.655,0,0,0,.049-.72" fill="#969a9e"/><path d="M84.048,121.573l-.932-.538-.933.538.933.538Z" fill="#969a9e"/><path d="M84.048,124.795l-.932-.538-.933.538.933.538Z" fill="#969a9e"/><path d="M85.4,123.184l-.933-.538-.932.538.932.538Z" fill="#969a9e"/><path d="M84.048,128.016l-.932-.538-.933.538.933.538Z" fill="#969a9e"/><path d="M85.4,126.406l-.933-.538-.932.538.932.538Z" fill="#969a9e"/><path d="M83.115,130.7l-.933.538.933.539.932-.539Z" fill="#969a9e"/><path d="M85.4,129.627l-.933-.538-.932.538.932.538Z" fill="#969a9e"/><path d="M79.47,118.352l.933.538.124-.071c-.334-.167-.671-.331-1.006-.5Z" fill="#969a9e"/><path d="M79.47,121.573l.933.538.932-.538-.932-.538Z" fill="#969a9e"/><path d="M81.758,120.5l.933-.538-.629-.364c-.108-.055-.216-.109-.322-.164l-.914.528Z" fill="#969a9e"/><path d="M81.335,124.795l-.932-.538-.933.538.933.538Z" fill="#969a9e"/><path d="M82.691,123.184l-.933-.538-.932.538.932.538Z" fill="#969a9e"/><path d="M80.4,127.478l-.933.538.933.539.932-.539Z" fill="#969a9e"/><path d="M82.691,126.406l-.933-.538-.932.538.932.538Z" fill="#969a9e"/><path d="M80.4,130.7l-.933.538.933.539.932-.539Z" fill="#969a9e"/><path d="M81.758,129.089l-.932.538.932.539.933-.539Z" fill="#969a9e"/><path d="M79.47,134.459l.05.029q.488-.21.966-.427l.082-.045-.165-.1Z" fill="#969a9e"/><path d="M82.588,132.789l-.829-.479-.933.539.887.511c.3-.187.6-.377.875-.571" fill="#969a9e"/><path d="M76.757,118.352l.932.538.933-.538-.933-.538Z" fill="#969a9e"/><path d="M78.622,121.573l-.933-.538-.932.538.932.538Z" fill="#969a9e"/><path d="M79.978,119.963l-.933-.538-.932.538.932.538Z" fill="#969a9e"/><path d="M77.689,124.256l-.932.538.932.539.933-.539Z" fill="#969a9e"/><path d="M79.978,123.184l-.933-.538-.932.538.932.538Z" fill="#969a9e"/><path d="M77.689,127.478l-.932.538.932.539.933-.539Z" fill="#969a9e"/><path d="M79.046,125.867l-.933.538.933.539.933-.539Z" fill="#969a9e"/><path d="M77.689,130.7l-.932.538.932.539.933-.539Z" fill="#969a9e"/><path d="M79.046,129.089l-.933.538.933.539.933-.539Z" fill="#969a9e"/><path d="M76.757,134.459l.932.538.933-.538-.933-.538Z" fill="#969a9e"/><path d="M79.046,132.31l-.933.538.933.539.933-.539Z" fill="#969a9e"/><path d="M75.909,118.352l-.933-.538-.932.538.932.538Z" fill="#969a9e"/><path d="M75.792,116.515l-.392.226.933.539.479-.277Z" fill="#969a9e"/><path d="M74.977,121.035l-.932.538.932.539.933-.539Z" fill="#969a9e"/><path d="M77.265,119.963l-.932-.538-.933.538.933.538Z" fill="#969a9e"/><path d="M74.977,124.256l-.932.538.932.539.933-.539Z" fill="#969a9e"/><path d="M76.333,122.646l-.933.538.933.539.932-.539Z" fill="#969a9e"/><path d="M74.977,127.478l-.932.538.932.539.933-.539Z" fill="#969a9e"/><path d="M76.333,125.867l-.933.538.933.539.932-.539Z" fill="#969a9e"/><path d="M74.977,130.7l-.932.538.932.539.933-.539Z" fill="#969a9e"/><path d="M76.333,129.089l-.933.538.933.539.932-.539Z" fill="#969a9e"/><path d="M74.044,134.459l.932.538.933-.538-.933-.538Z" fill="#969a9e"/><path d="M76.333,132.31l-.933.538.933.539.932-.539Z" fill="#969a9e"/><path d="M76.333,135.532l-.909.525c.379-.129.757-.261,1.131-.4Z" fill="#969a9e"/><path d="M72.033,114.725l-.7.4.933.538.791-.456Z" fill="#969a9e"/><path d="M72.264,117.814l-.933.538.933.539.933-.539Z" fill="#969a9e"/><path d="M72.688,116.741l.933.538.932-.538-.932-.538Z" fill="#969a9e"/><path d="M72.264,121.035l-.933.538.933.539.933-.539Z" fill="#969a9e"/><path d="M73.62,119.424l-.933.538.933.539.932-.539Z" fill="#969a9e"/><path d="M72.264,124.256l-.933.538.933.539.933-.539Z" fill="#969a9e"/><path d="M73.62,122.646l-.933.538.933.539.932-.539Z" fill="#969a9e"/><path d="M72.264,127.478l-.933.538.933.539.933-.539Z" fill="#969a9e"/><path d="M73.62,125.867l-.933.538.933.539.932-.539Z" fill="#969a9e"/><path d="M72.264,130.7l-.933.538.933.539.933-.539Z" fill="#969a9e"/><path d="M73.62,129.089l-.933.538.933.539.932-.539Z" fill="#969a9e"/><path d="M72.264,133.921l-.933.538.933.539.933-.539Z" fill="#969a9e"/><path d="M73.62,132.31l-.933.538.933.539.932-.539Z" fill="#969a9e"/><path d="M73.62,135.532l-.933.538.933.539.932-.539Z" fill="#969a9e"/><path d="M69.551,114.592l-.933.538.933.539.932-.539Z" fill="#969a9e"/><path d="M68.618,118.352l.933.538.932-.538-.932-.538Z" fill="#969a9e"/><path d="M69.975,116.741l.932.538.933-.538-.933-.538Z" fill="#969a9e"/><path d="M69.551,121.035l-.933.538.933.539.932-.539Z" fill="#969a9e"/><path d="M70.907,119.424l-.932.538.932.539.933-.539Z" fill="#969a9e"/><path d="M69.551,124.256l-.933.538.933.539.932-.539Z" fill="#969a9e"/><path d="M70.907,122.646l-.932.538.932.539.933-.539Z" fill="#969a9e"/><path d="M69.551,127.478l-.933.538.933.539.932-.539Z" fill="#969a9e"/><path d="M70.907,125.867l-.932.538.932.539.933-.539Z" fill="#969a9e"/><path d="M70.483,131.238l-.932-.538-.933.538.933.538Z" fill="#969a9e"/><path d="M70.907,129.089l-.932.538.932.539.933-.539Z" fill="#969a9e"/><path d="M70.483,134.459l-.932-.538-.933.538.933.538Z" fill="#969a9e"/><path d="M70.907,132.31l-.932.538.932.539.933-.539Z" fill="#969a9e"/><path d="M69.551,137.142l-.933.538.3.171q.672-.146,1.337-.3Z" fill="#969a9e"/><path d="M71.84,136.07l-.933-.538-.932.538.932.538Z" fill="#969a9e"/><path d="M66.08,111.808l-.174.1.932.538.23-.132c-.211-.105-.423-.2-.631-.313-.118-.062-.236-.129-.357-.194" fill="#969a9e"/><path d="M65.906,115.13l.933.538.932-.538-.932-.538Z" fill="#969a9e"/><path d="M67.262,113.52l.932.538.933-.538-.933-.538Z" fill="#969a9e"/><path d="M66.838,117.814l-.933.538.933.539.932-.539Z" fill="#969a9e"/><path d="M68.194,116.2l-.932.538.932.539.933-.539Z" fill="#969a9e"/><path d="M65.906,121.573l.933.538.932-.538-.932-.538Z" fill="#969a9e"/><path d="M67.262,119.963l.932.538.933-.538-.933-.538Z" fill="#969a9e"/><path d="M65.906,124.795l.933.538.932-.538-.932-.538Z" fill="#969a9e"/><path d="M68.194,122.646l-.583.337c.177.13.355.26.528.394l-.29.147.345.2.933-.539Z" fill="#969a9e"/><path d="M67.771,128.016l-.932-.538-.933.538.933.538Z" fill="#969a9e"/><path d="M69.127,126.406l-.933-.538-.932.538.932.538Z" fill="#969a9e"/><path d="M67.771,131.238l-.932-.538-.933.538.933.538Z" fill="#969a9e"/><path d="M69.127,129.627l-.933-.538-.932.538.932.538Z" fill="#969a9e"/><path d="M67.771,134.459l-.932-.538-.933.538.933.538Z" fill="#969a9e"/><path d="M69.127,132.849l-.933-.538-.932.538.932.538Z" fill="#969a9e"/><path d="M66.838,138.219l.932-.538-.932-.539-.933.539Z" fill="#969a9e"/><path d="M68.194,136.608l.933-.538-.933-.539-.932.539Z" fill="#969a9e"/><path d="M64.549,107.077l.049.028c.49-.074.979-.152,1.468-.229l-.584-.337Z" fill="#969a9e"/><path d="M63.193,111.909l.932.538.933-.538-.933-.538Z" fill="#969a9e"/><path d="M63.193,115.13l.932.538.933-.538-.933-.538Z" fill="#969a9e"/><path d="M65.482,112.981l-.933.538.933.539.933-.539Z" fill="#969a9e"/><path d="M64.125,117.814l-.932.538.932.539.933-.539Z" fill="#969a9e"/><path d="M64.549,116.741l.933.538.932-.538-.932-.538Z" fill="#969a9e"/><path d="M65.482,119.424l-.933.538.933.539.933-.539Z" fill="#969a9e"/><path d="M64.125,125.333l.044-.026-.049.023Z" fill="#969a9e"/><path d="M65.058,128.016l-.933-.538-.932.538.932.538Z" fill="#969a9e"/><path d="M66.414,126.406l-.933-.538-.932.538.932.538Z" fill="#969a9e"/><path d="M65.058,131.238l-.933-.538-.932.538.932.538Z" fill="#969a9e"/><path d="M66.414,129.627l-.933-.538-.932.538.932.538Z" fill="#969a9e"/><path d="M65.058,134.459l-.933-.538-.932.538.932.538Z" fill="#969a9e"/><path d="M66.414,132.849l-.933-.538-.932.538.932.538Z" fill="#969a9e"/><path d="M65.058,137.681l-.933-.538-.932.538.932.538Z" fill="#969a9e"/><path d="M66.414,136.07l-.933-.538-.932.538.932.538Z" fill="#969a9e"/><path d="M63.323,107.295l.378-.219-.932-.538-.933.538.605.349c.294-.042.588-.086.882-.13" fill="#969a9e"/><path d="M61.412,112.447l.933-.538-.933-.539-.932.539Z" fill="#969a9e"/><path d="M62.769,110.837l.575-.332a11.167,11.167,0,0,0-1.2-.386l-.311.18Z" fill="#969a9e"/><path d="M61.412,115.669l.933-.538-.933-.539-.932.539Z" fill="#969a9e"/><path d="M62.769,114.058l.932-.538-.932-.539-.933.539Z" fill="#969a9e"/><path d="M61.412,118.89l.933-.538-.933-.539-.932.539Z" fill="#969a9e"/><path d="M62.769,117.28l.932-.538-.932-.539-.933.539Z" fill="#969a9e"/><path d="M63.259,120.218l.443-.256-.933-.538-.477.276c.324.168.646.342.967.518" fill="#969a9e"/><path d="M62.345,128.016l-.933-.538-.932.538.932.538Z" fill="#969a9e"/><path d="M63.7,126.406l-.893-.515c-.081.033-.164.064-.246.1l-.726.419.933.538Z" fill="#969a9e"/><path d="M62.345,131.238l-.933-.538-.932.538.932.538Z" fill="#969a9e"/><path d="M63.7,129.627l-.932-.538-.933.538.933.538Z" fill="#969a9e"/><path d="M62.345,134.459l-.933-.538-.932.538.932.538Z" fill="#969a9e"/><path d="M63.7,132.849l-.932-.538-.933.538.933.538Z" fill="#969a9e"/><path d="M62.345,137.681l-.933-.538-.932.538.932.538Z" fill="#969a9e"/><path d="M62.769,135.532l-.933.538.933.539.932-.539Z" fill="#969a9e"/><path d="M62.52,138.9c.138-.015.275-.033.412-.049l-.163-.1Z" fill="#969a9e"/><path d="M60.056,107.615l.932-.538-.932-.539-.933.539Z" fill="#969a9e"/><path d="M58.7,112.447l.933-.538-.933-.539-.933.539Z" fill="#969a9e"/><path d="M60.056,110.837l.932-.538-.684-.4a4.291,4.291,0,0,0-.623.074l-.558.322Z" fill="#969a9e"/><path d="M57.767,115.13l.933.538.932-.538-.932-.538Z" fill="#969a9e"/><path d="M60.056,114.058l.932-.538-.932-.539-.933.539Z" fill="#969a9e"/><path d="M59.632,118.352l-.933-.538-.119.068a8.462,8.462,0,0,0,.913.55Z" fill="#969a9e"/><path d="M60.056,116.2l-.933.538.933.539.932-.539Z" fill="#969a9e"/><path d="M59.632,128.016l-.933-.538-.932.538.932.538Z" fill="#969a9e"/><path d="M60.056,126.944l.326-.188c-.142.044-.284.088-.427.13Z" fill="#969a9e"/><path d="M59.632,131.238,58.7,130.7l-.932.538.932.538Z" fill="#969a9e"/><path d="M60.988,129.627l-.932-.538-.933.538.933.538Z" fill="#969a9e"/><path d="M59.632,134.459l-.933-.538-.932.538L58.7,135Z" fill="#969a9e"/><path d="M60.988,132.849l-.932-.538-.933.538.933.538Z" fill="#969a9e"/><path d="M59.632,137.681l-.933-.538-.932.538.932.538Z" fill="#969a9e"/><path d="M60.988,136.07l-.932-.538-.933.538.933.538Z" fill="#969a9e"/><path d="M60.056,138.753l-.707.408q.632-.036,1.264-.087Z" fill="#969a9e"/><path d="M55.987,108.149l-.347.2.567-.073Z" fill="#969a9e"/><path d="M57.343,107.615l.933-.538-.933-.539-.932.539Z" fill="#969a9e"/><path d="M56.584,115.324l.335-.193-.431-.249a3.816,3.816,0,0,0,.1.442" fill="#969a9e"/><path d="M58.276,113.52l-.933-.538-.819.473c-.008.039-.017.078-.024.117l.843.486Z" fill="#969a9e"/><path d="M58.276,116.741l-.933-.538-.28.161a4.767,4.767,0,0,0,.59.737Z" fill="#969a9e"/><path d="M55.987,131.776l.932-.538-.932-.539-.319.184a3.487,3.487,0,0,0-.015.446l-.424.009Z" fill="#969a9e"/><path d="M57.343,130.165l.933-.538-.933-.539-.932.539Z" fill="#969a9e"/><path d="M56.919,134.459l-.932-.538-.933.538.933.538Z" fill="#969a9e"/><path d="M58.276,132.849l-.933-.538-.932.538.932.538Z" fill="#969a9e"/><path d="M56.919,137.681l-.932-.538-.933.538.933.538Z" fill="#969a9e"/><path d="M58.276,136.07l-.933-.538-.932.538.932.538Z" fill="#969a9e"/><path d="M58.15,139.219l-.807-.466-.88.508c.562-.005,1.124-.021,1.687-.042" fill="#969a9e"/><path d="M52.341,108.687l.108.063,1.534-.192-.709-.409Z" fill="#969a9e"/><path d="M54.63,107.615l.933-.538-.933-.539-.932.539Z" fill="#969a9e"/><path d="M53.933,131.4c-.366.021-.761.049-1.175.083l.516.3Z" fill="#969a9e"/><path d="M54.206,134.459l-.932-.538-.933.538.933.538Z" fill="#969a9e"/><path d="M55.563,132.849l-.933-.538-.932.538.932.538Z" fill="#969a9e"/><path d="M54.206,137.681l-.932-.538-.933.538.933.538Z" fill="#969a9e"/><path d="M55.563,136.07l-.933-.538-.932.538.932.538Z" fill="#969a9e"/><path d="M55.512,139.262l-.881-.509-.816.471q.846.031,1.7.038" fill="#969a9e"/><path d="M51.494,108.687l-.933-.538-.932.538.582.336.889-.108Z" fill="#969a9e"/><path d="M50.985,107.077l.933.538.932-.538-.932-.538Z" fill="#969a9e"/><path d="M50.706,131.693l-.236.031.091.053Z" fill="#969a9e"/><path d="M51.494,134.459l-.933-.538-.932.538.932.538Z" fill="#969a9e"/><path d="M52.85,132.849l-.933-.538-.932.538.932.538Z" fill="#969a9e"/><path d="M51.494,137.681l-.933-.538-.932.538.932.538Z" fill="#969a9e"/><path d="M52.85,136.07l-.933-.538-.932.538.932.538Z" fill="#969a9e"/><path d="M51.917,138.753l-.563.325q.639.053,1.283.09Z" fill="#969a9e"/><path d="M46.916,108.687l.932.538.933-.538-.933-.538Z" fill="#969a9e"/><path d="M48.272,107.077l.933.538.932-.538-.932-.538Z" fill="#969a9e"/><path d="M48.781,134.459l-.933-.538-.932.538.932.538Z" fill="#969a9e"/><path d="M48.272,132.849l.933.538.932-.538-.932-.538Z" fill="#969a9e"/><path d="M48.781,137.681l-.933-.538-.932.538.932.538Z" fill="#969a9e"/><path d="M49.2,135.532l-.933.538.933.539.932-.539Z" fill="#969a9e"/><path d="M49.056,138.839l.383.05-.234-.136Z" fill="#969a9e"/><path d="M44.2,108.687l.933.538.932-.538-.932-.538Z" fill="#969a9e"/><path d="M45.559,107.077l.933.538.932-.538-.932-.538Z" fill="#969a9e"/><path d="M46.068,134.459l-.933-.538-.932.538.932.538Z" fill="#969a9e"/><path d="M47.424,132.849l-.691-.4c-.367.1-.721.212-1.057.332l-.117.067.933.538Z" fill="#969a9e"/><path d="M45.135,137.142l-.933.538.826.477.158.032.882-.509Z" fill="#969a9e"/><path d="M47.424,136.07l-.932-.538-.933.538.933.538Z" fill="#969a9e"/><path d="M42.423,108.149l-.933.538.933.539.932-.539Z" fill="#969a9e"/><path d="M42.847,107.077l.932.538.933-.538-.933-.538Z" fill="#969a9e"/><path d="M43.779,109.76l-.079.046.131-.016Z" fill="#969a9e"/><path d="M43.108,134.316a2.21,2.21,0,0,0-.294.456l.541-.313Z" fill="#969a9e"/><path d="M43.779,136.608l.933-.538-.933-.539-.932.539Z" fill="#969a9e"/><path d="M40.333,107.192l.733.423.933-.538-.933-.538-.752.434c.005.073.01.146.019.219" fill="#969a9e"/><path d="M21.55,73.494a9.694,9.694,0,0,1-4.387-7.6c0-2.8,1.962-3.934,4.387-2.535a9.7,9.7,0,0,1,4.387,7.6c0,2.8-1.963,3.934-4.387,2.535M40.883,105.3s.008,0,.013-.008c.962-.615,1.568-1.95,1.568-3.824V66.945c0-3.531-2.145-7.63-4.79-9.16L5.43,39.173a3.1,3.1,0,0,0-3.073-.289l-.064.034C1.276,39.5.636,40.864.636,42.793V77.322c0,3.526,2.145,7.625,4.794,9.156l32.244,18.616a3.058,3.058,0,0,0,3.133.25Z" fill="#fff"/><path d="M58.1,95.362c1.013-.585,1.653-1.946,1.653-3.878V56.959c0-3.531-2.145-7.63-4.79-9.156L44.821,41.945v8.066a1.715,1.715,0,0,1-1,1.407,5.385,5.385,0,0,1-4.87,0,1.712,1.712,0,0,1-1.009-1.407V37.969L22.724,29.186a4.423,4.423,0,0,0-1.153-.479v7.88h-.009a1.727,1.727,0,0,1-1,1.348,5.385,5.385,0,0,1-4.87,0,1.73,1.73,0,0,1-1-1.348h-.009V31.763L2.356,38.884a3.1,3.1,0,0,1,3.074.289L37.674,57.785c2.645,1.53,4.79,5.629,4.79,9.16V101.47c0,1.874-.606,3.209-1.568,3.823Z" fill="#969a9e"/><path d="M17.163,65.894a9.7,9.7,0,0,0,4.387,7.6c2.425,1.4,4.387.263,4.387-2.535a9.7,9.7,0,0,0-4.387-7.6c-2.424-1.4-4.387-.263-4.387,2.535" fill="#373a3a"/><path d="M44.821,50.011V25.8c0-8.643-5.862-18.8-13.344-23.119-4.158-2.4-8.409-2.7-11.665-.813s-5.125,5.709-5.125,10.508V36.587H14.7a1.734,1.734,0,0,0,1,1.348,5.391,5.391,0,0,0,4.87,0,1.732,1.732,0,0,0,1-1.348h.008V12.371c0-2.239.632-3.938,1.683-4.544s2.84-.306,4.777.813c5.371,3.1,9.906,10.953,9.906,17.155V50.011a1.712,1.712,0,0,0,1.009,1.407,5.385,5.385,0,0,0,4.87,0,1.715,1.715,0,0,0,1-1.407" fill="#fff"/><path d="M40.9,105.929a.636.636,0,0,1-.342-1.172c.81-.518,1.274-1.716,1.274-3.287V66.945c0-3.321-2.006-7.183-4.472-8.61L5.112,39.723a2.488,2.488,0,0,0-2.453-.28.636.636,0,1,1-.605-1.118,3.725,3.725,0,0,1,3.693.3L37.992,57.234c2.865,1.658,5.108,5.923,5.108,9.711V101.47c0,2.044-.661,3.592-1.862,4.359a.632.632,0,0,1-.342.1" fill="#373a3a"/><path d="M39.578,106.3a4.49,4.49,0,0,1-2.221-.659L5.112,87.028C2.246,85.372,0,81.108,0,77.321V42.792c0-2.09.72-3.7,1.976-4.425a.636.636,0,0,1,.635,1.1c-.851.489-1.339,1.7-1.339,3.323V77.321c0,3.32,2.008,7.18,4.476,8.606l32.245,18.617a2.519,2.519,0,0,0,2.495.25.636.636,0,0,1,.638,1.1,3.044,3.044,0,0,1-1.548.41" fill="#373a3a"/><path d="M23.511,74.731a4.615,4.615,0,0,1-2.279-.687,10.258,10.258,0,0,1-4.7-8.151,3.679,3.679,0,0,1,1.6-3.391,3.68,3.68,0,0,1,3.738.306,10.26,10.26,0,0,1,4.7,8.151,3.682,3.682,0,0,1-1.6,3.392,2.877,2.877,0,0,1-1.459.38M19.594,63.394a1.625,1.625,0,0,0-.828.209,2.494,2.494,0,0,0-.967,2.29,9,9,0,0,0,4.069,7.049,2.494,2.494,0,0,0,2.466.308,2.5,2.5,0,0,0,.967-2.291,9.006,9.006,0,0,0-4.069-7.05,3.364,3.364,0,0,0-1.638-.515" fill="#373a3a"/><path d="M21.55,82.255a.636.636,0,0,1-.636-.636V73.493a.636.636,0,0,1,1.272,0v8.126a.636.636,0,0,1-.636.636" fill="#373a3a"/><path d="M40.807,105.98a.636.636,0,0,1-.311-1.19l.058-.033.024-.014,17.209-9.932c.849-.49,1.335-1.7,1.335-3.328V56.958c0-3.322-2.006-7.182-4.471-8.6L44.5,42.495a.636.636,0,1,1,.636-1.1l10.147,5.858c2.864,1.652,5.108,5.916,5.108,9.706V91.483c0,2.092-.718,3.706-1.97,4.429L41.117,105.9a.633.633,0,0,1-.31.081" fill="#373a3a"/><path d="M37.937,38.6a.639.639,0,0,1-.317-.085L22.406,29.737a3.79,3.79,0,0,0-.984-.412.636.636,0,1,1,.3-1.236,5.068,5.068,0,0,1,1.321.546l15.214,8.783a.636.636,0,0,1-.318,1.187" fill="#373a3a"/><path d="M2.293,39.554a.636.636,0,0,1-.318-1.187l12.394-7.155a.636.636,0,0,1,.636,1.1L2.61,39.469a.629.629,0,0,1-.317.085" fill="#373a3a"/><path d="M41.379,52.636a5.6,5.6,0,0,1-2.751-.667A2.318,2.318,0,0,1,37.3,50.011V25.794c0-6-4.39-13.605-9.588-16.6-1.713-.99-3.3-1.3-4.141-.814s-1.365,2.016-1.365,3.993V36.586a.607.607,0,0,1-.021.161,2.4,2.4,0,0,1-1.307,1.739,6.007,6.007,0,0,1-5.5,0,2.4,2.4,0,0,1-1.3-1.742.62.62,0,0,1-.02-.157V12.37c0-5.03,1.984-9.061,5.443-11.058s7.94-1.7,12.3.813c7.661,4.423,13.662,14.82,13.662,23.669V50.011a2.314,2.314,0,0,1-1.321,1.956,5.623,5.623,0,0,1-2.757.669M24.564,6.879A7.861,7.861,0,0,1,28.349,8.09c5.542,3.2,10.224,11.305,10.224,17.7V50.011c0,.29.252.6.691.857a4.767,4.767,0,0,0,4.235,0c.435-.253.686-.566.686-.856V25.794c0-8.437-5.722-18.35-13.026-22.567C27.2.944,23.184.648,20.13,2.413s-4.807,5.393-4.807,9.957V36.482a.547.547,0,0,1,.008.072c.015.29.256.585.68.83a4.766,4.766,0,0,0,4.233,0c.426-.245.669-.54.683-.83,0-.025,0-.049.008-.073V12.37c0-2.5.73-4.361,2-5.094a3.212,3.212,0,0,1,1.628-.4" fill="#373a3a"/><path d="M23.876,87.1c2.849.816,5.2-.119,6.4-2.451a7.529,7.529,0,0,1-1.664-.282Z" fill="#969a9e"/><path d="M30.865,83.067l23.17,13.378,4.737-2.735L35.6,80.332Z" fill="#5f646b"/><path d="M42.45,136.248c5.952.265,10.791.255,14-1.6l.194-.112c2.66-1.632,4.144-4.6,4.144-9.853l.238-16.127a22.571,22.571,0,0,1-6.991-12.11L30.865,83.067a7.106,7.106,0,0,1-.588,1.586c-1.2,2.332-3.552,3.268-6.4,2.451l.238,16.405c0,11.585,7.239,20.425,18.336,32.739" fill="#fff"/><path d="M54.035,96.445a22.564,22.564,0,0,0,6.991,12.11l4.737-2.736A22.577,22.577,0,0,1,58.772,93.71Z" fill="#373a3a"/><path d="M56.644,134.535l4.543-2.621c2.779-1.606,4.338-4.589,4.338-9.967l.238-16.128-4.737,2.735-.238,16.128c0,5.252-1.484,8.221-4.144,9.853" fill="#373a3a"/><path d="M47.093,137.011c-1.488,0-3.052-.056-4.671-.129a.631.631,0,0,1-.444-.209c-11.175-12.4-18.5-21.407-18.5-33.164l-.238-16.4a.636.636,0,0,1,.811-.62c2.522.722,4.587-.055,5.662-2.132a6.575,6.575,0,0,0,.534-1.446.635.635,0,0,1,.936-.4l23.17,13.378a.629.629,0,0,1,.306.429,21.8,21.8,0,0,0,6.785,11.751.641.641,0,0,1,.219.49l-.239,16.127c0,5.221-1.413,8.523-4.447,10.386a.633.633,0,0,1-.118.056.594.594,0,0,1-.091.064c-2.488,1.439-5.828,1.814-9.675,1.814m-4.349-1.387c5.3.23,10.291.263,13.388-1.528a.687.687,0,0,1,.1-.048.713.713,0,0,1,.077-.055c2.62-1.608,3.84-4.567,3.84-9.311l.235-15.845a23.22,23.22,0,0,1-6.919-11.986L31.243,84.019a7.537,7.537,0,0,1-.4.926,5.586,5.586,0,0,1-6.319,2.963L24.75,103.5c0,11.251,7.118,20.047,17.994,32.125" fill="#373a3a"/><path d="M56.45,135.283a.636.636,0,0,1-.319-1.186l4.738-2.733c2.743-1.585,4.021-4.578,4.021-9.417l.233-15.845a23.237,23.237,0,0,1-6.917-11.986L35.6,81.066l-4.419,2.551a.636.636,0,1,1-.636-1.1l4.737-2.735a.639.639,0,0,1,.636,0L59.09,93.159a.631.631,0,0,1,.306.429,21.815,21.815,0,0,0,6.785,11.752.633.633,0,0,1,.218.489l-.238,16.127c0,5.331-1.479,8.673-4.656,10.509L56.768,135.2a.632.632,0,0,1-.318.085" fill="#373a3a"/><path d="M23.876,87.74a.635.635,0,0,1-.318-1.186L28.3,83.821a.634.634,0,0,1,.491-.061,6.937,6.937,0,0,0,1.523.258.636.636,0,0,1-.064,1.27,8.048,8.048,0,0,1-1.542-.234l-4.51,2.6a.629.629,0,0,1-.317.085" fill="#373a3a"/><path d="M54.035,97.08a.636.636,0,0,1-.318-1.186l4.737-2.736a.636.636,0,0,1,.636,1.1L54.353,97a.632.632,0,0,1-.318.085" fill="#373a3a"/><path d="M61.027,109.19A.636.636,0,0,1,60.709,108l4.736-2.736a.636.636,0,1,1,.636,1.1l-4.736,2.736a.635.635,0,0,1-.318.085" fill="#373a3a"/><path d="M33.792,109.175l4.893,5.363,8.976-14.6,2.924,3.207L38.5,122.813l-7.818-8.568Z" fill="#008140"/><path d="M38.205,122.83l-7.817-8.568a1.085,1.085,0,0,1-.26-.526.727.727,0,0,1,.07-.5l3.114-5.07c.167-.271.522-.25.793.048l4.4,4.824L47.18,98.925c.167-.272.523-.25.794.047L50.9,102.18a.933.933,0,0,1,.189,1.03L39,122.877a.4.4,0,0,1-.507.156.765.765,0,0,1-.286-.2m9.656-22.336L39.187,114.6c-.167.272-.522.25-.793-.047l-4.4-4.824-2.51,4.086,6.835,7.491L49.8,102.624Z" fill="#373a3a"/></g></g><rect width="92" height="140" transform="translate(549 660)" fill="none"/></g></svg>