<?xml version="1.0" encoding="UTF-8"?>
<svg id="Layer_1" xmlns="http://www.w3.org/2000/svg" version="1.1" viewBox="0 0 198.7 55">
  <!-- Generator: Adobe Illustrator 29.3.1, SVG Export Plug-In . SVG Version: 2.1.0 Build 151)  -->
  <defs>
    <style>
      .st0 {
        fill: #1c324b;
      }

      .st1 {
        fill: #65ad77;
      }

      .st2 {
        fill: #464646;
      }
    </style>
  </defs>
  <g>
    <path class="st0" d="M15.8,41.7c-3.6-.1-7.1-1.1-10.4-2.7l5.3-.9s-5.4-1-4.9-3.8c0,0,4.2,1.9,4.6.6,0,0-11-1.4-8.8-8.7,0,0,7.8,3.7,8,2.2,0,0-13.1-3.4-8.6-12.2l16.8,9.9s1.6.9-.5,3.5c-1.6,2-.5,3.2-.5,3.2,0,0,4.1-7.4,4.6-8.3s1.8-3.3,4.4-3c1.6.1,2.9,1.5,2.9,3.2.5.4,1.1.7,1.6,1.1,0,0-4.4.2-3.8,6.1.2,2.3-2.1,9.8-10.7,9.8h0ZM25.5,23.5c-.2.2-.3.5-.2.8.1.3.4.4.7.4.2,0,.4,0,.5-.2.3-.3.3-.8,0-1,0,0-.1-.1-.2-.1-.3-.1-.6,0-.8.2h0ZM5.9,17.4c-3.9-4-.5-7.2-.5-7.2.8.9,11.4,12.1,12.2,12.9.4.5.5,1.2.3,1.8l-12-7.5Z"/>
    <path class="st1" d="M36.2,34s-1.3-.2-1.3-.2h-.2s1.8-.8,1.8-.8l-.3,1h0ZM29.2,32.7l-.9-1.9,1.6-4.3c.5-.2,1-.3,1.5-.4,0,0-.6-.4-1.1-.7l.9-2.5,2.6-1,4.7.7h0,0l.9,1.9-2.7,8-2.7,1.1-4.9-.9ZM33.7,25.5c-.6.2-1.1.6-1.4,1.1-.6.8-.5,2,.3,2.7,0,0,.2.1.3.2.1,0,.3.1.5.2,1,.2,2-.2,2.6-1,.4-.5.6-1.2.4-1.9-.1-.6-.5-1-1-1.3-.5-.2-1.1-.2-1.7,0h0ZM27.6,32.4l.4-1.1h0l.7,1.3-1.1-.2ZM39.6,24.1l-.7-1.3h.1c.3,0,.6.1.9.2l-.4,1.1h0ZM31.7,21.7s.5,0,1.4.2l-1.7.7s.4-.9.3-.9Z"/>
    <path class="st1" d="M33,29.1c-.4-.3-.6-.7-.7-1.2,0-.5.2-1,.5-1.3.3-.4.8-.6,1.2-.8.3,0,.7,0,1,0,.1,0,.2,0,.3.2.4.3.6.7.6,1.2,0,.5-.1,1-.4,1.3-.4.6-1.1.9-1.8.8-.3,0-.5-.1-.8-.3ZM34.2,28.3c.2,0,.4,0,.6,0,.1,0,.2-.2.3-.3h.2c0,0,0,0,0,0h-.2c0-.1,0-.2,0-.3,0,0,0-.2,0-.3,0,0,0-.1-.1-.2,0,0-.1,0-.2-.1-.1,0-.2,0-.4,0-.2,0-.3.2-.4.3h0c0,0-.5-.1-.5-.1,0,0,.1-.1.2-.2,0,0,.2,0,.2,0l.2-.4c-.2,0-.4,0-.6,0-.1.1-.2.2-.3.4h-.2c0,0,0,0,0,0h.3c0,.2,0,.4,0,.5,0,.2.1.4.3.4.2,0,.3,0,.5,0,.2-.1.3-.2.4-.4l.5.2c0,0-.1.1-.2.2,0,0-.1,0-.2,0l-.2.4ZM33.6,27.7c0,0-.1,0-.2-.2h0c0,0,0-.1,0-.2l.5.2c0,0-.1,0-.2.1,0,0-.1,0-.2,0,0,0,0,0,0,0h0ZM34.4,27.5s0,0,.1-.1c0,0,.1,0,.2,0h0c0,0,.1,0,.1.1,0,0,0,.1,0,.2l-.4-.2Z"/>
  </g>
  <path class="st2" d="M189.5,15.5c0-2.5,2-4.5,4.5-4.5s4.5,2,4.5,4.5-2,4.5-4.5,4.5h0c-2.5,0-4.5-2-4.5-4.5ZM190.6,15.5c0,1.9,1.5,3.4,3.4,3.4s3.4-1.5,3.4-3.4-1.5-3.4-3.4-3.4h0c-1.9,0-3.4,1.5-3.4,3.4ZM195,17.8l-.9-1.6h-.8v1.6h-.9v-4.5h1.8c.3,0,.6,0,.8.2.2.1.4.3.5.5.1.2.2.5.2.7h0c0,.3,0,.6-.2.8-.1.2-.3.4-.5.5l1,1.8h-1ZM193.3,15.4h.9c.2,0,.4,0,.5-.2.1-.1.2-.3.2-.5h0c0-.2,0-.4-.2-.5-.1-.1-.3-.2-.5-.2h-.8v1.3Z"/>
  <g>
    <path class="st0" d="M45.9,14.3h4.8v22.2h10.8v4h-15.6V14.3Z"/>
    <path class="st0" d="M62.8,30.7c0-6.6,4.5-10.4,9.4-10.4s9.4,3.8,9.4,10.4-4.5,10.3-9.4,10.3-9.4-3.8-9.4-10.3ZM76.7,30.7c0-3.9-1.7-6.5-4.5-6.5s-4.5,2.6-4.5,6.5,1.7,6.4,4.5,6.4,4.5-2.6,4.5-6.4Z"/>
    <path class="st0" d="M83.8,30.7c0-6.6,4.6-10.4,9.9-10.4s4.3.9,5.8,2.2l-2.3,3c-1-.9-2-1.3-3.2-1.3-3.1,0-5.3,2.6-5.3,6.5s2.1,6.4,5.1,6.4,2.9-.6,4-1.6l1.9,3c-1.9,1.6-4.2,2.4-6.4,2.4-5.4,0-9.5-3.8-9.5-10.3Z"/>
    <path class="st0" d="M101.2,35.2c0-4.3,3.4-6.5,11.5-7.4,0-2-.9-3.7-3.5-3.7s-3.8.8-5.5,1.8l-1.7-3.1c2.2-1.4,5-2.6,8.1-2.6,4.9,0,7.4,3,7.4,8.5v11.6h-3.8l-.4-2.2h-.2c-1.8,1.5-3.7,2.6-6,2.6-3.4,0-5.8-2.3-5.8-5.8ZM112.7,35.2v-4.2c-5.4.6-7,1.8-7,3.8s1.1,2.3,2.7,2.3,2.8-.6,4.2-2Z"/>
    <path class="st0" d="M121.9,35.3V12.3h4.8v23.3c0,1.2.5,1.6,1,1.6s.4,0,.7,0l.6,3.5c-.6.3-1.4.4-2.5.4-3.3,0-4.6-2.2-4.6-5.6Z"/>
    <path class="st0" d="M132.3,14.3h8.3c5.8,0,10.2,2,10.2,8.1s-4.4,8.5-10,8.5h-3.7v9.6h-4.8V14.3ZM140.3,27.1c3.8,0,5.6-1.5,5.6-4.7s-2-4.3-5.8-4.3h-3.2v9h3.3Z"/>
    <path class="st0" d="M151.6,35.2c0-4.3,3.4-6.5,11.5-7.4,0-2-.9-3.7-3.5-3.7s-3.8.8-5.5,1.8l-1.7-3.1c2.2-1.4,5-2.6,8.1-2.6,4.9,0,7.4,3,7.4,8.5v11.6h-3.8l-.4-2.2h-.2c-1.8,1.5-3.7,2.6-6,2.6-3.4,0-5.8-2.3-5.8-5.8ZM163.1,35.2v-4.2c-5.4.6-7,1.8-7,3.8s1.1,2.3,2.7,2.3,2.8-.6,4.2-2Z"/>
    <path class="st0" d="M171.1,48.1l.9-3.6c.6.2.9.2,1.4.2,2,0,3.2-1.4,3.9-3.3l.4-1.2-7.7-19.4h4.8l3.3,9.6c.6,1.7,1.2,3.7,1.7,5.6h.2c.5-1.8,1-3.8,1.5-5.6l2.9-9.6h4.6l-7.1,20.5c-1.6,4.5-3.7,7.2-8,7.2s-1.8-.2-2.6-.4Z"/>
  </g>
</svg>