<svg xmlns="http://www.w3.org/2000/svg" viewBox="0 0 45 45"><defs><style>.a{fill:#009ace;}.b{fill:#fff;}</style></defs><g transform="translate(-291 -4744)"><circle class="a" cx="22.5" cy="22.5" r="22.5" transform="translate(291 4744)"/><path class="b" d="M13,26.5A1.538,1.538,0,0,0,14.5,28h4A1.538,1.538,0,0,0,20,26.5V20.3a.215.215,0,0,1,.2-.2h6.2a1.538,1.538,0,0,0,1.5-1.5v-4a1.538,1.538,0,0,0-1.5-1.5H20.2a.215.215,0,0,1-.2-.2V6.5A1.538,1.538,0,0,0,18.5,5h-4A1.538,1.538,0,0,0,13,6.5v6.2a.215.215,0,0,1-.2.2H6.5A1.708,1.708,0,0,0,5,14.5v4A1.538,1.538,0,0,0,6.5,20h6.2a.215.215,0,0,1,.2.2v6.3Z" transform="translate(297 4750)"/></g></svg>