<svg xmlns="http://www.w3.org/2000/svg" viewBox="0 0 45 45"><title>img-linkedin</title><circle cx="22.5" cy="22.5" r="22.5" style="fill:#009ace"/><path d="M17.07,32.86H12.34V17.62h4.73V32.86Zm7.91,0H20.11V17.63h4.57v2.14a4.09,4.09,0,0,1,1.54-1.67,6.24,6.24,0,0,1,2.89-.76h.48a5,5,0,0,1,4.07,2.09,7.26,7.26,0,0,1,1.27,4.13,7.45,7.45,0,0,1-.06.93v8.32H30.15V25a8.46,8.46,0,0,0-.33-2.35v.06a2,2,0,0,0-1.88-1.37h-.26a2.7,2.7,0,0,0-2.22,1.22,5.67,5.67,0,0,0-.48,2.3v8ZM14.77,15.45h0a3.21,3.21,0,0,1-2-.77,2.7,2.7,0,0,1,0-3.77,2.44,2.44,0,0,1,1.9-.91h.17a2.88,2.88,0,0,1,1.94.75,2.71,2.71,0,0,1,0,3.79h0A2.7,2.7,0,0,1,14.77,15.45Z" style="fill:#fff"/></svg>