<svg xmlns="http://www.w3.org/2000/svg" viewBox="0 0 120 60"><title>logo-VIG</title><rect width="120" height="60" style="fill:none"/><g style="isolation:isolate"><g style="isolation:isolate"><path d="M47.48,20.34a2.25,2.25,0,0,0,.15-.76.85.85,0,0,0-.53-.8,5.76,5.76,0,0,0-1.71-.42q-.46,0-.46-.65a1.39,1.39,0,0,1,0-.34,1.09,1.09,0,0,1,0-.27l.49,0,1,.08,1.27.06,1.29,0q1.25,0,2.3-.08t1.23-.11a1.11,1.11,0,0,0,0,.27,1,1,0,0,0,0,.21.88.88,0,0,1,0,.17q0,.61-.42.68a4.58,4.58,0,0,0-1.79.38,2,2,0,0,0-.87,1L40.22,42.42l-.17,0-.17,0q-.42,0-.68-.65L30.27,19.66a1.55,1.55,0,0,0-.76-.8,6.84,6.84,0,0,0-1.9-.46c-.28,0-.42-.25-.42-.68a2.47,2.47,0,0,1,.08-.61l2.47.13q1.33.06,2.32.06t2.32-.06l2.55-.13a3.3,3.3,0,0,1,.08.61q0,.57-.46.65-2.24.23-2.24,1.22a1.54,1.54,0,0,0,.08.49L40.83,36.6Z" style="fill:#cbcbcb"/><path d="M61.47,39.34a1.08,1.08,0,0,0,.53,1A8.34,8.34,0,0,0,64,41c.25.05.38.25.38.61a3.26,3.26,0,0,1-.08.61l-2.36-.13Q60.74,42,59.68,42t-2.26.06l-2.34.13a3.22,3.22,0,0,1-.08-.61c0-.35.13-.56.38-.61a7,7,0,0,0,2-.57,1.12,1.12,0,0,0,.53-1.06V20a1.17,1.17,0,0,0-.53-1.08,6,6,0,0,0-2-.55.36.36,0,0,1-.3-.23,1.1,1.1,0,0,1-.08-.42,3.22,3.22,0,0,1,.08-.61l2.38.13q1.23.06,2.22.06t2.19-.06l2.41-.13a3.26,3.26,0,0,1,.08.61q0,.57-.38.65a6,6,0,0,0-2,.55A1.16,1.16,0,0,0,61.47,20Z" style="fill:#cbcbcb"/><path d="M88.75,41.81q-1.71.3-3.5.48t-4.18.17a14.92,14.92,0,0,1-5.68-1,11.18,11.18,0,0,1-4-2.7,10.9,10.9,0,0,1-2.37-4,15.94,15.94,0,0,1-.78-5.07A14,14,0,0,1,69,25.09,12.06,12.06,0,0,1,75.34,18a12.68,12.68,0,0,1,5.59-1.16q1.14,0,2.18.06t2.07.21q1,.15,2.07.36t2.26.51q.08,1.33.29,2.75a28.3,28.3,0,0,0,.55,2.79.58.58,0,0,1-.3.11,2.36,2.36,0,0,1-.38,0,.7.7,0,0,1-.76-.49,6.1,6.1,0,0,0-2.32-3.65,8.34,8.34,0,0,0-4.67-1.1,10.54,10.54,0,0,0-4.26.8,8.32,8.32,0,0,0-3,2.18,9.26,9.26,0,0,0-1.8,3.31,13.69,13.69,0,0,0-.61,4.16A14.38,14.38,0,0,0,73,33.72a12,12,0,0,0,2.13,3.8A9.43,9.43,0,0,0,78.32,40a9.23,9.23,0,0,0,4,.87,16.5,16.5,0,0,0,2.22-.15,12.46,12.46,0,0,0,1.88-.38V34.51a1.58,1.58,0,0,0-.61-1.42,5.2,5.2,0,0,0-2.05-.59.5.5,0,0,1-.42-.27,1,1,0,0,1-.11-.46,2.49,2.49,0,0,1,.08-.61q1.1.08,2.43.13t2.32.06q1,0,2.26-.06t2.22-.13a3.27,3.27,0,0,1,.08.61.73.73,0,0,1-.13.51.61.61,0,0,1-.32.17,3.7,3.7,0,0,0-1.69.51A1.32,1.32,0,0,0,90,34.1v6.76a.86.86,0,0,1-.19.57A2,2,0,0,1,88.75,41.81Z" style="fill:#cbcbcb"/></g></g></svg>