<svg xmlns="http://www.w3.org/2000/svg" viewBox="0 0 120 60"><title>logo-delphi</title><g style="opacity:0.5"><rect width="120" height="60" style="fill:none"/><path d="M21.9,26.57a22.43,22.43,0,0,0-5.48-1.72,39.9,39.9,0,0,0-7.49-.57H0V35.43H8.93A38.61,38.61,0,0,0,20,34.14a8.29,8.29,0,0,0,3.17-1.71,3,3,0,0,0,.86-1.14,4.2,4.2,0,0,0,.29-1.43,3.39,3.39,0,0,0-.29-1.29A7.2,7.2,0,0,0,21.9,26.57Zm-2.74,3.28a1.8,1.8,0,0,1-.14.86,1.92,1.92,0,0,1-1,1.14,7.91,7.91,0,0,1-3.46,1.29c-1.59.14-3.46.29-5.76.29H4.9V26.29H9.36a24.92,24.92,0,0,1,7.2,1,5.32,5.32,0,0,1,2,1.14.78.78,0,0,1,.43.71C19,29.43,19.16,29.57,19.16,29.86Z"/><path d="M47.25,33c-.72.14-1.73.29-2.74.43a26.85,26.85,0,0,1-3.31.14,21.4,21.4,0,0,1-7.35-1.14,6,6,0,0,1-2-1.29,1,1,0,0,1-.58-.71H42.93V28.57H31.69c.14,0,.43-.29.72-.57A9.51,9.51,0,0,1,36,26.71a30.66,30.66,0,0,1,5.47-.57,23.4,23.4,0,0,1,5.62.57l.58.14.14-.43.43-1.86-.43-.14A49.4,49.4,0,0,0,41.34,24a32.55,32.55,0,0,0-10.8,1.57,8.42,8.42,0,0,0-3.17,1.86,3,3,0,0,0-.86,1.14A2.33,2.33,0,0,0,26.22,30a5,5,0,0,0,.29,1.43,4.9,4.9,0,0,0,1.87,2,14.39,14.39,0,0,0,5.33,1.86,41.21,41.21,0,0,0,7.78.71A35.23,35.23,0,0,0,48,35.57h.43L48,33.14Z"/><path d="M55.61,24.29h-5V35.43H67v-2H55.61Z"/><path d="M87,26a3.3,3.3,0,0,0-1.73-.86c-1-.29-2.3-.43-3.75-.71s-3-.14-4.61-.14H69.29V35.43H73.9V31.57h3.6a24.69,24.69,0,0,0,6.92-.86,6.46,6.46,0,0,0,2.45-1.14,3.79,3.79,0,0,0,.72-.86,2.63,2.63,0,0,0,.29-1,2.05,2.05,0,0,0-.29-1C87.59,26.43,87.3,26.29,87,26Zm-4.18,1.71c0,.14,0,.14-.14.29s-.29.29-.58.43a5.68,5.68,0,0,1-2,.57,14.94,14.94,0,0,1-2.45.14H73.9V26.29h3.17a18,18,0,0,1,3.89.43,3.36,3.36,0,0,1,1.44.57c.14.14.29.14.29.29a.14.14,0,0,1,.14.14Z"/><path d="M107.18,28.57H94.65V24.29h-4.9V35.43h4.9V30.86h12.53v4.57h4.9V24.29h-4.9Z"/><path d="M115.39,24.29V35.43H120V24.29Z"/></g></svg>