<svg xmlns="http://www.w3.org/2000/svg" viewBox="0 0 120.01 60"><title>logo-siemens</title><g style="opacity:0.5"><rect width="120" height="60" style="fill:none"/><path d="M13,24.58c-.87-.31-1.84-.62-2.61-.83A10.13,10.13,0,0,0,8,23.43,4.35,4.35,0,0,0,5.9,24a1.21,1.21,0,0,0-.77,1.14,1.32,1.32,0,0,0,.39.94,3.45,3.45,0,0,0,1.36.73l3.39,1.77a8.29,8.29,0,0,1,3,2.29,5.33,5.33,0,0,1,1.06,3.23,5.49,5.49,0,0,1-2.23,4.58A8.82,8.82,0,0,1,6.39,40.3a14.57,14.57,0,0,1-2.9-.21,18,18,0,0,1-3.1-.62V35.61a21.67,21.67,0,0,0,3,.83A12.55,12.55,0,0,0,6,36.76a4.21,4.21,0,0,0,2.23-.52A1.35,1.35,0,0,0,9,34.88a1.23,1.23,0,0,0-.29-.83,2.48,2.48,0,0,0-1-.73L4,31.66a9.62,9.62,0,0,1-3-2.5,5.57,5.57,0,0,1-1-3.33,5.22,5.22,0,0,1,2.13-4.27A8.84,8.84,0,0,1,7.64,20a25.55,25.55,0,0,1,2.71.21,21.08,21.08,0,0,1,2.71.52v3.85ZM22.35,40H16.84V20.31h5.52V40ZM40.06,24H31.93v4.37H39v3.23H31.93v4.58h8.32V40H26.61V20.31H40.06ZM65.71,40H60.58V27.08L55.26,40.19H52.06L47,27.08v13H43.35V20.31H50l4.55,12,4.84-12h6.39L65.71,40ZM83.52,24H75.39v4.37h7.07v3.23H75.39v4.58h8.32V40H70V20.31H83.42V24Zm19.26,16H97L90.39,27.39V40H86.71V20.31h6L99.1,32.7V20.31h3.68V40Zm15.77-15.4c-.87-.31-1.84-.62-2.61-.83a10.13,10.13,0,0,0-2.32-.31,4.08,4.08,0,0,0-2.13.52,1.48,1.48,0,0,0-.77,1.24,1.32,1.32,0,0,0,.39.94,2.81,2.81,0,0,0,1.45.73l3.39,1.77a7.46,7.46,0,0,1,3,2.39A5.41,5.41,0,0,1,120,34.36a5.11,5.11,0,0,1-2.23,4.37A9.1,9.1,0,0,1,112,40.4a14.57,14.57,0,0,1-2.9-.21,18,18,0,0,1-3.1-.62v-4a21.67,21.67,0,0,0,3,.83,12.55,12.55,0,0,0,2.61.31,4.21,4.21,0,0,0,2.23-.52,1.48,1.48,0,0,0,.77-1.25,1.53,1.53,0,0,0-.29-.94,2.48,2.48,0,0,0-1-.73l-3.68-1.66a7.18,7.18,0,0,1-3.1-2.39,6.06,6.06,0,0,1-1-3.33,5.13,5.13,0,0,1,2-4.27A9.56,9.56,0,0,1,113.13,20a25.84,25.84,0,0,1,2.61.21,24.85,24.85,0,0,1,2.71.52v3.85Z" transform="translate(0)" style="fill:#6b6b6b"/></g></svg>