<svg xmlns="http://www.w3.org/2000/svg" viewBox="0 0 120 60"><title>logo-pepsico</title><g style="opacity:0.5"><rect width="120" height="60" style="fill:none"/><path d="M34.1,33.4h2.5c1,0,1.4.3,1.4,1.2s-.4,1.1-1.4,1.1H34.1Zm-3.9,8.5h3.9V38.5h4.2c2.8,0,3.8-1.6,3.8-3.8,0-2.5-1-3.8-3.8-3.8H30.2Z" style="fill:#424242"/><path d="M43.4,30.8H54v2.7H47.4V35h6.2v2.7H47.4v1.5H54v2.7H43.4Z" style="fill:#424242"/><path d="M59.5,33.4H62c1,0,1.4.3,1.4,1.2S63,35.7,62,35.7H59.5Zm-3.9,8.5h3.9V38.5h4.2c2.8,0,3.8-1.6,3.8-3.8,0-2.5-1-3.8-3.8-3.8H55.6Z" style="fill:#424242"/><path d="M71.3,37.2a3,3,0,0,1-2.7-3.1c0-2.9,2.5-3.6,5.7-3.6,4.4,0,6.2,1.3,6.4,3.6H76.1a1,1,0,0,0-.6-.9,2.34,2.34,0,0,0-1.2-.2c-1.2,0-1.6.3-1.6.8,0,.3.1.5.5.6l4.7.8c2,.3,3.2,1.3,3.2,3.2,0,2.7-2,4-6.4,4-3,0-6.3-.5-6.3-3.7h4.7a.81.81,0,0,0,.4.8,2.36,2.36,0,0,0,1.3.2c1.2,0,1.6-.4,1.6-.9,0-.3-.2-.6-.7-.7Z" style="fill:#424242"/><path d="M82.4,30.8h3.9v11H82.4Z" style="fill:#424242"/><path d="M100.9,37.6A5.29,5.29,0,0,1,99.2,41a7.57,7.57,0,0,1-4.9,1.3c-2.4,0-6.8-.2-6.8-5.9s4.4-5.9,6.8-5.9,6,.3,6.5,4.7H96.4a2,2,0,0,0-2.1-1.9c-1.6,0-2.6.9-2.6,3.1s1,3.1,2.4,3.1a2.18,2.18,0,0,0,2.3-1.9Z" style="fill:#424242"/><path d="M106,36.4c0-2.2,1-3.1,2.6-3.1s2.6.9,2.6,3.1-1,3.1-2.6,3.1S106,38.6,106,36.4Zm-4.1,0c0,5.7,4.4,5.9,6.8,5.9s6.8-.2,6.8-5.9-4.4-5.9-6.8-5.9S101.9,30.6,101.9,36.4Z" style="fill:#424242"/><path d="M24.2,30.9c.3-5.3-4.3-11.3-10.5-12v-.1c6.1,0,10.9,5.7,10.9,10.2a7.75,7.75,0,0,1-.2,1.9Zm-.3.7a10.61,10.61,0,0,1-1.5,1.5c-1.2-6.4-5.9-11.9-9.2-13.6h-.1a28.49,28.49,0,0,1,8.8,13.8,27.5,27.5,0,0,1-2.5,1.5c-3.1-3.6-6.1-10.5-7-14.9V20c0,4.3,3,11.5,6.7,15a11.07,11.07,0,0,1-2.6.7c-3.5-1.4-6-5.9-6-10.5A11.41,11.41,0,0,1,11.6,20h-.2a9.25,9.25,0,0,0-1.5,5.4c0,5.2,2.6,9.1,6,10.4a10.92,10.92,0,0,1-3.6-.2v.1a9.91,9.91,0,0,0,3.5.7A9.58,9.58,0,0,0,23.9,31.6Z" style="fill:#424242"/><path d="M15.2,17c-3.2,0-7,2.3-7,4.5,0,.8.8,1.5,2.3,1.5,3.6,0,7-2.5,7-4.4C17.5,17.5,16.5,17,15.2,17Zm1.3,1.5c0,1.6-3.1,3.6-5.7,3.6Q9,22.1,9,20.9c0-1.7,3.2-3.6,5.6-3.6C16.2,17.3,16.5,18.1,16.5,18.5Z" style="fill:#727272"/><path d="M6.9,22.4A7.14,7.14,0,0,0,6.5,24c0,1.4,1.4,2.6,3.9,2.6,4.8,0,10.4-3.6,10.4-6.9a2.77,2.77,0,0,0-2.4-2.5v.1a2,2,0,0,1,1.4,1.9c0,2.6-4.9,6.2-9.8,6.2-1.9,0-3.1-.9-3.1-2.3C6.9,22.8,7,22.5,6.9,22.4Z" style="fill:#979797"/><path d="M22.8,20a2.76,2.76,0,0,1,.9,2c0,4.3-6.7,8.5-12.6,8.5C7.6,30.5,6,28.8,6,27.2h.1c.1.8,1.3,2.2,4.4,2.2,5.9,0,12.5-4.3,12.5-8.2C23,20.7,22.8,20.3,22.8,20Z" style="fill:#666"/><path d="M25,24a4.17,4.17,0,0,1,.2,1.1c0,4.8-6.8,8.8-12.7,8.8a6.07,6.07,0,0,1-5-2.1h.1A7.19,7.19,0,0,0,12,33.1C17.2,33.2,25,29.2,25,24Z" style="fill:#5c5c5c"/></g></svg>