<svg xmlns="http://www.w3.org/2000/svg" viewBox="0 0 120 60"><title>logo-MIT-management</title><g style="opacity:0.5"><rect width="120" height="60" style="fill:none"/><path d="M56,33.43h7V10H56Z" style="fill:#8b8b8b"/><path d="M63.58,10v5.77h2.93V33.43h7.36V15.77h7.87V10Z" style="fill:#575757"/><path d="M45.92,46.9l-.59.33c-.08-.17-.17-.33-.33-.33a.5.5,0,0,0-.33-.08,1.19,1.19,0,0,0-.5.17c-.17.08-.17.25-.17.42s.17.42.5.5l.5.17a1.93,1.93,0,0,1,.75.5,1.17,1.17,0,0,1,.25.75,1.39,1.39,0,0,1-.42,1,1.54,1.54,0,0,1-1,.42,1.26,1.26,0,0,1-.92-.33,2,2,0,0,1-.5-.92l.67-.17a1.21,1.21,0,0,0,.17.59.85.85,0,0,0,.59.33.9.9,0,0,0,.5-.17.62.62,0,0,0,.17-.5v-.25a.29.29,0,0,0-.08-.17L45,49c-.08-.08-.17-.08-.33-.17l-.33-.33c-.67-.25-.92-.67-.92-1.09a1,1,0,0,1,.42-.84,1.26,1.26,0,0,1,.92-.33A1.08,1.08,0,0,1,45.92,46.9Z" style="fill:#575757"/><path d="M50,48.41a2.14,2.14,0,0,1,.67-1.59,2.34,2.34,0,0,1,1.67-.67,2.49,2.49,0,0,1,1.67.67,2,2,0,0,1,.67,1.67A2.49,2.49,0,0,1,54,50.16a2,2,0,0,1-1.67.67,2.35,2.35,0,0,1-1.59-.59A2.46,2.46,0,0,1,50,48.41Zm.67.08a1.7,1.7,0,0,0,.5,1.26,1.65,1.65,0,0,0,1.17.5,1.52,1.52,0,0,0,1.17-.5,1.65,1.65,0,0,0,.5-1.17,1.52,1.52,0,0,0-.5-1.17,1.22,1.22,0,0,0-1.09-.59,1.52,1.52,0,0,0-1.17.5A1.27,1.27,0,0,0,50.69,48.49Z" style="fill:#575757"/><path d="M58.39,49.66H56.47L56,50.75h-.76L57.47,46l2.18,4.77h-.75ZM58.14,49l-.67-1.51L56.8,49Z" style="fill:#575757"/><path d="M60.57,50.75V46l3.26,3.43v-3.1h.67V51l-3.26-3.43v3.18Z" style="fill:#575757"/><path d="M70.77,46.9l-.59.33c-.08-.17-.17-.33-.33-.33a.5.5,0,0,0-.33-.08A1.19,1.19,0,0,0,69,47c-.17.08-.17.25-.17.42s.17.42.5.5l.5.17a1.93,1.93,0,0,1,.75.5,1.17,1.17,0,0,1,.25.75,1.39,1.39,0,0,1-.42,1,1.54,1.54,0,0,1-1,.42,1.14,1.14,0,0,1-.92-.33,2,2,0,0,1-.5-.92l.67-.17a1.21,1.21,0,0,0,.17.59.85.85,0,0,0,.59.33.9.9,0,0,0,.5-.17.62.62,0,0,0,.17-.5v-.25a.29.29,0,0,0-.08-.17L69.85,49c-.08-.08-.17-.08-.33-.17l-.33-.33c-.67-.25-.92-.67-.92-1.09a1,1,0,0,1,.42-.84,1.26,1.26,0,0,1,.92-.33A1.13,1.13,0,0,1,70.77,46.9Z" style="fill:#575757"/><path d="M75.38,46.48v.75a1.84,1.84,0,0,0-1.26-.5,1.52,1.52,0,0,0-1.17.5,1.64,1.64,0,0,0-.42,1.26,1.72,1.72,0,0,0,1.67,1.67.71.71,0,0,0,.59-.17c.08,0,.17-.08.33-.17a1.16,1.16,0,0,1,.33-.25v.84a2.18,2.18,0,0,1-1.26.33,2.49,2.49,0,0,1-1.67-.67,2.09,2.09,0,0,1-.67-1.59A2,2,0,0,1,72.45,47a2.21,2.21,0,0,1,1.76-.84A2.09,2.09,0,0,1,75.38,46.48Z" style="fill:#575757"/><path d="M77.47,48h1.92V46.23h.67v4.44h-.67V48.57H77.47v2.09H76.8V46.23h.67Z" style="fill:#575757"/><path d="M81.23,48.41a2.14,2.14,0,0,1,.67-1.59,2.34,2.34,0,0,1,1.67-.67,2.49,2.49,0,0,1,1.67.67,2.15,2.15,0,0,1,.67,1.67,2.49,2.49,0,0,1-.67,1.67,2,2,0,0,1-1.67.67A2.35,2.35,0,0,1,82,50.24,2.46,2.46,0,0,1,81.23,48.41Zm.75.08a1.7,1.7,0,0,0,.5,1.26,1.65,1.65,0,0,0,1.17.5,1.52,1.52,0,0,0,1.18-.5,1.66,1.66,0,1,0-2.35-2.34C82.07,47.57,82,48,82,48.49Z" style="fill:#575757"/><path d="M86.92,48.41a2.14,2.14,0,0,1,.67-1.59,2.34,2.34,0,0,1,1.67-.67,2.49,2.49,0,0,1,1.67.67,2.15,2.15,0,0,1,.67,1.67,2.49,2.49,0,0,1-.67,1.67,2,2,0,0,1-1.67.67,2.35,2.35,0,0,1-1.59-.59A2.46,2.46,0,0,1,86.92,48.41Zm.67.08a1.7,1.7,0,0,0,.5,1.26,1.57,1.57,0,0,0,1.17.42,1.52,1.52,0,0,0,1.17-.5,1.65,1.65,0,0,0,.5-1.17,1.52,1.52,0,0,0-.5-1.17,1.4,1.4,0,0,0-1.17-.5,1.52,1.52,0,0,0-1.17.5A1.4,1.4,0,0,0,87.59,48.49Z" style="fill:#575757"/><path d="M93.53,46.23v3.85H95v.67H92.86V46.31h.67Z" style="fill:#575757"/><path d="M47.85,46.23v3.85h1.51v.67H47.18V46.31h.67Z" style="fill:#575757"/><path d="M25.26,36.19H27l1.42,3.68,1.42-3.68h1.76l1.25,6.86H31l-.59-3.93h0l-1.67,3.93H28l-1.59-3.93h0l-.67,3.93H24Z" style="fill:#575757"/><path d="M35.63,41.88l-.5,1.17H33.2l2.68-6.86H37.8l2.6,6.86H38.47L38,41.88Zm1.26-3.6h0l-.75,2.18h1.51Z" style="fill:#575757"/><path d="M41,36.19h1.76L46,40.37h0V36.19h1.76v6.86H46l-3.26-4.27h0v4.27H41Z" style="fill:#575757"/><path d="M50.78,41.88l-.5,1.17H48.35L51,36.19h1.92l2.6,6.86H53.62l-.5-1.17ZM52,38.28h0l-.75,2.18h1.51Z" style="fill:#575757"/><path d="M62.75,39.2a4.28,4.28,0,0,1-.67,2.68,3.34,3.34,0,0,1-2.85,1.34,3.47,3.47,0,0,1-3.69-3.68,3.49,3.49,0,0,1,3.76-3.68,3.22,3.22,0,0,1,3.1,1.92l-1.67.75a1.53,1.53,0,0,0-1.51-1.09c-1.17,0-1.76,1.09-1.76,2.18a2,2,0,0,0,1.8,2.17h0a1.31,1.31,0,0,0,1.42-1.17H59.31V39.2Z" style="fill:#575757"/><path d="M65.42,37.61v1.17h2v1.51h-2v1.17h2.09V43H63.58V36.11h3.93v1.51Z" style="fill:#575757"/><path d="M79.56,37.61v1.17h2v1.51h-2v1.17h2.18V43H77.8V36.11h3.93v1.51Z" style="fill:#575757"/><path d="M82.82,36.19h1.76l3.26,4.18h0V36.19H89.6v6.86H87.84l-3.26-4.27h0v4.27H82.82Z" style="fill:#575757"/><path d="M93.53,43.05H91.78V37.61H90.27V36.11H95v1.51H93.53Z" style="fill:#575757"/><path d="M69.44,36.19H71.2l1.42,3.68,1.5-3.68h1.76l1.26,6.86H75.21l-.59-3.93h0l-1.67,3.93H72.2l-1.59-3.93h0l-.67,3.93H68.1Z" style="fill:#575757"/><path d="M55.46,21.71l-.08-.5L53.28,10h-7L41.49,21.38,36.8,10H29.69L25.42,33.43h6.95l2.25-12,5.27,12h3.26l5.28-12,2.26,12h4.77Z" style="fill:#494949"/></g></svg>