<svg xmlns="http://www.w3.org/2000/svg" viewBox="0 0 120 60"><title>logo-bristol</title><rect width="120" height="60" style="fill:none"/><path d="M105,33.09c-.17,0-.35-.09-.35-.44v-4.2c0-.26-.09-.35-.26-.35a1.48,1.48,0,0,0-.44.17l-.87.44q-.26.13-.26.26c0,.09.09.17.26.17s.44.09.44.44v2c0,1-.44,1.4-1.14,1.4s-1-.17-1-1.22V28.46c0-.26-.09-.35-.26-.35a1.47,1.47,0,0,0-.44.17l-.87.44q-.26.13-.26.26c0,.09.09.17.26.17s.44.09.44.44v2.53c0,1.22.61,1.66,1.66,1.66a1.89,1.89,0,0,0,1.57-.61v.35c0,.09.09.17.26.17l1.31-.09h0a.23.23,0,0,0,.26-.26c0-.09-.09-.17-.18-.26Z" style="fill:#4c4c4c;opacity:0.5;isolation:isolate"/><path d="M91.2,28.2c-1.57-1-1.74-1.31-1.74-1.92a1.11,1.11,0,0,1,1.17-1.05h.06a2.28,2.28,0,0,1,1.48.61c.35.35.44.7.7.7a.23.23,0,0,0,.26-.2.23.23,0,0,0,0-.07,13.07,13.07,0,0,0-.26-1.48c-.09-.35-.09-.44-.35-.44s-.35.26-.61.26a9.48,9.48,0,0,0-1.31-.17c-1.57,0-2.53.7-2.53,2,0,1.14.52,1.66,1.83,2.53,1.4,1,2.27,1.57,2.27,2.53h0A1.44,1.44,0,0,1,90.77,33h-.18a2,2,0,0,1-1.74-.87c-.35-.44-.35-.61-.7-.61a.38.38,0,0,0-.35.35,8.88,8.88,0,0,0,.35,1.4c.09.44.18.52.35.52.35,0,.26-.35.61-.35a7.83,7.83,0,0,0,1.66.26,2.41,2.41,0,0,0,2.7-2.44C93.47,30.12,92.86,29.34,91.2,28.2Z" style="fill:#4c4c4c;opacity:0.5;isolation:isolate"/><path d="M99.31,35.71c-.17,0-.35-.09-.35-.44V28.81A6.77,6.77,0,0,1,99,28a.23.23,0,0,0-.2-.26h-.07c-.26,0-.44.26-.61.61A3.08,3.08,0,0,0,96.7,28C94.87,28,94,29.24,94,31s1,2.7,2.27,2.7c.52,0,1.22-.26,1.22-.61a.23.23,0,0,0-.2-.26h-.07c-.17,0-.26.17-.7.17-.87,0-1.22-.61-1.22-2s.44-2.36,1.4-2.36c.78,0,1,.35,1,1.22l.09,5.41h0c0,.35-.09.44-.35.44h-.17c-.17,0-.17.09-.17.26a.28.28,0,0,0,.26.26h2a.23.23,0,0,0,.26-.26c0-.09-.09-.17-.17-.26Z" style="fill:#4c4c4c;opacity:0.5;isolation:isolate"/><path d="M4.19,22.17,0,29.42H8.38Zm.17,1a2.08,2.08,0,0,1,.26.61l2.62,4.54c.17.26.35.44.44.61L7,28.55,4.36,27ZM1,28.28l2.62-4.54A5.14,5.14,0,0,0,4,23v3.84l-2.7,1.66c-.26.17-.44.26-.7.44C.78,28.72.87,28.54,1,28.28Zm5.59.79h-5v.09a2.69,2.69,0,0,0-.87.09,4.87,4.87,0,0,0,.7-.44l2.7-1.57L6.9,28.81a2.19,2.19,0,0,0,.61.35C7.24,29.16,7,29.07,6.63,29.07Z" style="fill:#4c4c4c;opacity:0.5;isolation:isolate"/><path d="M81.68,29.16c0-.35.26-.52.7-.52a1.24,1.24,0,0,1,1,.52c.17.17.26.44.44.44a.23.23,0,0,0,.26-.26,3.37,3.37,0,0,0-.17-1c0-.26,0-.35-.18-.35s-.17,0-.17.09-.09.09-.17.09a.66.66,0,0,1-.35-.09H82.3c-1.22,0-1.74.7-1.74,1.4.09,1.48,2.71,1.83,2.71,2.88h0c0,.44-.26.7-.78.7a1.53,1.53,0,0,1-1.22-.61C81,32,80.9,32,80.72,32s-.26.17-.26.35.09.44.18,1c0,.26.09.44.26.44s.26-.17.44-.17a7.86,7.86,0,0,0,1.14.17,1.69,1.69,0,0,0,1.83-1.55s0-.07,0-.11C84.3,30.38,81.68,30.12,81.68,29.16Z" style="fill:#4c4c4c;opacity:0.5;isolation:isolate"/><path d="M79.68,28a1.31,1.31,0,0,0-1.22.87v-.43c-.09-.35-.17-.35-.26-.35a1.11,1.11,0,0,0-.52.09l-.87.44q-.26.13-.26.26c0,.09.09.17.26.17s.44.09.44.44v3.23h0c0,.35-.09.44-.35.44h-.17c-.17,0-.17.09-.17.26a.28.28,0,0,0,.26.26h2a.23.23,0,0,0,.26-.26c0-.09-.09-.17-.17-.26h-.17c-.18,0-.35-.09-.35-.44V30.38c0-1,.35-1.4.78-1.4.17,0,.26,0,.35.09a.45.45,0,0,0,.35.17A.47.47,0,0,0,80.2,29c.17-.26.26-.35.26-.44S80.12,28,79.68,28Z" style="fill:#4c4c4c;opacity:0.5;isolation:isolate"/><path d="M0,30l4.19,7.24L8.38,30ZM4,36.4a5.14,5.14,0,0,0-.35-.7L1,31.16a3.7,3.7,0,0,0-.44-.61,8,8,0,0,1,.7.44L4,32.56Zm.08-4.19L1.48,30.64c-.17-.09-.44-.17-.61-.26.26,0,.52.09.87.09H6.63v-.09a2.69,2.69,0,0,0,.87-.09,1.75,1.75,0,0,1-.7.35Zm.53,3.49a6,6,0,0,1-.26.7V32.56L7,31a4.87,4.87,0,0,0,.7-.44c-.09.18-.26.35-.44.61Z" style="fill:#4c4c4c;opacity:0.5;isolation:isolate"/><circle cx="35.17" cy="25.93" r="0.7" style="fill:#4c4c4c;opacity:0.5;isolation:isolate"/><circle cx="106.91" cy="25.93" r="0.7" style="fill:#4c4c4c;opacity:0.5;isolation:isolate"/><path d="M107.87,33.18c-.17,0-.35-.09-.35-.44V28.46c0-.26-.09-.35-.26-.35a1.48,1.48,0,0,0-.44.17l-.87.44q-.26.13-.26.26c0,.09.09.17.26.17s.44.09.44.44v3.14h0c0,.35-.09.44-.35.44h-.18c-.17,0-.17.09-.17.26a.28.28,0,0,0,.26.26h2a.23.23,0,0,0,.26-.26c0-.09-.09-.17-.17-.26Z" style="fill:#4c4c4c;opacity:0.5;isolation:isolate"/><path d="M117.82,28c-.61,0-1.22.26-1.22.61a.19.19,0,0,0,.17.17c.17,0,.35-.17.79-.17.7,0,1.14.7,1.14,2.1,0,1.66-.52,2.36-1.4,2.36-.61,0-1-.26-1-1v-7h0c0-.26-.09-.35-.26-.35a1.47,1.47,0,0,0-.44.17l-.87.44q-.26.13-.26.26c0,.09.09.17.26.17s.44.09.44.44v6.2c0,.26-.09.35-.35.35a.23.23,0,0,0-.26.26c0,.44,1.48.78,2.62.78,1.83,0,2.79-1.13,2.79-3.05C120,29.42,119.48,28,117.82,28Z" style="fill:#4c4c4c;opacity:0.5;isolation:isolate"/><path d="M111.88,28c-.61,0-1.22.26-1.22.61a.19.19,0,0,0,.17.17c.17,0,.35-.17.79-.17.7,0,1.14.7,1.14,2.09,0,1.66-.52,2.36-1.4,2.36-.61,0-1-.26-1-1v-7h0c0-.26-.09-.35-.26-.35a1.47,1.47,0,0,0-.44.17l-.87.44q-.26.13-.26.26c0,.09.09.18.26.18s.44.09.44.44v6.2c0,.26-.09.35-.35.35a.23.23,0,0,0-.26.26c0,.44,1.48.79,2.62.79,1.83,0,2.79-1.14,2.79-3.05C114.07,29.42,113.54,28,111.88,28Z" style="fill:#4c4c4c;opacity:0.5;isolation:isolate"/><path d="M13.09,22H4.71L8.9,29.24Zm-1,1.14L9.42,27.67a5.15,5.15,0,0,0-.35.7V24.53L11.78,23a4.87,4.87,0,0,0,.7-.44A3.7,3.7,0,0,0,12,23.14Zm-5.59-.7h5v-.09a2.69,2.69,0,0,0,.87-.09,5.14,5.14,0,0,0-.7.35L8.9,24.18,6.28,22.61a6,6,0,0,1-.7-.26C5.85,22.35,6.11,22.44,6.46,22.44Zm2.27,5.93a3.59,3.59,0,0,0-.26-.7L5.85,23.14c-.17-.26-.35-.43-.44-.61.17.09.35.26.7.44l2.62,1.57Z" style="fill:#4c4c4c;opacity:0.5;isolation:isolate"/><path d="M9.52,29.43H17.9l-4.2-7.25Zm1-1.06,2.62-4.54a5.14,5.14,0,0,0,.35-.7V27l-2.7,1.57a4.87,4.87,0,0,0-.7.44C10.21,28.81,10.38,28.63,10.56,28.37Zm5.59.7h-5v.1a2.69,2.69,0,0,0-.87.09,4.87,4.87,0,0,1,.7-.44l2.7-1.58,2.71,1.57a2.19,2.19,0,0,0,.61.35C16.75,29.16,16.49,29.07,16.14,29.07Zm-2.27-5.93a1.52,1.52,0,0,0,.26.61l2.62,4.54c.18.26.35.44.44.61a8,8,0,0,1-.7-.44L13.88,27Z" style="fill:#4c4c4c;opacity:0.5;isolation:isolate"/><path d="M38.05,29.16c0-.35.26-.52.7-.52a1.24,1.24,0,0,1,1,.52c.17.17.26.44.44.44a.23.23,0,0,0,.26-.26,3.37,3.37,0,0,0-.17-1c0-.26,0-.35-.17-.35s-.18,0-.18.09a.3.3,0,0,1-.17.09.66.66,0,0,1-.35-.09h-.78c-1.22,0-1.74.7-1.74,1.4,0,1.48,2.7,1.83,2.7,2.88h0c0,.44-.26.7-.79.7a1.53,1.53,0,0,1-1.22-.61c-.26-.44-.35-.52-.52-.52s-.26.18-.26.35.09.44.18,1c0,.26.09.44.26.44s.26-.17.44-.17a7.87,7.87,0,0,0,1.13.17,1.69,1.69,0,0,0,1.83-1.55s0-.07,0-.11C40.67,30.38,38.05,30.12,38.05,29.16Z" style="fill:#4c4c4c;opacity:0.5;isolation:isolate"/><path d="M43.88,32.91h-.07c-.17,0-.35.17-.7.17s-.35-.17-.35-.61l.17-3.32h0c0-.26.09-.35.35-.35h.52a.23.23,0,0,0,.26-.2.23.23,0,0,0,0-.07c0-.17-.09-.26-.35-.26h-.78V26.1c0-.17-.09-.26-.17-.26s-.17.09-.26.09l-.61.35c-.09.09-.18.09-.18.26V28.2h-.52c-.17,0-.35.09-.35.26a.23.23,0,0,0,.2.26h.24c.26,0,.35.09.35.35v3.4c0,.78.17,1.31,1.14,1.31.7,0,1.31-.35,1.31-.61A.23.23,0,0,0,43.88,32.91Z" style="fill:#4c4c4c;opacity:0.5;isolation:isolate"/><path d="M36.13,33.17c-.17,0-.35-.09-.35-.44V28.46c.09-.35-.09-.35-.17-.35a1.48,1.48,0,0,0-.44.17l-.87.44Q34,28.85,34,29c0,.09.09.17.26.17s.44.09.44.44v3.14h-.09c0,.35-.09.44-.35.44h-.17c-.18,0-.18.09-.18.26a.28.28,0,0,0,.26.26h2a.23.23,0,0,0,.26-.2.23.23,0,0,0,0-.07c0-.09-.09-.17-.17-.26Z" style="fill:#4c4c4c;opacity:0.5;isolation:isolate"/><path d="M32.81,28a1.31,1.31,0,0,0-1.22.87v-.43c0-.35-.09-.35-.26-.35a1.48,1.48,0,0,0-.44.17l-.87.44q-.26.13-.26.26c0,.09.09.17.26.17s.44.09.44.44l-.09,3.14h0c0,.35-.09.44-.35.44h-.17c-.17,0-.17.09-.17.26a.28.28,0,0,0,.26.26h2a.23.23,0,0,0,.26-.26c0-.09-.09-.17-.17-.26h-.17c-.18,0-.35-.09-.35-.44V30.38c0-1,.35-1.4.78-1.4.17,0,.26,0,.35.09a.45.45,0,0,0,.35.17.47.47,0,0,0,.35-.26c.17-.26.26-.35.26-.44S33.25,28,32.81,28Z" style="fill:#4c4c4c;opacity:0.5;isolation:isolate"/><path d="M76.08,32.21H76c-.18,0-.35.17-.52.35a1.72,1.72,0,0,1-1.22.52c-1.14,0-1.66-.87-1.66-2.18s.52-2.27,1.31-2.27a1,1,0,0,1,1,.87c0,.35,0,.44-.44.61l-1,.7c-.26.18-.35.26-.35.44a.28.28,0,0,0,.26.26c.17,0,.26-.09.52-.17l1.57-.87c.52-.35.78-.52.78-.87,0-.52-.61-1.57-2.18-1.57a2.68,2.68,0,0,0-2.7,3,2.56,2.56,0,0,0,2.42,2.7H74a2.43,2.43,0,0,0,2.27-1.22A.23.23,0,0,0,76.08,32.21Z" style="fill:#4c4c4c;opacity:0.5;isolation:isolate"/><path d="M13.7,37.27,17.89,30H9.51Zm-.18-.87a5.14,5.14,0,0,0-.35-.7l-2.62-4.54c-.17-.26-.35-.44-.44-.61a8,8,0,0,1,.7.44l2.7,1.57Zm3.23-5.24L14.14,35.7a5.14,5.14,0,0,0-.35.7V32.56L16.49,31a4.88,4.88,0,0,0,.7-.44C17.11,30.73,16.93,30.9,16.76,31.16Zm-5.68-.79h5.06a2.69,2.69,0,0,0,.87-.09,5.14,5.14,0,0,0-.7.35l-2.71,1.57-2.7-1.57a5.14,5.14,0,0,0-.7-.35C10.47,30.29,10.73,30.38,11.08,30.38Z" style="fill:#4c4c4c;opacity:0.5;isolation:isolate"/><path d="M27.33,28.72h-.1A1.89,1.89,0,0,0,29,26.8c0-1.48-1.13-2.18-3-2.18-1.66,0-3.14.61-3.14,1q0,.13.26.26c.26,0,.35.09.35.44v5.67h0c0,.52,0,.61-.35.61a.23.23,0,0,0-.26.26c0,.52,1.57,1,3.14,1,2.36,0,3.4-1.22,3.4-2.79A2.17,2.17,0,0,0,27.33,28.72Zm.59,2.53a1.88,1.88,0,0,1-1.75,2h-.09c-1,0-1.22-.35-1.22-1.22V26.45c0-.87.35-1.14,1.14-1.14A1.49,1.49,0,0,1,27.58,27a1.51,1.51,0,0,1-1.45,1.57h-.38c-.26,0-.35.09-.35.35a.4.4,0,0,0,.44.35h.26a1.79,1.79,0,0,1,1.83,2Z" style="fill:#4c4c4c;opacity:0.5;isolation:isolate"/><path d="M47.33,28H47a2.75,2.75,0,0,0-2.88,2.61q0,.13,0,.27A2.64,2.64,0,0,0,47,33.69a2.73,2.73,0,0,0,2.88-2.57q0-.11,0-.22A2.7,2.7,0,0,0,47.33,28ZM47,33.08c-1,.09-1.57-.78-1.57-2.18S46,28.63,47,28.63s1.57.87,1.57,2.27S48,33.08,47,33.08Z" style="fill:#4c4c4c;opacity:0.5;isolation:isolate"/><path d="M4.72,37.54h8.38L8.9,30.29ZM5.84,36.4l2.62-4.54a5.15,5.15,0,0,0,.35-.7V35L6.11,36.57a4.87,4.87,0,0,0-.7.44C5.5,36.83,5.67,36.66,5.84,36.4Zm3.23-5.23a5.15,5.15,0,0,0,.35.7L12,36.4c.17.26.35.44.44.61a8,8,0,0,1-.7-.44L9.08,35Zm2.62,5.77a5.15,5.15,0,0,0,.7.35c-.26,0-.52-.09-.87-.09H6.46a2.69,2.69,0,0,0-.87.09,5.14,5.14,0,0,0,.7-.35L9,35.36Z" style="fill:#4c4c4c;opacity:0.5;isolation:isolate"/><path d="M71.57,28.37c0-.17-.09-.17-.27-.17H69.82c-.17,0-.26,0-.26.17s.09.17.26.17.44.09.44.26a1.3,1.3,0,0,1-.09.52l-1,2.61L67.9,29.59a2.22,2.22,0,0,1-.18-.61.23.23,0,0,1,.2-.26H68c.17,0,.26-.09.26-.17s-.09-.17-.35-.17H66c-.17,0-.35,0-.35.17s0,.17.18.17.52.18.7.7l1.83,4c-.44.78-1,1.74-1.4,2.27a.66.66,0,0,0-.18.35c0,.09.09.09.18.09h.7c.18,0,.26,0,.35-.26s.35-1,1-2.36l1.74-4.28c.17-.44.26-.52.52-.61S71.57,28.55,71.57,28.37Z" style="fill:#4c4c4c;opacity:0.5;isolation:isolate"/><path d="M65.63,33.08c-.35,0-.44-.17-.44-.61V25.93c0-.44.09-.52.44-.61s.35-.09.35-.26-.09-.26-.35-.26H64.32c-.44,0-.52.09-.61.35l-2.27,4.71-2.53-4.63c-.17-.35-.17-.35-.61-.35H57.08c-.26,0-.35.09-.35.26s.09.26.35.26.44.17.44.61v6.46h0c0,.44-.09.61-.44.61s-.35.09-.35.26.09.26.35.26h1.83c.26,0,.35-.09.35-.26s-.09-.26-.35-.26-.44-.17-.44-.61V26.8L60.57,31c.26.44.35.52.52.52s.26-.09.52-.52l2.09-4.36v5.85c0,.44-.09.61-.44.61s-.35.09-.35.26.09.26.35.26h2.36c.26,0,.35-.09.35-.26S65.9,33.08,65.63,33.08Z" style="fill:#4c4c4c;opacity:0.5;isolation:isolate"/><path d="M52.28,33.17c-.17,0-.35-.09-.35-.44V25.05c0-.26-.09-.35-.26-.35a1.47,1.47,0,0,0-.44.17l-.87.44q-.26.13-.26.26c0,.09.09.18.26.18s.44.09.44.44v6.54h0c0,.35-.09.44-.35.44h-.18c-.17,0-.17.09-.17.26a.28.28,0,0,0,.26.26h2a.23.23,0,0,0,.26-.26c0-.09-.09-.17-.17-.26Z" style="fill:#4c4c4c;opacity:0.5;isolation:isolate"/><path d="M56.1,30.47H53.41c-.26,0-.26.09-.26.26v.35a.23.23,0,0,0,.2.26H56c.26,0,.26-.09.26-.26v-.35A.23.23,0,0,0,56.1,30.47Z" style="fill:#4c4c4c;opacity:0.5;isolation:isolate"/></svg>