<svg xmlns="http://www.w3.org/2000/svg" viewBox="0 0 120 60"><title>logo-ibm</title><rect width="120" height="60" style="fill:none"/><path d="M29,18v1.71H41.19V18Zm13.9,0v1.71H60.26A6.57,6.57,0,0,0,56.16,18Zm20.78,0v1.71H74.16L73.53,18Zm18,0L81,19.71H91.47V18ZM29,21.3V23H41.19V21.3Zm13.9.06v1.71H62.26a4.5,4.5,0,0,0-.63-1.71H42.9Zm20.79,0v1.71H75.35l-.57-1.71H63.69Zm16.74,0-.57,1.71H91.47v-1.7h-11Zm-48,3.3v1.71h5.3V24.66Zm14,0v1.71h5.3V24.66Zm10.36,0v1.71h5.3a5.77,5.77,0,0,0,.34-1.71Zm10.36,0v1.71H76.5l-.63-1.71Zm12.13,0-.63,1.71h9.4v-1.7ZM32.47,28v1.71h5.3V28Zm14,0v1.71h13.5A5.25,5.25,0,0,0,61.4,28Zm20.73,0v1.71h5.3v-1l.34,1h9.68l.34-1v1h5.3V28h-10l-.51,1.42L77.12,28ZM32.47,31.33V33h5.3V31.33Zm14,0V33h15a5.25,5.25,0,0,0-1.48-1.71Zm20.73,0V33h5.3V31.33Zm6.21,0L74,33h7.23l.63-1.71Zm9.4,0V33h5.3V31.33Zm-50.28,3.3v1.71h5.3v-1.7Zm14,0v1.71h5.3v-1.7Zm10.36,0v1.71h5.58A5.78,5.78,0,0,0,62,34.63Zm10.36,0v1.71h5.3v-1.7Zm7.4,0,.63,1.71H80l.63-1.71Zm8.2,0v1.71h5.3v-1.7ZM29.11,38V39.7H41.3V38ZM42.9,38V39.7H61.63A4.5,4.5,0,0,0,62.26,38Zm20.84,0V39.7h8.66V38Zm12.07,0,.63,1.71h2.45L79.45,38Zm6.95,0V39.7h8.77V38Zm-53.64,3.3V43H41.3V41.29Zm13.78,0V43H56.11a6.57,6.57,0,0,0,4.1-1.71Zm20.84,0V43h8.66V41.29Zm13.27,0L77.63,43h.11l.63-1.71Zm5.75,0V43h8.77V41.29Z" style="fill:#616161;opacity:0.5;isolation:isolate"/></svg>