<svg xmlns="http://www.w3.org/2000/svg" viewBox="0 0 120.01 60"><title>logo-berkeley</title><g style="opacity:0.5"><rect width="120" height="60" style="fill:none"/><path d="M12,11c-3.88,0-6,.24-6.93.24H.82c-.7,0-.82,0-.82.36s.12.6,2.12.6c1.17,0,1.88.36,1.88,4V36.84c0,.73-.12.73-2,.73-.94,0-1.17.12-1.17.48s.35.48.7.48c1.41,0,2.35-.12,4.23-.12s3.76.48,5.64.48c6.11,0,10.11-2.42,10.11-7.37,0-3.86-2.59-5.43-4.58-6.52a7.82,7.82,0,0,0-1.76-.73,20.38,20.38,0,0,1,1.76-1.21,6.6,6.6,0,0,0,3.29-5.8C20.1,14,17.75,11,12,11Zm75,0a16,16,0,0,1-4.58.85c-.59,0-.94,0-.94.48s.35.48,1.06.48c1.76,0,2,0,2,2.42v21.5c0,.73-.7.73-2.23.73-.94,0-.94.24-.94.48s.12.36.94.36c.59,0,2.59-.12,3.88-.12.7,0,1.53.12,2.12.12,1.41,0,1.64,0,1.64-.36s.12-.6-1.88-.6c-.7,0-.94-.48-.94-3.62,0-1.09.23-4.23.23-19.08,0-1.21.23-2.54.23-3-.23-.36-.47-.6-.59-.6ZM55.36,11a23.14,23.14,0,0,1-5.29.85c-.47,0-.47.12-.47.6,0,.24.12.36,1.76.36,1.06,0,1.29.36,1.29,3.14,0,8.21-.12,19.81-.12,20.89,0,.6-.35.6-1.64.6-.94,0-1.06.24-1.06.48s.23.36,1.06.36c.59,0,2-.12,3.29-.12s2.94.12,3.53.12c.82,0,1.06,0,1.06-.36s-.12-.48-1.06-.48c-2.35,0-2.23,0-2.23-1.81V33.22c0-.36.59-.6,1.17-1a4.89,4.89,0,0,1,1.29-.85c.23,0,1.88,2.42,3.41,4.35s2,2.9,2.59,2.9h3.41c.82,0,1.06-.12,1.06-.36s-.35-.48-1.17-.48c-1.29,0-2.47-1.93-3.76-3.5-2.7-3.26-3.29-4-3.29-4.35s2.35-1.93,4.23-3.86a12.31,12.31,0,0,0,2.47-3.26c0-.12-.12-.12-.47-.12s-2.7.12-3.17.12-1.17-.12-1.53-.12-.7.12-.7.36.23.48.7.48c1.64,0,1.76.12,1.76.73,0,.85-.35,1.45-1.88,2.9-1.17,1.21-5.17,4.71-6.11,4.71-.12,0-.12-.12-.12-.24,0-6.4.23-10.75.23-16.67,0-1.21.12-2.9.12-3.38s-.12-.6-.35-.6ZM10.7,12.09c4,0,5.76,4.35,5.76,6.52,0,3.5-1.41,4.35-2.7,5.43a38.85,38.85,0,0,0-4.47-.24c-1.06,0-1.64.12-1.64-.6V13.42c0-1,.12-1.33,3.06-1.33Zm19.16,10c-3.41,0-7.05,3.26-7.05,8.82,0,6.52,4.58,8.09,7.76,8.09a10.57,10.57,0,0,0,6.35-2.66.38.38,0,0,0-.35-.36,10.05,10.05,0,0,1-4.11,1c-2.94,0-6.93-1.45-6.93-6.88,0-.85.12-1.09.7-1.09a56.5,56.5,0,0,0,9.17-1.33c1.06-.24,1.53-.36,1.53-.6A5.51,5.51,0,0,0,35.62,25a8.38,8.38,0,0,0-5.76-2.9Zm44.43,0c-3.41,0-7.05,3.26-7.05,8.82C67.23,37.45,71.82,39,75,39a10.57,10.57,0,0,0,6.35-2.66A.38.38,0,0,0,81,36a10.05,10.05,0,0,1-4.11,1c-2.94,0-6.93-1.45-6.93-6.88,0-.85.12-1.09.7-1.09a56.5,56.5,0,0,0,9.17-1.33c1.06-.24,1.53-.36,1.53-.6A5.51,5.51,0,0,0,80,25a8.88,8.88,0,0,0-5.76-2.9Zm21.86,0c-3.41,0-7.05,3.26-7.05,8.82,0,6.52,4.58,8.09,7.76,8.09a10.57,10.57,0,0,0,6.35-2.66.38.38,0,0,0-.35-.36,10.05,10.05,0,0,1-4.11,1c-2.94,0-6.93-1.45-6.93-6.88,0-.85.12-1.09.7-1.09a56.5,56.5,0,0,0,9.17-1.33c1.06-.24,1.53-.36,1.53-.6A5.51,5.51,0,0,0,101.9,25a8.38,8.38,0,0,0-5.76-2.9Zm-53,.36c-.59,0-1.29.24-2,.24s-1.53-.12-2.82-.12c-.7,0-.59.12-.59.6s0,.36.7.36c2.12,0,2,.12,2,2.78V37.08c0,.6-.12.6-1.64.6-.94,0-.94.12-.94.48s.12.36.94.36c.59,0,1.88-.24,3.17-.24s3.76.24,4.35.24c.94,0,1.06,0,1.06-.36s0-.48-1.06-.48c-2.82,0-2.94,0-2.94-1.93V27.66c0-1.69.82-2.54,3.06-2.54,1.88,0,2.35,1.57,2.94,1.57.23,0,.82-1.69.82-2.05,0-1-1.76-1.93-2.47-1.93-1.76,0-3.53,2.05-4.11,2.05-.12,0-.23-.24-.23-.6,0-.12.12-1,.12-1.21-.12-.48-.23-.48-.35-.48Zm75.93,0c-.59,0-1.53.12-2.12.12-1.06,0-1.76-.12-2.7-.12-.7,0-.82,0-.82.48s.12.36,1.29.36,1.29.24,1.29,1.45c0,.6-1.41,4.59-2.23,7.37-.59,1.81-.82,2.42-1.06,2.42a4.58,4.58,0,0,1-.94-1.45c-2.23-6-3.29-7.37-3.29-8.57,0-.85.23-1.09,1.17-1.09s.94,0,.94-.36-.12-.6-.94-.6c-1.17,0-2.59.12-3.64.12s-1.17-.12-2.23-.12c-.7,0-.82.24-.82.6s0,.36.82.36.94.24,1.88,2.54c2.12,5.07,5.17,12.32,5.17,12.8,0,1.21-3.29,5.8-4.58,7.49s-3.06,1.93-3.06,2.17.35.36,1.06.36,1.06-.36,2.23-.48c.82-.12,1.29-.12,1.76-1,1.17-2.54,2.94-5.8,5.29-11.71,3.06-7.49,4.7-12.2,5.52-12.2.47,0,.94-.24.94-.6s-.35-.36-.94-.36ZM29.51,23c1.76,0,4,2.9,4,3.86,0,.24,0,.36-.47.36a44.45,44.45,0,0,1-6.93,1c-.47,0-.47,0-.47-.24.12-.48.94-5,3.88-5Zm44.31,0c1.76,0,4,2.9,4,3.86,0,.24,0,.36-.47.36a44.45,44.45,0,0,1-6.93,1c-.47,0-.47,0-.47-.24.12-.48,1.06-5,3.88-5Zm22,0c1.76,0,4,2.9,4,3.86,0,.24,0,.36-.47.36a44.45,44.45,0,0,1-6.93,1c-.47,0-.47,0-.47-.24.12-.48.94-5,3.88-5ZM9.29,24.53c4.82,0,8,3.14,8,7.25,0,3.86-2.47,6.28-5.76,6.28a5.46,5.46,0,0,1-3.29-.85,11.73,11.73,0,0,1-.47-3.38V25.74c-.12-1,.23-1.21,1.53-1.21ZM30.92,42.88a1.51,1.51,0,0,0-1.64,1.37s0,.06,0,.08c0,1.81,2.23,1.45,2.23,2.42a.72.72,0,0,1-.71.73h-.11A2.84,2.84,0,0,1,29.39,47l-.35.73a3.37,3.37,0,0,0,1.64.6,1.63,1.63,0,0,0,1.76-1.49s0-.05,0-.08c0-1.81-2.23-1.21-2.23-2.42a.69.69,0,0,1,.65-.72h.06a2,2,0,0,1,1.17.36l.35-.6a3.27,3.27,0,0,0-1.53-.48Zm18,0c-1.53,0-2.23,1.09-2.23,2.66s.7,2.66,2.23,2.66,2.23-1.21,2.23-2.66-.71-2.66-2.24-2.66Zm11.87,0c-1.53,0-2.23,1.09-2.23,2.66s.7,2.66,2.23,2.66a2.84,2.84,0,0,0,1.88-.73l-.47-.6a2.45,2.45,0,0,1-1.29.6c-.94,0-1.41-.73-1.41-1.93s.47-1.93,1.41-1.93a1.49,1.49,0,0,1,1.17.48l.47-.6a3.11,3.11,0,0,0-1.76-.6Zm19.39,0c-1.53,0-2.23,1.09-2.23,2.66s.7,2.66,2.23,2.66S82.4,47,82.4,45.54s-.71-2.66-2.24-2.66ZM9.06,43l-.82.12V48.2h.94V44.7h0l2.12,3.5h.82V43h-.94v3.38h0Zm11.4,0V48.2h3.06l.12-.73H21.4V46h1.88V45.3H21.4V43.85h2.12v-.73H20.46Zm31.73,0V48.2h.94V45.9H55v-.73H53.12V43.73h2.12V43Zm13.75,0-1.06.12-1.76,5.19h.82l.47-1.21h2l.47,1.21h.94L65.94,43Zm8.46,0V48.2h.94V45.9h1.88v-.73H75.35V43.73h2.12V43Zm13.87,0-.82.12V48.2h.94V44.7h0l2.12,3.5h.82V43h-.94v3.38h0Zm8.58,0-1.06.12L94,48.32h.82l.47-1.21h2l.47,1.21h.94L96.85,43ZM3.3,43v3.38a1.7,1.7,0,0,0,1.88,1.93,1.7,1.7,0,0,0,1.88-1.93V43H6.12v3.5c0,.6-.23,1.09-.94,1.09s-.94-.48-.94-1.09V43Zm10,0V48.2h.94V43Zm1.76,0,1.76,5.19h.94L19.52,43H18.7l-.94,2.9a7.62,7.62,0,0,0-.35,1.21h0c-.23-.85-.35-1.21-.35-1.21L16.11,43Zm9.76,0V48.2h.94V46.14h.47c.35,0,.47.36.7.6l.7,1.45h.94l-.94-1.93c-.12-.12-.12-.24-.35-.36h0a1.41,1.41,0,0,0,.94-1.45,1.47,1.47,0,0,0-1.36-1.58h-.28L24.81,43Zm8.7,0V48.2h.94V43Zm1.88,0v.73h1.29V48.2h.94V43.73H38.9L39,43Zm4.23,0,1.64,3V48.2h.94V45.9l1.64-3h-.94l-.7,1.45-.35.73h0a2.64,2.64,0,0,0-.35-.73l-.7-1.45H39.62Zm28.8,0V48.2h3.06l.12-.73H69.36V43Zm3.88,0V48.2h.94V43Zm10.81,0V48.2h.94V46.14h.47c.35,0,.47.36.7.6l.7,1.45h.94l-.94-1.93c-.12-.12-.12-.24-.35-.36h0a1.41,1.41,0,0,0,.94-1.45,1.47,1.47,0,0,0-1.36-1.58h-.28L83.11,43Zm9.29,0V48.2h.94V43Zm-43.49.73c.82,0,1.29.85,1.29,1.93s-.47,1.93-1.29,1.93-1.31-.84-1.31-1.93.35-1.93,1.29-1.93Zm31.26,0c.82,0,1.29.85,1.29,1.93s-.47,1.93-1.29,1.93-1.29-.85-1.29-1.93S79.23,43.73,80.17,43.73Zm-54.54,0h.7c.59,0,.82.24.82.73a.75.75,0,0,1-.65.84h-.88Zm58.3,0h.7c.59,0,.82.24.82.73a.75.75,0,0,1-.65.84h-.88Zm-18.57.12h0a4.84,4.84,0,0,0,.47,1.21l.35,1.21H64.54l.35-1.21c0,.12.1-.12.45-1.21Zm30.91,0h0a4.84,4.84,0,0,0,.47,1.21l.35,1.21H95.46l.35-1.21c0,.12.1-.12.45-1.21Z" style="fill:#2a2a2a"/></g></svg>