<svg xmlns="http://www.w3.org/2000/svg" viewBox="0 0 120 60"><title>logo-zurich</title><g style="opacity:0.5"><rect width="120" height="60" style="fill:none"/><path d="M60.67,3A14.87,14.87,0,0,0,45.83,17.83a14.69,14.69,0,0,0,3.08,9L61.25,10.67H58.58a22.3,22.3,0,0,0-3.67.25,4,4,0,0,0-1.5.58,5.72,5.72,0,0,0-1.5,1.83c-.08.08-.08.25-.17.42L51,13.58l1.25-4.67h15.5L55.33,25.33a13.53,13.53,0,0,1,1.75-.08c.5,0,1.25,0,2.25.08l2.17.17a16.79,16.79,0,0,0,1.92.08A7.47,7.47,0,0,0,66,25.25a5.53,5.53,0,0,0,1.58-.75A7.85,7.85,0,0,0,69.75,22a1.82,1.82,0,0,0,.25-.42l.67.17A9.38,9.38,0,0,1,70,23.58a7.74,7.74,0,0,1-2.42,3.25A6.14,6.14,0,0,1,64,28h-.17a29.44,29.44,0,0,1-4.25-.42,28,28,0,0,0-5-.5,23.54,23.54,0,0,0-2.42.17,7.46,7.46,0,0,0-2.42.75,14.67,14.67,0,0,0,10.92,4.83A14.92,14.92,0,0,0,60.67,3" style="fill:#515151"/><path d="M32.67,43H21.33l-1.42,3.08a11.6,11.6,0,0,1,1.08-.5A8.56,8.56,0,0,1,23.08,45a12.85,12.85,0,0,1,2-.17h2.75L19,57.5H31.5l1.42-3.33c-.5.25-.67.42-1.08.58a10.91,10.91,0,0,1-2.33.75,16.62,16.62,0,0,1-2.25.17H23.92L32.67,43M70.25,57.5a.81.81,0,0,1-.42-.5,1.82,1.82,0,0,0-.25-.42,5.67,5.67,0,0,1-.17-1.25V45.75a4,4,0,0,1,.17-1.67c.08-.17.08-.33.17-.42a1.93,1.93,0,0,1,.58-.58H65.67c.33.25.42.33.5.58l.25.5a5.48,5.48,0,0,1,.17,1.58v9.5a3.59,3.59,0,0,1-.25,1.42,3.69,3.69,0,0,1-.67.92h4.58M84.83,43.17c-.33-.08-.5-.17-.92-.25a12.94,12.94,0,0,0-2.58-.25,10.2,10.2,0,0,0-4.08.75,7.88,7.88,0,0,0-2,1.17A7.44,7.44,0,0,0,72.5,50.5a6.88,6.88,0,0,0,2.67,5.67,8.74,8.74,0,0,0,5.42,1.67,12,12,0,0,0,4.08-.67.31.31,0,0,0,.25-.08V54.42a3.71,3.71,0,0,1-.67.42,3.08,3.08,0,0,1-.92.42,6.69,6.69,0,0,1-2.5.5,4.85,4.85,0,0,1-3.75-1.58,5.86,5.86,0,0,1-1.42-4A6.18,6.18,0,0,1,77,46.25a5.82,5.82,0,0,1,1.33-1.08,6.18,6.18,0,0,1,2.83-.67,6.79,6.79,0,0,1,2.58.5,5.31,5.31,0,0,1,1.17.67v-2.5M97.5,50.92v3.5a7.22,7.22,0,0,1-.08,1.5,2.33,2.33,0,0,1-.67,1.42l-.17.17h4.58l-.42-.42-.25-.5a2.68,2.68,0,0,1-.17-1.33v-9.5a6.21,6.21,0,0,1,.17-1.5l.25-.5a1.92,1.92,0,0,1,.58-.58H96.58a3.11,3.11,0,0,1,.5.58l.25.5a5.68,5.68,0,0,1,.17,1.5v3.5H91V46.58a9.64,9.64,0,0,1,.08-1.75c0-.25.08-.42.08-.67a2.44,2.44,0,0,1,.58-1l.17-.17H87.25a3.11,3.11,0,0,1,.5.58l.25.5a3.09,3.09,0,0,1,.17,1.5v8.83a6.39,6.39,0,0,1-.08,1.5,1.54,1.54,0,0,1-.17.58,1.91,1.91,0,0,1-.58.83l-.17.17h4.58c-.17-.17-.25-.33-.42-.5a1.82,1.82,0,0,0-.25-.42,4.72,4.72,0,0,1-.25-1.25V51l6.67-.08M34.67,43c.25.25.42.33.5.58a1.18,1.18,0,0,1,.17.5,1.84,1.84,0,0,1,.08.67v5.92a18.37,18.37,0,0,0,.08,2.58,5,5,0,0,0,1,2.67,5.06,5.06,0,0,0,2.42,1.67,8.53,8.53,0,0,0,2.67.42,9.82,9.82,0,0,0,2.92-.42,6.52,6.52,0,0,0,2.17-1.42,4.61,4.61,0,0,0,1.17-2.83,21.21,21.21,0,0,0,.08-2.58V45.67a4.52,4.52,0,0,1,.17-1.42,1.9,1.9,0,0,1,.67-1l.17-.17H44.67a2.5,2.5,0,0,1,.33.67,1.24,1.24,0,0,1,.08.58,16.93,16.93,0,0,1,.08,2.42v4.5a16.93,16.93,0,0,1-.08,2.42,4.13,4.13,0,0,1-.33,1.08A2.76,2.76,0,0,1,43,56a4.06,4.06,0,0,1-1,.08,4,4,0,0,1-2-.5,1.82,1.82,0,0,1-.83-.75c-.42-.58-.5-1.17-.5-2.67v-5.5a16.93,16.93,0,0,1,.08-2.42,4.13,4.13,0,0,1,.33-1.08.29.29,0,0,0,.08-.17h-4.5M55,54.5v.75a4.72,4.72,0,0,0,.17,1.33,1.82,1.82,0,0,0,.25.42c.17.17.17.25.42.5H51.25l.5-.5a1.82,1.82,0,0,1,.25-.42,5.44,5.44,0,0,0,.17-1.42v-9.5a3.29,3.29,0,0,0-.17-1.5l-.25-.5a3.11,3.11,0,0,0-.5-.58h5.08a9.6,9.6,0,0,1,2.5.25,4.66,4.66,0,0,1,2.33,1.33,3.29,3.29,0,0,1,1,2.33A4.88,4.88,0,0,1,62,48.08a3.81,3.81,0,0,1-1.17,1.67,6,6,0,0,1-1.75,1,5.74,5.74,0,0,1-.67.25l2.25,2.67a12.84,12.84,0,0,0,1.08,1.17c.67.75,1.17,1.17,1.67,1.67a3.85,3.85,0,0,1,.58.58,2.64,2.64,0,0,0,.5.42H61.92a2.38,2.38,0,0,1-1.42-.33A6.12,6.12,0,0,1,59,56a6.81,6.81,0,0,1-.67-.75,6.26,6.26,0,0,0-.58-.67l-2.67-3.25V54.5Zm.25-4.42A2.31,2.31,0,0,0,56,50a4,4,0,0,0,1.83-.58,2.25,2.25,0,0,0,.67-.58,2.68,2.68,0,0,0,.58-1.67,2.15,2.15,0,0,0-.75-1.75,1.9,1.9,0,0,0-1-.5,7.1,7.1,0,0,0-1.92-.25H55V50c.17.08.17.08.25.08" style="fill:#323232"/></g></svg>