<svg xmlns="http://www.w3.org/2000/svg" viewBox="0 0 120 60"><title>logo-abb</title><g style="opacity:0.5"><rect width="120" height="60" style="fill:none"/><path d="M71.77,20.07a5.81,5.81,0,0,1-.07,6.6,8.31,8.31,0,0,1-2.15,2,13.43,13.43,0,0,0,1.41.67c.44.33.89.67,1.26,1h-9V17.07C66.51,16.8,70,17.2,71.77,20.07Z" style="fill:#4d4d4d"/><path d="M95.18,20.07a5.89,5.89,0,0,1,.07,6.13,7,7,0,0,1-2.37,2.4,7.3,7.3,0,0,1,2.67,1.67h-9V17.07C89.92,16.87,93.47,17.2,95.18,20.07Z" style="fill:#4d4d4d"/><path d="M36.66,30.27H27.33l5-13.2h4.37Z" style="fill:#4d4d4d"/><path d="M46.52,30.27H37.26V17.07h4.37Z" style="fill:#4d4d4d"/><rect x="53.92" y="17.07" width="8.74" height="13.2" style="fill:#4d4d4d"/><rect x="77.25" y="17.07" width="8.67" height="13.2" style="fill:#4d4d4d"/><path d="M36.66,38.53h-5L29.48,44H22l5.26-13.2h9.41Z" style="fill:#4d4d4d"/><path d="M51.92,44H44.29l-2-5.47h-5V30.8h9.33Z" style="fill:#4d4d4d"/><rect x="53.92" y="30.8" width="8.74" height="13.2" style="fill:#4d4d4d"/><path d="M72.88,30.8a7.19,7.19,0,0,1,1.33,8.27,8.09,8.09,0,0,1-4.22,4,17.31,17.31,0,0,1-6.81.93V30.8Z" style="fill:#4d4d4d"/><rect x="77.25" y="30.8" width="8.67" height="13.2" style="fill:#4d4d4d"/><path d="M96.21,30.8a7.34,7.34,0,0,1,1.7,7.27,7.6,7.6,0,0,1-5,5.2,18.35,18.35,0,0,1-6.44.67V30.8Z" style="fill:#4d4d4d"/></g></svg>