<svg xmlns="http://www.w3.org/2000/svg" viewBox="0 0 120 60"><title>logo-T-Mobile</title><g style="opacity:0.5"><rect width="120" height="60" style="fill:none"/><rect x="3" y="29.42" width="4.14" height="4.13" style="fill:#767676"/><rect x="14.99" y="29.42" width="4.14" height="4.13" style="fill:#767676"/><rect x="27.6" y="29.42" width="4.14" height="4.13" style="fill:#767676"/><rect x="39.95" y="29.42" width="4.14" height="4.13" style="fill:#767676"/><path d="M65,21.26a2.79,2.79,0,0,0-1,.18c-.27.09-.45.36-.72.63a2.25,2.25,0,0,0-.36.63,2.64,2.64,0,0,0-.18.9,10.83,10.83,0,0,0-.09,1.8V36a15.23,15.23,0,0,0,.09,2.24,3.51,3.51,0,0,0,.45,1.17,2,2,0,0,0,1.71.81v.45H58v-.27a1.45,1.45,0,0,0,1-.27,1.6,1.6,0,0,0,.72-.63,2.28,2.28,0,0,0,.45-1.17,13.31,13.31,0,0,0,.09-2.15V23.23L54.64,40.64h-.27L48.69,23.5V36.15a13.31,13.31,0,0,0,.09,2.15,3.51,3.51,0,0,0,.45,1.17,2.43,2.43,0,0,0,.72.63c.27.09.63.18,1,.27v.27H45.81v-.27a1.62,1.62,0,0,0,1-.27,1.6,1.6,0,0,0,.72-.63A2.28,2.28,0,0,0,48,38.31a13.31,13.31,0,0,0,.09-2.15V24.22a3.06,3.06,0,0,0-.27-1.53,2.17,2.17,0,0,0-.72-1,2.61,2.61,0,0,0-1.26-.36V21h5l4.78,15.35,5-15.35H65Z" style="fill:#767676;stroke:#767676;stroke-width:0.9660000205039978px"/><path d="M65.9,33.73a7.12,7.12,0,0,1,1.53-4.49,5.44,5.44,0,0,1,4.33-2.42,5.2,5.2,0,0,1,4.33,2.42,7.5,7.5,0,0,1,1.53,4.49,7.23,7.23,0,0,1-1.44,4.49,5.09,5.09,0,0,1-4.33,2.42,5.35,5.35,0,0,1-4.42-2.42,9,9,0,0,1-1.08-2.06A7.67,7.67,0,0,1,65.9,33.73Zm2.34-.18a10.11,10.11,0,0,0,1,4.58c.72,1.44,1.62,2.06,2.7,2.06a2.69,2.69,0,0,0,1.35-.45,2.78,2.78,0,0,0,1.08-1.35,6.72,6.72,0,0,0,.81-2.15,12.57,12.57,0,0,0,.27-2.51,9,9,0,0,0-.36-2.6,7.31,7.31,0,0,0-.9-2.24,3.06,3.06,0,0,0-2.52-1.8A2.9,2.9,0,0,0,69.23,29,10.38,10.38,0,0,0,68.25,33.55Z" style="fill:#767676;stroke:#767676;stroke-width:1.0720000267028809px"/><path d="M82.3,30a12.81,12.81,0,0,1,1-1.08,4,4,0,0,1,2.25-.72,4.79,4.79,0,0,1,3.33,1.35,6.17,6.17,0,0,1,1.71,4.76,6.51,6.51,0,0,1-1.71,4.85,5.21,5.21,0,0,1-5.59,1.17l-.72-.36a1.15,1.15,0,0,0-.54-.09c-.45,0-.81.36-1.08,1.17h-.54V24.49A4.41,4.41,0,0,0,80,22.24a1.7,1.7,0,0,0-1.53-.72v-.36l3.88-.63Zm0,4.31a25.48,25.48,0,0,0,.18,2.78,17.87,17.87,0,0,0,.36,1.89A2.45,2.45,0,0,0,83.66,40a2.08,2.08,0,0,0,1.26.36,3,3,0,0,0,2.52-1.61,8.23,8.23,0,0,0,1-4.13,7.71,7.71,0,0,0-.36-2.51,7.17,7.17,0,0,0-.9-2.06A3.1,3.1,0,0,0,86.09,29a2,2,0,0,0-1.17-.36,2.17,2.17,0,0,0-1.35.54,2.76,2.76,0,0,0-.9,1.35A16.27,16.27,0,0,0,82.3,34.27Z" style="fill:#767676;stroke:#767676;stroke-width:1.0180000066757202px"/><path d="M93.12,28.71l3.6-.54v9.24a6.36,6.36,0,0,0,.09,1.44,1.8,1.8,0,0,0,.36.72,2.06,2.06,0,0,0,1.26.54v.27H92.94V40.1A2.13,2.13,0,0,0,94,39.74a2.48,2.48,0,0,0,.54-.72,2.39,2.39,0,0,0,.18-1c0-.45.09-1.08.09-1.89v-3.5a12.09,12.09,0,0,0-.09-2.06,1.8,1.8,0,0,0-.27-1c-.18-.27-.27-.45-.54-.54a2,2,0,0,0-.9-.18v-.18Zm2.61-5.56a.88.88,0,0,1-.81-.36,1.59,1.59,0,0,1-.36-.9,1.15,1.15,0,0,1,.36-.9,1.1,1.1,0,0,1,1.55-.07l.07.07a1.59,1.59,0,0,1,.36.9,1.15,1.15,0,0,1-.36.9,1.1,1.1,0,0,1-.81.36Z" style="fill:#767676;stroke:#767676;stroke-width:1.0180000066757202px"/><path d="M100.15,21.08l3.6-.54V37.41a6.36,6.36,0,0,0,.09,1.44,1.8,1.8,0,0,0,.36.72,2.06,2.06,0,0,0,1.26.54v.27H100V40.1a2.13,2.13,0,0,0,1.08-.36,2.48,2.48,0,0,0,.54-.72,2.39,2.39,0,0,0,.18-1c0-.45.09-1.08.09-1.89v-11a12.09,12.09,0,0,0-.09-2.06,1.8,1.8,0,0,0-.27-1c-.18-.27-.27-.45-.54-.54a2,2,0,0,0-.9-.18v-.27Z" style="fill:#767676;stroke:#767676;stroke-width:1.0180000066757202px"/><path d="M109.34,32.2v1.08a8.64,8.64,0,0,0,.36,2.6,6.23,6.23,0,0,0,.9,2.06A4.82,4.82,0,0,0,112,39.29a3.07,3.07,0,0,0,1.71.45,2.89,2.89,0,0,0,1.26-.27,4,4,0,0,0,1-.72,6,6,0,0,0,.81-1.7l.27.09a4.8,4.8,0,0,1-1.35,2.69,4.12,4.12,0,0,1-2.88.9,4.91,4.91,0,0,1-2.61-.63,5.12,5.12,0,0,1-1.89-1.8,7.62,7.62,0,0,1-1.08-4.13,6.89,6.89,0,0,1,2-5.3,4.46,4.46,0,0,1,5.23-1,3.85,3.85,0,0,1,1.44,1.26,5,5,0,0,1,.9,3.14h-7.39Zm5.41-.63a7.12,7.12,0,0,0-.45-2.33,2.92,2.92,0,0,0-.9-1.17,2.13,2.13,0,0,0-1.17-.45,2.34,2.34,0,0,0-1.89,1.08,6.39,6.39,0,0,0-1,2.78h5.41Z" style="fill:#767676;stroke:#767676;stroke-width:1.0509999990463257px"/><path d="M12.91,39h3.15v1.61H6.6V39H9.76V21.08s-5.32,0-5.32,6.82H3.36V20H19.22v7.9H18.14S17.87,21,12.82,21V39Z" style="fill:#5c5c5c"/></g></svg>