<svg xmlns="http://www.w3.org/2000/svg" width="156" height="54" viewBox="0 0 156 54"><g transform="translate(3372 3445)"><g transform="translate(-3372 -3445)"><rect width="156" height="54" rx="27" transform="translate(0 0)" fill="#fff"/></g><g transform="translate(-3352.5 -3438.5)"><g transform="translate(0 0)"><g transform="translate(13.603)"><path d="M10.611,21.194a16.69,16.69,0,0,1-6.968-1.839l3.55-.615s-3.642-.67-3.3-2.573c0,0,2.8,1.253,3.114.423,0,0-7.41-.943-5.937-5.867,0,0,5.221,2.474,5.35,1.476,0,0-8.84-2.313-5.774-8.182L11.941,10.7s1.09.582-.311,2.353c-1.087,1.374-.364,2.184-.364,2.184s2.756-5,3.094-5.613,1.2-2.243,2.95-1.991a2.172,2.172,0,0,1,1.974,2.132,11.458,11.458,0,0,0,1.108.723s-2.943.132-2.579,4.123a6.84,6.84,0,0,1-7.2,6.576Zm6.541-12.26a.5.5,0,0,0-.1.539.486.486,0,0,0,.45.3.481.481,0,0,0,.343-.145.5.5,0,0,0-.161-.8.482.482,0,0,0-.53.108Zm-13.2-4.1C1.31,2.141,3.612,0,3.612,0,4.157.635,11.3,8.144,11.79,8.7A1.15,1.15,0,0,1,12,9.887Z" transform="translate(-0.005)" fill="#1c324b"/><g transform="translate(18.588 7.732)"><path d="M5.768,8.287c-.015-.005-.844-.15-.844-.15l-.162-.03h0L6,7.619l-.228.667h0Zm-4.731-.9L.4,6.124,1.5,3.241a3.14,3.14,0,0,1,1.018-.26s-.4-.237-.75-.464L2.38.867,4.131.175,7.3.671h0l.633,1.245L6.1,7.274l-1.792.71ZM4.081,2.558a1.905,1.905,0,0,0-.966.771,1.274,1.274,0,0,0,.407,1.913,1.746,1.746,0,0,0,.312.116A1.616,1.616,0,0,0,5.561,4.69a1.514,1.514,0,0,0,.3-1.247,1.273,1.273,0,0,0-.65-.86,1.489,1.489,0,0,0-1.129-.024ZM0,7.232l.29-.76h0l.45.9Zm8.05-5.6L7.607.758l.07.011A6.244,6.244,0,0,1,8.31.875l-.26.759ZM2.73,0c-.026,0,.361.05.928.142L2.495.6C2.5.58,2.736,0,2.73,0Z" transform="translate(0 0.001)" fill="#65ad77"/><path d="M.575,2.35a1.121,1.121,0,0,1-.559-.724A1.188,1.188,0,0,1,.241.717,1.925,1.925,0,0,1,1.009.083,1.172,1.172,0,0,1,1.691.026.986.986,0,0,1,1.909.1a.954.954,0,0,1,.524.741,1.389,1.389,0,0,1-.186.924,1.305,1.305,0,0,1-1.123.694A1.45,1.45,0,0,1,.575,2.35Zm.78-.623a.4.4,0,0,0,.368-.1.655.655,0,0,0,.169-.232l.117.027.034-.092L1.928,1.3a.812.812,0,0,0,.037-.153A.35.35,0,0,0,1.941.976.278.278,0,0,0,1.856.866.326.326,0,0,0,1.721.8a.35.35,0,0,0-.239.028.674.674,0,0,0-.239.231l-.05.074-.371-.09A.268.268,0,0,1,.957.911a.441.441,0,0,1,.161,0L1.22.65a.427.427,0,0,0-.4.084.9.9,0,0,0-.187.272L.459.965l-.037.09L.6,1.1a.627.627,0,0,0-.031.278.29.29,0,0,0,.25.254.355.355,0,0,0,.308-.071,1.674,1.674,0,0,0,.25-.281l.332.077a.2.2,0,0,1-.12.117.314.314,0,0,1-.124,0ZM.9,1.35a.127.127,0,0,1-.114-.09h0a.268.268,0,0,1,.012-.117l.339.079a.583.583,0,0,1-.1.1.171.171,0,0,1-.1.034A.164.164,0,0,1,.9,1.35Zm.538-.163a.471.471,0,0,1,.084-.1.161.161,0,0,1,.139-.034h0a.12.12,0,0,1,.09.065.18.18,0,0,1-.01.135Z" transform="translate(3.293 2.585) rotate(7)" fill="#65ad77"/></g></g><path d="M3.5,1.578h9.146v2.73H6.729V7.884h5.885v2.7H6.729V17.1H3.5ZM17.05,4.235H14V1.46h3.05ZM14,5.606h3.05V17.1H14Zm10.776-.274a4.438,4.438,0,0,1,2.917.934,3.8,3.8,0,0,1,1.134,3.1V17.1H25.75V10.11a3.191,3.191,0,0,0-.243-1.392,1.707,1.707,0,0,0-1.687-.886,2.093,2.093,0,0,0-2.1,1.3,4.456,4.456,0,0,0-.3,1.75V17.1h-3V5.628h2.9V7.305a5.1,5.1,0,0,1,1.1-1.277,3.812,3.812,0,0,1,2.352-.7Zm5.306,4.124A8.539,8.539,0,0,1,32.266,3.18,6.506,6.506,0,0,1,37.1,1.26q3.924,0,5.738,2.573a5.572,5.572,0,0,1,1.076,2.9h-3.25a4.388,4.388,0,0,0-.814-1.687,3.3,3.3,0,0,0-2.625-1.012A3.256,3.256,0,0,0,34.43,5.463a6.872,6.872,0,0,0-1.023,4.045,6.038,6.038,0,0,0,1.081,3.92,3.416,3.416,0,0,0,2.75,1.3,3.142,3.142,0,0,0,2.606-1.118,4.857,4.857,0,0,0,.822-1.8h3.217a6.979,6.979,0,0,1-2.157,4.135,6.318,6.318,0,0,1-4.446,1.593,6.709,6.709,0,0,1-5.274-2.15,8.619,8.619,0,0,1-1.922-5.932ZM51.371,5.311a4.908,4.908,0,0,1,1.935.369,3.385,3.385,0,0,1,1.43,1.129,3,3,0,0,1,.58,1.324,16.3,16.3,0,0,1,.105,2.22V17.1H52.35V10.11a3.076,3.076,0,0,0-.317-1.5,1.589,1.589,0,0,0-1.561-.8,2.15,2.15,0,0,0-1.809.8,3.644,3.644,0,0,0-.613,2.272V17.1h-3V1.608h3V7.1a3.686,3.686,0,0,1,1.514-1.4,4.278,4.278,0,0,1,1.807-.393Zm11.16,6.079a4.237,4.237,0,0,1-.722.219,4.808,4.808,0,0,1-.8.205l-.675.127a4.359,4.359,0,0,0-1.361.411,1.379,1.379,0,0,0-.7,1.276,1.344,1.344,0,0,0,.427,1.113,1.608,1.608,0,0,0,1.042.342,3.061,3.061,0,0,0,1.788-.57,2.353,2.353,0,0,0,1-2.006Zm-1.345-1.28a4.692,4.692,0,0,0,1.192-.264.9.9,0,0,0,.644-.854,1.014,1.014,0,0,0-.491-.976,3.064,3.064,0,0,0-1.44-.269,1.876,1.876,0,0,0-1.508.528,2.192,2.192,0,0,0-.422,1.055h-2.9A4.412,4.412,0,0,1,57.1,6.851Q58.3,5.332,61.2,5.332a7.271,7.271,0,0,1,3.355.75,2.877,2.877,0,0,1,1.466,2.827v5.272q0,.55.021,1.329c.021.394,0,1.593,0,1.593H63.117s.021-1.09,0-1.35a4.942,4.942,0,0,1-1.34.942,4.315,4.315,0,0,1-2.194.559A3.772,3.772,0,0,1,57,16.363a2.818,2.818,0,0,1-1.113-2.319,3.279,3.279,0,0,1,1.635-3.069,7.259,7.259,0,0,1,2.637-.739Zm9.035-5.875h-3.05V1.46h3.05Zm-3.05,1.371h3.05V17.1h-3.05ZM77.95,5.332a4.438,4.438,0,0,1,2.917.933A3.8,3.8,0,0,1,82,9.361V17.1h-3.08V10.11a3.191,3.191,0,0,0-.243-1.393,1.707,1.707,0,0,0-1.687-.886,2.093,2.093,0,0,0-2.1,1.3,4.457,4.457,0,0,0-.3,1.75V17.1h-3V5.628h2.9V7.305a5.1,5.1,0,0,1,1.1-1.277,3.813,3.813,0,0,1,2.353-.7ZM92.216,6.5a2.1,2.1,0,0,0-.638-1.73,2.77,2.77,0,0,0-1.788-.517H86.763V8.834H89.79a2.625,2.625,0,0,0,1.788-.559A2.238,2.238,0,0,0,92.215,6.5Zm3.217-.021q0,2.753-1.393,3.892a6.132,6.132,0,0,1-3.977,1.139h-3.3V17.1H83.537V1.555h6.772a5.516,5.516,0,0,1,3.734,1.2,4.674,4.674,0,0,1,1.389,3.726ZM107,19.308l.38.021a4.738,4.738,0,0,0,.844-.031,1.515,1.515,0,0,0,.675-.243,1.622,1.622,0,0,0,.491-.75,1.584,1.584,0,0,0,.185-.7l-4.219-12h3.343l2.507,8.481,2.373-8.481h3.2l-3.945,11.307a15.868,15.868,0,0,1-1.8,4.056,3.429,3.429,0,0,1-2.658.786q-.4,0-.644-.006t-.728-.037Z" transform="translate(-3.5 17.879)" fill="#1c324b"/><path d="M121.693,15.99a4.237,4.237,0,0,1-.721.219,4.808,4.808,0,0,1-.8.205l-.675.127a4.359,4.359,0,0,0-1.36.412,1.379,1.379,0,0,0-.7,1.276,1.344,1.344,0,0,0,.427,1.113,1.608,1.608,0,0,0,1.039.343,3.061,3.061,0,0,0,1.788-.569,2.353,2.353,0,0,0,1-2.006Zm-1.345-1.279a4.692,4.692,0,0,0,1.192-.264.9.9,0,0,0,.644-.854,1.014,1.014,0,0,0-.491-.975,3.064,3.064,0,0,0-1.44-.269,1.875,1.875,0,0,0-1.508.527,2.192,2.192,0,0,0-.422,1.055h-2.9a4.412,4.412,0,0,1,.844-2.479q1.192-1.519,4.092-1.519a7.271,7.271,0,0,1,3.354.75,2.877,2.877,0,0,1,1.466,2.827v5.272q0,.55.021,1.329c.021.394,0,1.593,0,1.593h-2.922s.021-1.09,0-1.35a4.942,4.942,0,0,1-1.34.942,4.315,4.315,0,0,1-2.194.559,3.772,3.772,0,0,1-2.579-.889,2.818,2.818,0,0,1-1.113-2.319,3.279,3.279,0,0,1,1.635-3.069,7.259,7.259,0,0,1,2.637-.739Z" transform="translate(-23.214 13.493)" fill="#1c324b"/></g><path d="M0,3.8A3.8,3.8,0,1,1,3.8,7.6,3.8,3.8,0,0,1,0,3.8Zm.909,0A2.891,2.891,0,1,0,3.8.909,2.895,2.895,0,0,0,.909,3.8Zm3.7,1.883L3.874,4.3H3.218V5.684H2.494V1.917H4a1.5,1.5,0,0,1,.677.144,1.081,1.081,0,0,1,.449.414,1.2,1.2,0,0,1,.158.622V3.1a1.213,1.213,0,0,1-.2.686,1.057,1.057,0,0,1-.465.385l.827,1.51ZM3.218,3.679h.724a.62.62,0,0,0,.442-.146.541.541,0,0,0,.152-.416V3.112A.531.531,0,0,0,4.378,2.7a.639.639,0,0,0-.454-.15H3.218Z" transform="translate(114.97 18.012)" fill="#464646"/></g></g></svg>