<svg xmlns="http://www.w3.org/2000/svg" viewBox="0 0 120 60"><title>logo-morgan-stanley</title><rect width="120" height="60" style="fill:none"/><g style="opacity:0.5"><path d="M98.5,21V33.32a1.65,1.65,0,0,0,.61,1.22,2.63,2.63,0,0,0,1.57.35,4.78,4.78,0,0,0,1-.18V33.59h-.52c-1,0-1.22-.44-1.22-.87V21Zm-32.6.09a4.41,4.41,0,0,0-3,1,3.25,3.25,0,0,0-1.14,2.45,3.07,3.07,0,0,0,1.31,2.53,10.26,10.26,0,0,0,2.8,1.31c1.75.61,3.32,1.14,3.32,2.71a2.44,2.44,0,0,1-.7,1.75,3.27,3.27,0,0,1-2.18.7,3.5,3.5,0,0,1-3.5-2.71l-1.49.44A8.1,8.1,0,0,0,63,33.76a4.58,4.58,0,0,0,3.24,1.14,4.93,4.93,0,0,0,3.58-1.22,4,4,0,0,0,1-2.71,3,3,0,0,0-1.4-2.62A9.69,9.69,0,0,0,66.51,27c-1.66-.61-3.23-1.14-3.23-2.54A2.11,2.11,0,0,1,63.89,23a2.87,2.87,0,0,1,1.83-.52,3.37,3.37,0,0,1,2.1.7,3,3,0,0,1,1,1.66l1.4-.17A4.13,4.13,0,0,0,65.9,21.09ZM0,21.35V34.72H1.57V22.49h0L5.24,34.72H6.47l3.67-12.24h0V34.72h1.57V21.35H9.18L5.86,32.1h0L2.54,21.35Zm73.42.26v3.23H71.93v1.22h1.49v7.25A1.41,1.41,0,0,0,74,34.55a2.63,2.63,0,0,0,1.57.35,4.78,4.78,0,0,0,1-.18V33.59h-.52c-1,0-1.14-.44-1.14-.87V26h1.66V24.76H75V21.61Zm-55.5,3a3.9,3.9,0,0,0-3.15,1.49,5.93,5.93,0,0,0-1.14,3.67,5.75,5.75,0,0,0,1.14,3.67,4.07,4.07,0,0,0,6.29,0,5.93,5.93,0,0,0,1.14-3.67,5.75,5.75,0,0,0-1.14-3.67,3.78,3.78,0,0,0-3.15-1.49Zm89.06.09a4.05,4.05,0,0,0-1.83.35,3.87,3.87,0,0,0-1.31,1,6,6,0,0,0-1.14,3.76,5.74,5.74,0,0,0,1.4,4A4.2,4.2,0,0,0,107.15,35a3.83,3.83,0,0,0,3.76-2.27l-1.22-.61a2.53,2.53,0,0,1-2.54,1.66,2.49,2.49,0,0,1-2.1-1,3.91,3.91,0,0,1-.79-2.62H111v-1a4.79,4.79,0,0,0-1.22-3.58,3.84,3.84,0,0,0-2.8-.87Zm-73.24,0c-1.75,0-4.2,1.14-4.2,5.07s2.45,5.07,4.11,5.07A3.15,3.15,0,0,0,36.1,33.5h.09v1.84a2.19,2.19,0,0,1-2.27,2.11h-.09a7.6,7.6,0,0,1-3.06-.61v1.31a7.38,7.38,0,0,0,2.88.52c2.71,0,4-1.49,4-3.67V24.85H36.53l-.35,1a2.63,2.63,0,0,0-2.45-1.22Zm10,0A4,4,0,0,0,40,26.77l1.22.61a2.49,2.49,0,0,1,2.45-1.58c1.31,0,2,.61,2,1.75v.61c-.09.09-.17.09-.52.18a9.32,9.32,0,0,0-3.93,1,3.09,3.09,0,0,0-1.57,2.71,3,3,0,0,0,1,2.1,3.76,3.76,0,0,0,1.92.79,3.47,3.47,0,0,0,3.23-1.4,1.05,1.05,0,0,0,.7,1,2.59,2.59,0,0,0,1.4.09V33.67c-.35,0-.52-.18-.52-.61V27.64a2.47,2.47,0,0,0-1.14-2.27,4.28,4.28,0,0,0-2.53-.7Zm10.66,0a4.06,4.06,0,0,0-2.88,1.49V24.85H49.9v9.88h1.57V27.38a4.58,4.58,0,0,1,2.8-1.49c1,0,1.57.52,1.57,1.75v7.17h1.57V27.55a2.86,2.86,0,0,0-2.83-2.89h-.23Zm27.88,0a4,4,0,0,0-3.67,2.1l1.23.61a2.49,2.49,0,0,1,2.45-1.57c1.31,0,2,.61,2,1.75v.61c-.09.09-.18.09-.52.18a9.32,9.32,0,0,0-3.93,1,3.09,3.09,0,0,0-1.58,2.71,3,3,0,0,0,1,2.1,3.76,3.76,0,0,0,1.92.79,3.47,3.47,0,0,0,3.23-1.4,1.05,1.05,0,0,0,.7,1,2.59,2.59,0,0,0,1.4.09V33.67c-.35,0-.52-.18-.52-.61V27.64a2.66,2.66,0,0,0-1.14-2.27A4.46,4.46,0,0,0,82.24,24.67Zm10.57,0a3.91,3.91,0,0,0-2.88,1.49V24.85H88.36v9.88h1.57V27.38a4.58,4.58,0,0,1,2.8-1.49c1,0,1.57.52,1.57,1.75v7.17h1.57V27.55a2.78,2.78,0,0,0-2.65-2.9h-.41Zm-63.89,0a3.43,3.43,0,0,0-3.32,2V24.85H24v9.88h1.57V29.13c.44-2,1.49-3,3.32-3Zm83.2.17,3.41,9.79v.09a4.37,4.37,0,0,1-1.31,2.45,2.1,2.1,0,0,1-1.4.35c-.18,0-.61-.09-.79-.09v1.22a3.26,3.26,0,0,0,1,.17,3,3,0,0,0,1.83-.52,6.46,6.46,0,0,0,1.66-2.62L120,24.93h-1.49l-2.27,7.6h0l-2.62-7.6h-1.49Zm-94.22,1c1.66,0,2.62,1.49,2.62,3.93s-1,3.93-2.62,3.93-2.62-1.49-2.62-3.93,1-3.93,2.63-3.93Zm15.91.09a2.78,2.78,0,0,1,2.36,1.31v4.72a2.86,2.86,0,0,1-2.36,1.84c-1.57,0-2.71-1-2.71-3.93.09-2.62,1.05-3.93,2.71-3.93Zm73.15,0c1.75,0,2.54,1,2.54,3h-5.16c.18-2.1,1-3,2.63-3ZM45.8,29.3v2.53c-.09.87-1.66,1.92-3,1.84a1.61,1.61,0,0,1-1.49-1.57c-.09-1.57,1-2.27,3.76-2.53C45.19,29.48,45.53,29.48,45.8,29.3Zm38.46,0v2.53c-.09.87-1.66,1.92-3,1.84A1.61,1.61,0,0,1,79.8,32.1c-.09-1.57,1-2.27,3.76-2.53.17-.09.52-.09.69-.27Z"/></g></svg>