<svg xmlns="http://www.w3.org/2000/svg" viewBox="0 0 120 60"><title>logo-Yale</title><g style="opacity:0.5"><rect width="120" height="60" style="fill:none"/><path d="M47.8,22.08,40.5,33.59v7.76c.8,1.87,3,2.15,5,2.15v1H31.3v-1c2-.09,4.5-.37,5.2-1.59V34L29,22.17c-1.3-2-2.5-2.62-5-2.81V18.24H36.4v1a6.3,6.3,0,0,0-3.8,1l6.9,11.13L46.3,20.3a6.83,6.83,0,0,0-4-1v-1H53v1A6.18,6.18,0,0,0,47.8,22.08ZM62.3,45c-2.4,0-3.5-1.5-3.6-2.62A7.94,7.94,0,0,1,53.4,45C51,45,49,43.6,49,41.26A6.24,6.24,0,0,1,49.9,38l8.8-3V31.9c0-1.87-.9-3.65-2.9-3.65-1.2,0-2.3,1.4-2.4,3.46l-4,.66V31.9c1.3-3.74,5.7-5.15,7.8-5.15,4,0,5.5,2,5.4,5.05l-.1,8.7c0,1.68.9,2.15,1.8,2.15a3.5,3.5,0,0,0,2.3-1.22v1.22C65.6,43.69,63.9,45,62.3,45Zm-8.8-6.83a6.64,6.64,0,0,0-.3,2.15,2.36,2.36,0,0,0,2.19,2.53h0a4.79,4.79,0,0,0,3.3-1.31V35.93C57.6,36.49,54.7,37.61,53.5,38.17ZM67,44.63v-.94c2-.09,2.6-.56,2.9-1.22V21c0-1.4-.2-2-3.3-2.24v-.84L74.7,16l.3.75-1.3,1.5V42.47c.4.84,1.3,1.12,3.1,1.22v.93Zm20.4.28A8,8,0,0,1,79.2,37q0-.18,0-.37c0-5.89,3.8-9.92,9.3-9.92,4.4,0,6.8,2.34,6.8,6v.75L83.4,33.4a12.41,12.41,0,0,0-.1,2.15c0,4.21,2.8,7,6.6,7,2.3,0,3.4-.75,5.2-2.15l.7.93c-2.7,2.15-4.8,3.56-8.4,3.56Zm.4-16.84c-2.2,0-3.8,1.68-4.3,4.3l7.8-.09C91.3,30,89.8,28.07,87.8,28.07Z" style="fill:#313131"/></g></svg>