<svg xmlns="http://www.w3.org/2000/svg" viewBox="0 0 120 60"><title>logo-saab</title><g style="opacity:0.800000011920929"><rect width="120" height="60" style="fill:none"/><path d="M104.65,34.2a4.71,4.71,0,0,0-4.54-4.83C103.4,28.86,104,26.7,104,25s-1-4.72-5.4-4.72h-17v14l-5.79-14H65.11L60,32.9l-5.4-12.67H43.86L39.26,32c-.45-3.29-3.58-4.89-10.62-4.77-3.52.06-4.71-.45-4.71-1.87s1.31-1.93,3.07-1.87,3.24.34,3.24,2.73h8.35c0-5.17-6.14-6.14-11.19-6.19s-11.3,1-11.48,6.14,3.86,6,9.54,5.91c5.23-.06,5.11,1.48,5.17,2v.11c0,.63-.34,1.93-3.69,1.88-2.44,0-3.18-1.08-3.41-1.87a3,3,0,0,1-.11-.74H15c0,.23.06.45.06.74C15.4,37,17.9,40.12,27.44,40c7.61-.06,8.58-1.59,9.32-2.16l-.57,1.65h7l1.25-3H54l1.25,3h9.43l1.25-3h9.49l1.25,3H99.47a5.19,5.19,0,0,0,5.17-5.21v-.07ZM46.36,31.93l2.9-7,2.9,7Zm21.42,0,2.9-7,2.9,7Zm21-4.37V24.83h6a1.35,1.35,0,0,1,1.36,1.33s0,0,0,0a1.43,1.43,0,0,1-1.42,1.36Zm0,6.87V31.7h6.42a1.37,1.37,0,0,1,.13,2.73h-.13" style="fill:#c8c8c8"/></g></svg>