<svg xmlns="http://www.w3.org/2000/svg" viewBox="0 0 120 60"><title>logo-deutsche-telekom</title><g style="opacity:0.5"><rect width="120" height="60" style="fill:none"/><path d="M1,29H6.2v5.3H1Z" style="fill:#9a9a9a"/><path d="M16.7,29H22v5.3H16.7Z" style="fill:#9a9a9a"/><path d="M32.4,29h5.3v5.3H32.4Z" style="fill:#9a9a9a"/><path d="M45.1,37.4c0,3.5.6,4,4.3,4.1h0V43H36.7V41.5h0c3.7,0,4.3-.6,4.3-4.1h0V18.3h0c-4.3.1-6.8,2.9-7.2,8.1h0l-1.4-.2.3-9.1H53.4l.3,9.1-1.4.2h0c-.4-5.2-2.9-8.1-7.2-8.1h0Z" style="fill:#646464"/><path d="M48.4,29h5.2v5.3H48.4Z" style="fill:#9a9a9a"/><path d="M63.9,19.2c0-.8,0-1.1-.2-1.3a1.55,1.55,0,0,0-.8-.2h-.2v-.6h3.8a4.59,4.59,0,0,1,3.9,1.6,5.67,5.67,0,0,1,1.2,3.7,5.06,5.06,0,0,1-1.6,4,4.84,4.84,0,0,1-3.6,1.3H62.6v-.5h.2a1.29,1.29,0,0,0,.8-.2c.2-.2.2-.5.2-1.3h0V19.2Zm1.5,6.6c0,1.2.2,1.4,1.3,1.4,2.3,0,3.2-1.3,3.2-4.8s-.9-4.8-3.2-4.8a1.74,1.74,0,0,0-1.2.3c-.2.2-.2.4-.2,1.1h0v6.8Z" style="fill:#9a9a9a"/><path d="M74.2,24.1c0,2.3.6,3.3,1.8,3.3.9,0,1.4-.5,2-1.6h0l.4.2h0c-.7,1.4-1.5,2-2.7,2-1.9,0-3.1-1.5-3.1-4,0-2.2,1.2-3.9,2.9-3.9s2.9,1.5,3,3.9H74.2Zm2.9-.6c0-1.7-.5-2.7-1.4-2.7s-1.5,1.1-1.5,2.7Z" style="fill:#9a9a9a"/><path d="M84.6,26.1a2.49,2.49,0,0,1-2.3,1.8,1.94,1.94,0,0,1-1.6-.8,3.87,3.87,0,0,1-.4-2.2h0V22.2h0c0-1.1-.1-1.3-.8-1.3h-.2v-.5l2.3-.1v5.1h0c0,.7,0,1,.2,1.3a.79.79,0,0,0,.8.5,1.74,1.74,0,0,0,1.4-1,3.74,3.74,0,0,0,.4-2h0v-2h0c0-1.1-.1-1.3-.8-1.3h-.2v-.5l2.4-.1V26h0c0,1.1.1,1.3.8,1.3h.2v.5l-2.2.1Z" style="fill:#9a9a9a"/><path d="M89.8,25.4a3.45,3.45,0,0,0,.1,1.2.76.76,0,0,0,.8.6c.6,0,1-.7,1-1.8h0v-.1h.5v.3h0c0,1.6-.6,2.4-1.9,2.4a2,2,0,0,1-1.4-.5c-.4-.4-.4-.9-.4-2h0V21H87.3v-.5h0c1.4-.3,1.9-1,2-2.9h.4v2.8h2.2V21H89.7v4.4Z" style="fill:#9a9a9a"/><path d="M97.4,22.7h-.5c-.3-1.4-.9-2-1.9-2a1.14,1.14,0,0,0-1.2,1.07v0c0,.6.3.9,1.3,1.2a4.34,4.34,0,0,1,1.8.8,1.88,1.88,0,0,1,.8,1.7,2.31,2.31,0,0,1-2.22,2.4H95.3a2.94,2.94,0,0,1-1.8-.6c-.1,0-.1-.1-.2-.1s-.2.1-.3.3h0v.2h-.4V25.1H93a4.51,4.51,0,0,0,.6,1.5,2.23,2.23,0,0,0,1.7.9,1.32,1.32,0,0,0,1.3-1.3,1.08,1.08,0,0,0-.7-1.1,13.32,13.32,0,0,0-1.4-.6c-1.3-.4-1.9-1.1-1.9-2.1a2,2,0,0,1,2-2h.21a3.71,3.71,0,0,1,1.5.4.35.35,0,0,1,.2.1c.1,0,.2-.1.2-.4h.5v2.2Z" style="fill:#9a9a9a"/><path d="M104.4,25.9c-.6,1.4-1.4,2.1-2.6,2.1-1.8,0-3.1-1.6-3.1-3.9s1.3-3.9,3.3-3.9a2.25,2.25,0,0,1,2.4,2.1h0a.92.92,0,0,1-.84,1h-.06a.82.82,0,0,1-.8-.83s0,0,0-.07a.79.79,0,0,1,.78-.8h.22a1.42,1.42,0,0,0-1.4-.9c-1.2,0-1.9,1.1-1.9,3.3s.6,3.3,1.8,3.3c.8,0,1.4-.5,1.9-1.7h0Z" style="fill:#9a9a9a"/><path d="M110.2,23c0-.9,0-1.3-.2-1.6a1,1,0,0,0-.8-.5,1.6,1.6,0,0,0-1.3,1,4.74,4.74,0,0,0-.4,2.3h0V26h0c0,1.1.1,1.3.8,1.3h.3v.5H105v-.5h.3c.7,0,.8-.2.8-1.3h0V18.9h0c0-1.1-.1-1.3-.8-1.3H105v-.5l2.3-.1v4.8h0a2.21,2.21,0,0,1,2.1-1.5,1.58,1.58,0,0,1,1.5.7,3.89,3.89,0,0,1,.5,2.5h0V26h0c0,1.1.1,1.3.8,1.3h.2v.5h-2.3V23Z" style="fill:#9a9a9a"/><path d="M114.7,24.1c0,2.3.6,3.3,1.8,3.3.9,0,1.4-.5,2-1.6h0l.5.2h0c-.7,1.4-1.5,2-2.7,2-1.9,0-3.1-1.5-3.1-4,0-2.2,1.2-3.9,2.9-3.9s2.9,1.5,3,3.9h-4.4Zm2.9-.6c0-1.7-.5-2.7-1.4-2.7s-1.5,1.1-1.5,2.7Z" style="fill:#9a9a9a"/><path d="M67.2,40.9c0,.8,0,1.1.2,1.3a1.88,1.88,0,0,0,.8.2h.4V43H64.2v-.5h.4a1.29,1.29,0,0,0,.8-.2c.2-.2.2-.5.2-1.3h0V32.9h-.3a2.26,2.26,0,0,0-2.1,1.4,6.91,6.91,0,0,0-.4,1.8h-.5l.1-3.7h7.9l.1,3.7h-.5c-.3-2.3-1-3.2-2.6-3.2h-.2v8Z" style="fill:#9a9a9a"/><path d="M72.8,39.3c0,2.3.6,3.3,1.8,3.3.9,0,1.4-.5,2-1.6h0l.5.3h0c-.7,1.4-1.5,2-2.7,2-1.9,0-3.1-1.5-3.1-4,0-2.2,1.2-3.9,2.9-3.9s2.9,1.5,3,3.9Zm2.9-.6c0-1.7-.5-2.7-1.4-2.7s-1.5,1.1-1.5,2.7Z" style="fill:#9a9a9a"/><path d="M80.3,41.2c0,1.1.1,1.3.8,1.3h.3V43H77.9v-.5h.3c.7,0,.8-.2.8-1.3h0V34.1h0c0-1.1-.1-1.3-.8-1.3H78v-.5l2.3-.1Z" style="fill:#9a9a9a"/><path d="M83.7,39.3c0,2.3.6,3.3,1.8,3.3.9,0,1.4-.5,2-1.6h0l.5.3h0c-.7,1.4-1.5,2-2.7,2-1.9,0-3.1-1.5-3.1-4,0-2.2,1.2-3.9,2.9-3.9s2.9,1.5,3,3.9Zm2.9-.6c0-1.7-.5-2.7-1.4-2.7s-1.5,1.1-1.5,2.7Z" style="fill:#9a9a9a"/><path d="M94.2,43l-2.3-3.7-.6.6v1.4h0c0,1.1.1,1.3.8,1.3h.3V43H88.9v-.5h.3c.7,0,.8-.2.8-1.3h0V34.1h0c0-1.1-.1-1.3-.8-1.3H89v-.5l2.3-.1v6.9l2.2-1.9h0c.3-.3.5-.5.5-.7s-.2-.4-.7-.4h-.2v-.5h3.2v.5h-.2c-.5,0-.7.1-1.3.7h0L93,38.4l1.9,3.1h0c.5.8.8,1,1.3,1h.1V43Z" style="fill:#9a9a9a"/><path d="M103.4,39.3c0,2.3-1.3,3.9-3.2,3.9S97,41.6,97,39.3s1.3-3.9,3.3-3.9C102.1,35.4,103.4,37,103.4,39.3Zm-4.6-2.4a5.2,5.2,0,0,0-.4,2.4c0,2.3.5,3.4,1.7,3.4s1.7-1.1,1.7-3.4a4.94,4.94,0,0,0-.4-2.4,1.34,1.34,0,0,0-2.6,0Z" style="fill:#9a9a9a"/><path d="M112.8,38.5a5.25,5.25,0,0,0-.2-1.8,1,1,0,0,0-.8-.5,1.4,1.4,0,0,0-1.1.8c-.3.5-.3.9-.3,2.2h0v2h0c0,1.1.1,1.3.8,1.3h.2V43H109V38.7h0c0-1.4,0-1.7-.2-2a1,1,0,0,0-.8-.5,1.4,1.4,0,0,0-1.1.8,4.07,4.07,0,0,0-.3,2.2h0v2h0c0,1.1.1,1.3.8,1.3h.2V43h-3.5v-.5h.3c.7,0,.8-.3.8-1.3h0V37.4h0c0-1-.2-1.3-.8-1.3h-.2v-.5l2.2-.1v1.3h0a2.15,2.15,0,0,1,1.9-1.4,1.87,1.87,0,0,1,1.9,1.5,2.19,2.19,0,0,1,2-1.5,1.82,1.82,0,0,1,1.6.8,3.52,3.52,0,0,1,.4,2h0v2.9h0c0,1.1.1,1.3.8,1.3h.2V43h-2.3V38.5Z" style="fill:#9a9a9a"/></g></svg>