<svg xmlns="http://www.w3.org/2000/svg" viewBox="0 0 120 60"><title>logo-qualcomm</title><g style="opacity:0.5"><rect width="120" height="60" style="fill:none"/><path d="M49.3,33.54a1.27,1.27,0,0,0,1.1,1.1h7.2L56,32H51.8V22H49.3Z" style="fill:#505050"/><path d="M22.8,28.56A10.91,10.91,0,1,0,11.56,39.12h.34a14.09,14.09,0,0,0,1.9-.19V43h3.1V37.86A10.48,10.48,0,0,0,22.8,28.56Zm-6,4.85V30l-3.1.87v4.26a5.83,5.83,0,0,1-1.8.29A6.88,6.88,0,1,1,19,28.56,7.13,7.13,0,0,1,16.8,33.41Z" style="fill:#505050"/><path d="M32.8,34.64H25.7a1.27,1.27,0,0,1-1.1-1.1V21.94h2.5v10h4.3v-10h2.5v11.6a1.27,1.27,0,0,1-1.1,1.1Z" style="fill:#505050"/><path d="M65.8,22.7a6.4,6.4,0,0,0-3.4-.9,6.7,6.7,0,0,0,0,13.4h0a6.6,6.6,0,0,0,3.2-.8l-1.2-2.2a4.55,4.55,0,0,1-2,.5,4.2,4.2,0,0,1,0-8.4,4.28,4.28,0,0,1,2.2.6Z" style="fill:#505050"/><path d="M71.2,21.8a6.7,6.7,0,1,0,6.7,6.7h0A6.7,6.7,0,0,0,71.2,21.8Zm0,10.9a4.2,4.2,0,1,1,4.2-4.2h0A4.22,4.22,0,0,1,71.2,32.7Z" style="fill:#505050"/><path d="M42.2,22.3H39.7L34.2,34.8h2.6L38.1,32h5.7l.1.3L45,34.8h2.6ZM39,30l2-4.5L43,30Z" style="fill:#505050"/><path d="M117.7,33.3l-4.5-10.5a1.75,1.75,0,0,0-2.8,0l-3.3,7.7-3.3-7.7a1.75,1.75,0,0,0-2.8,0l-3.3,7.7-3.3-7.7a1.75,1.75,0,0,0-2.8,0l-3.3,7.7L85,22.8a1.75,1.75,0,0,0-2.8,0L77.7,33.3a1.35,1.35,0,0,0,2.4,1.2l3.6-8.3,3.6,8.3a1.36,1.36,0,0,0,2.3,0l3.6-8.3,3.6,8.3a1.1,1.1,0,0,0,1,.6H98a1.1,1.1,0,0,0,1-.6l3.6-8.3,3.6,8.3a1.36,1.36,0,0,0,2.3,0l3.6-8.3,3.6,8.3c.4,1.3,2.6.4,2-1.2Z" style="fill:#505050"/><path d="M117.5,22.25a1.47,1.47,0,0,0-1.5,1.45s0,0,0,.05a1.54,1.54,0,0,0,1.5,1.5,1.5,1.5,0,0,0,0-3Zm0,2.6a1.2,1.2,0,1,1,1.2-1.2h0a1.15,1.15,0,0,1-1.11,1.2Zm.7-1.5c0-.3-.2-.5-.6-.5H117v1.7h.3v-.7h.3l.4.7h.3l-.5-.7c.2-.1.4-.2.4-.5Zm-1,.2V23h.3c.2,0,.4,0,.4.2s-.2.3-.4.3Z" style="fill:#505050"/></g></svg>